<?xml version="1.0" encoding="utf-8" standalone="no"?>
<!DOCTYPE svg PUBLIC "-//W3C//DTD SVG 1.1//EN"
  "http://www.w3.org/Graphics/SVG/1.1/DTD/svg11.dtd">
<svg xmlns:xlink="http://www.w3.org/1999/xlink" width="1432.742187pt" height="712.166562pt" viewBox="0 0 1432.742187 712.166562" xmlns="http://www.w3.org/2000/svg" version="1.1">
 <metadata>
  <rdf:RDF xmlns:dc="http://purl.org/dc/elements/1.1/" xmlns:cc="http://creativecommons.org/ns#" xmlns:rdf="http://www.w3.org/1999/02/22-rdf-syntax-ns#">
   <cc:Work>
    <dc:type rdf:resource="http://purl.org/dc/dcmitype/StillImage"/>
    <dc:date>2025-12-18T02:28:36.298946</dc:date>
    <dc:format>image/svg+xml</dc:format>
    <dc:creator>
     <cc:Agent>
      <dc:title>Matplotlib v3.10.7, https://matplotlib.org/</dc:title>
     </cc:Agent>
    </dc:creator>
   </cc:Work>
  </rdf:RDF>
 </metadata>
 <defs>
  <style type="text/css">*{stroke-linejoin: round; stroke-linecap: butt}</style>
 </defs>
 <g id="figure_1">
  <g id="patch_1">
   <path d="M 0 712.166562 
L 1432.742187 712.166562 
L 1432.742187 0 
L 0 0 
z
" style="fill: #ffffff"/>
  </g>
  <g id="axes_1">
   <g id="patch_2">
    <path d="M 56.032188 670.739062 
L 1425.542187 670.739062 
L 1425.542187 23.899062 
L 56.032188 23.899062 
z
" style="fill: #ffffff"/>
   </g>
   <g id="matplotlib.axis_1">
    <g id="xtick_1">
     <g id="line2d_1">
      <path d="M 118.282642 670.739062 
L 118.282642 23.899062 
" clip-path="url(#pc32dbbecac)" style="fill: none; stroke: #b0b0b0; stroke-opacity: 0.3; stroke-width: 0.8; stroke-linecap: square"/>
     </g>
     <g id="line2d_2">
      <defs>
       <path id="m8de3e96e74" d="M 0 0 
L 0 3.5 
" style="stroke: #000000; stroke-width: 0.8"/>
      </defs>
      <g>
       <use xlink:href="#m8de3e96e74" x="118.282642" y="670.739062" style="stroke: #000000; stroke-width: 0.8"/>
      </g>
     </g>
     <g id="text_1">
      <!-- Feb -->
      <g transform="translate(109.43108 685.3375) scale(0.1 -0.1)">
       <defs>
        <path id="DejaVuSans-46" d="M 628 4666 
L 3309 4666 
L 3309 4134 
L 1259 4134 
L 1259 2759 
L 3109 2759 
L 3109 2228 
L 1259 2228 
L 1259 0 
L 628 0 
L 628 4666 
z
" transform="scale(0.015625)"/>
        <path id="DejaVuSans-65" d="M 3597 1894 
L 3597 1613 
L 953 1613 
Q 991 1019 1311 708 
Q 1631 397 2203 397 
Q 2534 397 2845 478 
Q 3156 559 3463 722 
L 3463 178 
Q 3153 47 2828 -22 
Q 2503 -91 2169 -91 
Q 1331 -91 842 396 
Q 353 884 353 1716 
Q 353 2575 817 3079 
Q 1281 3584 2069 3584 
Q 2775 3584 3186 3129 
Q 3597 2675 3597 1894 
z
M 3022 2063 
Q 3016 2534 2758 2815 
Q 2500 3097 2075 3097 
Q 1594 3097 1305 2825 
Q 1016 2553 972 2059 
L 3022 2063 
z
" transform="scale(0.015625)"/>
        <path id="DejaVuSans-62" d="M 3116 1747 
Q 3116 2381 2855 2742 
Q 2594 3103 2138 3103 
Q 1681 3103 1420 2742 
Q 1159 2381 1159 1747 
Q 1159 1113 1420 752 
Q 1681 391 2138 391 
Q 2594 391 2855 752 
Q 3116 1113 3116 1747 
z
M 1159 2969 
Q 1341 3281 1617 3432 
Q 1894 3584 2278 3584 
Q 2916 3584 3314 3078 
Q 3713 2572 3713 1747 
Q 3713 922 3314 415 
Q 2916 -91 2278 -91 
Q 1894 -91 1617 61 
Q 1341 213 1159 525 
L 1159 0 
L 581 0 
L 581 4863 
L 1159 4863 
L 1159 2969 
z
" transform="scale(0.015625)"/>
       </defs>
       <use xlink:href="#DejaVuSans-46"/>
       <use xlink:href="#DejaVuSans-65" transform="translate(52.019531 0)"/>
       <use xlink:href="#DejaVuSans-62" transform="translate(113.542969 0)"/>
      </g>
     </g>
    </g>
    <g id="xtick_2">
     <g id="line2d_3">
      <path d="M 227.945227 670.739062 
L 227.945227 23.899062 
" clip-path="url(#pc32dbbecac)" style="fill: none; stroke: #b0b0b0; stroke-opacity: 0.3; stroke-width: 0.8; stroke-linecap: square"/>
     </g>
     <g id="line2d_4">
      <g>
       <use xlink:href="#m8de3e96e74" x="227.945227" y="670.739062" style="stroke: #000000; stroke-width: 0.8"/>
      </g>
     </g>
     <g id="text_2">
      <!-- Mar -->
      <g transform="translate(218.511633 685.3375) scale(0.1 -0.1)">
       <defs>
        <path id="DejaVuSans-4d" d="M 628 4666 
L 1569 4666 
L 2759 1491 
L 3956 4666 
L 4897 4666 
L 4897 0 
L 4281 0 
L 4281 4097 
L 3078 897 
L 2444 897 
L 1241 4097 
L 1241 0 
L 628 0 
L 628 4666 
z
" transform="scale(0.015625)"/>
        <path id="DejaVuSans-61" d="M 2194 1759 
Q 1497 1759 1228 1600 
Q 959 1441 959 1056 
Q 959 750 1161 570 
Q 1363 391 1709 391 
Q 2188 391 2477 730 
Q 2766 1069 2766 1631 
L 2766 1759 
L 2194 1759 
z
M 3341 1997 
L 3341 0 
L 2766 0 
L 2766 531 
Q 2569 213 2275 61 
Q 1981 -91 1556 -91 
Q 1019 -91 701 211 
Q 384 513 384 1019 
Q 384 1609 779 1909 
Q 1175 2209 1959 2209 
L 2766 2209 
L 2766 2266 
Q 2766 2663 2505 2880 
Q 2244 3097 1772 3097 
Q 1472 3097 1187 3025 
Q 903 2953 641 2809 
L 641 3341 
Q 956 3463 1253 3523 
Q 1550 3584 1831 3584 
Q 2591 3584 2966 3190 
Q 3341 2797 3341 1997 
z
" transform="scale(0.015625)"/>
        <path id="DejaVuSans-72" d="M 2631 2963 
Q 2534 3019 2420 3045 
Q 2306 3072 2169 3072 
Q 1681 3072 1420 2755 
Q 1159 2438 1159 1844 
L 1159 0 
L 581 0 
L 581 3500 
L 1159 3500 
L 1159 2956 
Q 1341 3275 1631 3429 
Q 1922 3584 2338 3584 
Q 2397 3584 2469 3576 
Q 2541 3569 2628 3553 
L 2631 2963 
z
" transform="scale(0.015625)"/>
       </defs>
       <use xlink:href="#DejaVuSans-4d"/>
       <use xlink:href="#DejaVuSans-61" transform="translate(86.279297 0)"/>
       <use xlink:href="#DejaVuSans-72" transform="translate(147.558594 0)"/>
      </g>
     </g>
    </g>
    <g id="xtick_3">
     <g id="line2d_5">
      <path d="M 345.170748 670.739062 
L 345.170748 23.899062 
" clip-path="url(#pc32dbbecac)" style="fill: none; stroke: #b0b0b0; stroke-opacity: 0.3; stroke-width: 0.8; stroke-linecap: square"/>
     </g>
     <g id="line2d_6">
      <g>
       <use xlink:href="#m8de3e96e74" x="345.170748" y="670.739062" style="stroke: #000000; stroke-width: 0.8"/>
      </g>
     </g>
     <g id="text_3">
      <!-- Apr -->
      <g transform="translate(336.520748 685.3375) scale(0.1 -0.1)">
       <defs>
        <path id="DejaVuSans-41" d="M 2188 4044 
L 1331 1722 
L 3047 1722 
L 2188 4044 
z
M 1831 4666 
L 2547 4666 
L 4325 0 
L 3669 0 
L 3244 1197 
L 1141 1197 
L 716 0 
L 50 0 
L 1831 4666 
z
" transform="scale(0.015625)"/>
        <path id="DejaVuSans-70" d="M 1159 525 
L 1159 -1331 
L 581 -1331 
L 581 3500 
L 1159 3500 
L 1159 2969 
Q 1341 3281 1617 3432 
Q 1894 3584 2278 3584 
Q 2916 3584 3314 3078 
Q 3713 2572 3713 1747 
Q 3713 922 3314 415 
Q 2916 -91 2278 -91 
Q 1894 -91 1617 61 
Q 1341 213 1159 525 
z
M 3116 1747 
Q 3116 2381 2855 2742 
Q 2594 3103 2138 3103 
Q 1681 3103 1420 2742 
Q 1159 2381 1159 1747 
Q 1159 1113 1420 752 
Q 1681 391 2138 391 
Q 2594 391 2855 752 
Q 3116 1113 3116 1747 
z
" transform="scale(0.015625)"/>
       </defs>
       <use xlink:href="#DejaVuSans-41"/>
       <use xlink:href="#DejaVuSans-70" transform="translate(68.408203 0)"/>
       <use xlink:href="#DejaVuSans-72" transform="translate(131.884766 0)"/>
      </g>
     </g>
    </g>
    <g id="xtick_4">
     <g id="line2d_7">
      <path d="M 458.614801 670.739062 
L 458.614801 23.899062 
" clip-path="url(#pc32dbbecac)" style="fill: none; stroke: #b0b0b0; stroke-opacity: 0.3; stroke-width: 0.8; stroke-linecap: square"/>
     </g>
     <g id="line2d_8">
      <g>
       <use xlink:href="#m8de3e96e74" x="458.614801" y="670.739062" style="stroke: #000000; stroke-width: 0.8"/>
      </g>
     </g>
     <g id="text_4">
      <!-- May -->
      <g transform="translate(448.277301 685.3375) scale(0.1 -0.1)">
       <defs>
        <path id="DejaVuSans-79" d="M 2059 -325 
Q 1816 -950 1584 -1140 
Q 1353 -1331 966 -1331 
L 506 -1331 
L 506 -850 
L 844 -850 
Q 1081 -850 1212 -737 
Q 1344 -625 1503 -206 
L 1606 56 
L 191 3500 
L 800 3500 
L 1894 763 
L 2988 3500 
L 3597 3500 
L 2059 -325 
z
" transform="scale(0.015625)"/>
       </defs>
       <use xlink:href="#DejaVuSans-4d"/>
       <use xlink:href="#DejaVuSans-61" transform="translate(86.279297 0)"/>
       <use xlink:href="#DejaVuSans-79" transform="translate(147.558594 0)"/>
      </g>
     </g>
    </g>
    <g id="xtick_5">
     <g id="line2d_9">
      <path d="M 575.840322 670.739062 
L 575.840322 23.899062 
" clip-path="url(#pc32dbbecac)" style="fill: none; stroke: #b0b0b0; stroke-opacity: 0.3; stroke-width: 0.8; stroke-linecap: square"/>
     </g>
     <g id="line2d_10">
      <g>
       <use xlink:href="#m8de3e96e74" x="575.840322" y="670.739062" style="stroke: #000000; stroke-width: 0.8"/>
      </g>
     </g>
     <g id="text_5">
      <!-- Jun -->
      <g transform="translate(568.027822 685.3375) scale(0.1 -0.1)">
       <defs>
        <path id="DejaVuSans-4a" d="M 628 4666 
L 1259 4666 
L 1259 325 
Q 1259 -519 939 -900 
Q 619 -1281 -91 -1281 
L -331 -1281 
L -331 -750 
L -134 -750 
Q 284 -750 456 -515 
Q 628 -281 628 325 
L 628 4666 
z
" transform="scale(0.015625)"/>
        <path id="DejaVuSans-75" d="M 544 1381 
L 544 3500 
L 1119 3500 
L 1119 1403 
Q 1119 906 1312 657 
Q 1506 409 1894 409 
Q 2359 409 2629 706 
Q 2900 1003 2900 1516 
L 2900 3500 
L 3475 3500 
L 3475 0 
L 2900 0 
L 2900 538 
Q 2691 219 2414 64 
Q 2138 -91 1772 -91 
Q 1169 -91 856 284 
Q 544 659 544 1381 
z
M 1991 3584 
L 1991 3584 
z
" transform="scale(0.015625)"/>
        <path id="DejaVuSans-6e" d="M 3513 2113 
L 3513 0 
L 2938 0 
L 2938 2094 
Q 2938 2591 2744 2837 
Q 2550 3084 2163 3084 
Q 1697 3084 1428 2787 
Q 1159 2491 1159 1978 
L 1159 0 
L 581 0 
L 581 3500 
L 1159 3500 
L 1159 2956 
Q 1366 3272 1645 3428 
Q 1925 3584 2291 3584 
Q 2894 3584 3203 3211 
Q 3513 2838 3513 2113 
z
" transform="scale(0.015625)"/>
       </defs>
       <use xlink:href="#DejaVuSans-4a"/>
       <use xlink:href="#DejaVuSans-75" transform="translate(29.492188 0)"/>
       <use xlink:href="#DejaVuSans-6e" transform="translate(92.871094 0)"/>
      </g>
     </g>
    </g>
    <g id="xtick_6">
     <g id="line2d_11">
      <path d="M 689.284375 670.739062 
L 689.284375 23.899062 
" clip-path="url(#pc32dbbecac)" style="fill: none; stroke: #b0b0b0; stroke-opacity: 0.3; stroke-width: 0.8; stroke-linecap: square"/>
     </g>
     <g id="line2d_12">
      <g>
       <use xlink:href="#m8de3e96e74" x="689.284375" y="670.739062" style="stroke: #000000; stroke-width: 0.8"/>
      </g>
     </g>
     <g id="text_6">
      <!-- Jul -->
      <g transform="translate(683.251563 685.3375) scale(0.1 -0.1)">
       <defs>
        <path id="DejaVuSans-6c" d="M 603 4863 
L 1178 4863 
L 1178 0 
L 603 0 
L 603 4863 
z
" transform="scale(0.015625)"/>
       </defs>
       <use xlink:href="#DejaVuSans-4a"/>
       <use xlink:href="#DejaVuSans-75" transform="translate(29.492188 0)"/>
       <use xlink:href="#DejaVuSans-6c" transform="translate(92.871094 0)"/>
      </g>
     </g>
    </g>
    <g id="xtick_7">
     <g id="line2d_13">
      <path d="M 806.509897 670.739062 
L 806.509897 23.899062 
" clip-path="url(#pc32dbbecac)" style="fill: none; stroke: #b0b0b0; stroke-opacity: 0.3; stroke-width: 0.8; stroke-linecap: square"/>
     </g>
     <g id="line2d_14">
      <g>
       <use xlink:href="#m8de3e96e74" x="806.509897" y="670.739062" style="stroke: #000000; stroke-width: 0.8"/>
      </g>
     </g>
     <g id="text_7">
      <!-- Aug -->
      <g transform="translate(796.746615 685.3375) scale(0.1 -0.1)">
       <defs>
        <path id="DejaVuSans-67" d="M 2906 1791 
Q 2906 2416 2648 2759 
Q 2391 3103 1925 3103 
Q 1463 3103 1205 2759 
Q 947 2416 947 1791 
Q 947 1169 1205 825 
Q 1463 481 1925 481 
Q 2391 481 2648 825 
Q 2906 1169 2906 1791 
z
M 3481 434 
Q 3481 -459 3084 -895 
Q 2688 -1331 1869 -1331 
Q 1566 -1331 1297 -1286 
Q 1028 -1241 775 -1147 
L 775 -588 
Q 1028 -725 1275 -790 
Q 1522 -856 1778 -856 
Q 2344 -856 2625 -561 
Q 2906 -266 2906 331 
L 2906 616 
Q 2728 306 2450 153 
Q 2172 0 1784 0 
Q 1141 0 747 490 
Q 353 981 353 1791 
Q 353 2603 747 3093 
Q 1141 3584 1784 3584 
Q 2172 3584 2450 3431 
Q 2728 3278 2906 2969 
L 2906 3500 
L 3481 3500 
L 3481 434 
z
" transform="scale(0.015625)"/>
       </defs>
       <use xlink:href="#DejaVuSans-41"/>
       <use xlink:href="#DejaVuSans-75" transform="translate(68.408203 0)"/>
       <use xlink:href="#DejaVuSans-67" transform="translate(131.787109 0)"/>
      </g>
     </g>
    </g>
    <g id="xtick_8">
     <g id="line2d_15">
      <path d="M 923.735418 670.739062 
L 923.735418 23.899062 
" clip-path="url(#pc32dbbecac)" style="fill: none; stroke: #b0b0b0; stroke-opacity: 0.3; stroke-width: 0.8; stroke-linecap: square"/>
     </g>
     <g id="line2d_16">
      <g>
       <use xlink:href="#m8de3e96e74" x="923.735418" y="670.739062" style="stroke: #000000; stroke-width: 0.8"/>
      </g>
     </g>
     <g id="text_8">
      <!-- Sep -->
      <g transform="translate(914.310418 685.3375) scale(0.1 -0.1)">
       <defs>
        <path id="DejaVuSans-53" d="M 3425 4513 
L 3425 3897 
Q 3066 4069 2747 4153 
Q 2428 4238 2131 4238 
Q 1616 4238 1336 4038 
Q 1056 3838 1056 3469 
Q 1056 3159 1242 3001 
Q 1428 2844 1947 2747 
L 2328 2669 
Q 3034 2534 3370 2195 
Q 3706 1856 3706 1288 
Q 3706 609 3251 259 
Q 2797 -91 1919 -91 
Q 1588 -91 1214 -16 
Q 841 59 441 206 
L 441 856 
Q 825 641 1194 531 
Q 1563 422 1919 422 
Q 2459 422 2753 634 
Q 3047 847 3047 1241 
Q 3047 1584 2836 1778 
Q 2625 1972 2144 2069 
L 1759 2144 
Q 1053 2284 737 2584 
Q 422 2884 422 3419 
Q 422 4038 858 4394 
Q 1294 4750 2059 4750 
Q 2388 4750 2728 4690 
Q 3069 4631 3425 4513 
z
" transform="scale(0.015625)"/>
       </defs>
       <use xlink:href="#DejaVuSans-53"/>
       <use xlink:href="#DejaVuSans-65" transform="translate(63.476562 0)"/>
       <use xlink:href="#DejaVuSans-70" transform="translate(125 0)"/>
      </g>
     </g>
    </g>
    <g id="xtick_9">
     <g id="line2d_17">
      <path d="M 1037.179471 670.739062 
L 1037.179471 23.899062 
" clip-path="url(#pc32dbbecac)" style="fill: none; stroke: #b0b0b0; stroke-opacity: 0.3; stroke-width: 0.8; stroke-linecap: square"/>
     </g>
     <g id="line2d_18">
      <g>
       <use xlink:href="#m8de3e96e74" x="1037.179471" y="670.739062" style="stroke: #000000; stroke-width: 0.8"/>
      </g>
     </g>
     <g id="text_9">
      <!-- Oct -->
      <g transform="translate(1028.534158 685.3375) scale(0.1 -0.1)">
       <defs>
        <path id="DejaVuSans-4f" d="M 2522 4238 
Q 1834 4238 1429 3725 
Q 1025 3213 1025 2328 
Q 1025 1447 1429 934 
Q 1834 422 2522 422 
Q 3209 422 3611 934 
Q 4013 1447 4013 2328 
Q 4013 3213 3611 3725 
Q 3209 4238 2522 4238 
z
M 2522 4750 
Q 3503 4750 4090 4092 
Q 4678 3434 4678 2328 
Q 4678 1225 4090 567 
Q 3503 -91 2522 -91 
Q 1538 -91 948 565 
Q 359 1222 359 2328 
Q 359 3434 948 4092 
Q 1538 4750 2522 4750 
z
" transform="scale(0.015625)"/>
        <path id="DejaVuSans-63" d="M 3122 3366 
L 3122 2828 
Q 2878 2963 2633 3030 
Q 2388 3097 2138 3097 
Q 1578 3097 1268 2742 
Q 959 2388 959 1747 
Q 959 1106 1268 751 
Q 1578 397 2138 397 
Q 2388 397 2633 464 
Q 2878 531 3122 666 
L 3122 134 
Q 2881 22 2623 -34 
Q 2366 -91 2075 -91 
Q 1284 -91 818 406 
Q 353 903 353 1747 
Q 353 2603 823 3093 
Q 1294 3584 2113 3584 
Q 2378 3584 2631 3529 
Q 2884 3475 3122 3366 
z
" transform="scale(0.015625)"/>
        <path id="DejaVuSans-74" d="M 1172 4494 
L 1172 3500 
L 2356 3500 
L 2356 3053 
L 1172 3053 
L 1172 1153 
Q 1172 725 1289 603 
Q 1406 481 1766 481 
L 2356 481 
L 2356 0 
L 1766 0 
Q 1100 0 847 248 
Q 594 497 594 1153 
L 594 3053 
L 172 3053 
L 172 3500 
L 594 3500 
L 594 4494 
L 1172 4494 
z
" transform="scale(0.015625)"/>
       </defs>
       <use xlink:href="#DejaVuSans-4f"/>
       <use xlink:href="#DejaVuSans-63" transform="translate(78.710938 0)"/>
       <use xlink:href="#DejaVuSans-74" transform="translate(133.691406 0)"/>
      </g>
     </g>
    </g>
    <g id="xtick_10">
     <g id="line2d_19">
      <path d="M 1154.404992 670.739062 
L 1154.404992 23.899062 
" clip-path="url(#pc32dbbecac)" style="fill: none; stroke: #b0b0b0; stroke-opacity: 0.3; stroke-width: 0.8; stroke-linecap: square"/>
     </g>
     <g id="line2d_20">
      <g>
       <use xlink:href="#m8de3e96e74" x="1154.404992" y="670.739062" style="stroke: #000000; stroke-width: 0.8"/>
      </g>
     </g>
     <g id="text_10">
      <!-- Nov -->
      <g transform="translate(1144.645617 685.3375) scale(0.1 -0.1)">
       <defs>
        <path id="DejaVuSans-4e" d="M 628 4666 
L 1478 4666 
L 3547 763 
L 3547 4666 
L 4159 4666 
L 4159 0 
L 3309 0 
L 1241 3903 
L 1241 0 
L 628 0 
L 628 4666 
z
" transform="scale(0.015625)"/>
        <path id="DejaVuSans-6f" d="M 1959 3097 
Q 1497 3097 1228 2736 
Q 959 2375 959 1747 
Q 959 1119 1226 758 
Q 1494 397 1959 397 
Q 2419 397 2687 759 
Q 2956 1122 2956 1747 
Q 2956 2369 2687 2733 
Q 2419 3097 1959 3097 
z
M 1959 3584 
Q 2709 3584 3137 3096 
Q 3566 2609 3566 1747 
Q 3566 888 3137 398 
Q 2709 -91 1959 -91 
Q 1206 -91 779 398 
Q 353 888 353 1747 
Q 353 2609 779 3096 
Q 1206 3584 1959 3584 
z
" transform="scale(0.015625)"/>
        <path id="DejaVuSans-76" d="M 191 3500 
L 800 3500 
L 1894 563 
L 2988 3500 
L 3597 3500 
L 2284 0 
L 1503 0 
L 191 3500 
z
" transform="scale(0.015625)"/>
       </defs>
       <use xlink:href="#DejaVuSans-4e"/>
       <use xlink:href="#DejaVuSans-6f" transform="translate(74.804688 0)"/>
       <use xlink:href="#DejaVuSans-76" transform="translate(135.986328 0)"/>
      </g>
     </g>
    </g>
    <g id="xtick_11">
     <g id="line2d_21">
      <path d="M 1267.849045 670.739062 
L 1267.849045 23.899062 
" clip-path="url(#pc32dbbecac)" style="fill: none; stroke: #b0b0b0; stroke-opacity: 0.3; stroke-width: 0.8; stroke-linecap: square"/>
     </g>
     <g id="line2d_22">
      <g>
       <use xlink:href="#m8de3e96e74" x="1267.849045" y="670.739062" style="stroke: #000000; stroke-width: 0.8"/>
      </g>
     </g>
     <g id="text_11">
      <!-- Dec -->
      <g transform="translate(1258.173264 685.3375) scale(0.1 -0.1)">
       <defs>
        <path id="DejaVuSans-44" d="M 1259 4147 
L 1259 519 
L 2022 519 
Q 2988 519 3436 956 
Q 3884 1394 3884 2338 
Q 3884 3275 3436 3711 
Q 2988 4147 2022 4147 
L 1259 4147 
z
M 628 4666 
L 1925 4666 
Q 3281 4666 3915 4102 
Q 4550 3538 4550 2338 
Q 4550 1131 3912 565 
Q 3275 0 1925 0 
L 628 0 
L 628 4666 
z
" transform="scale(0.015625)"/>
       </defs>
       <use xlink:href="#DejaVuSans-44"/>
       <use xlink:href="#DejaVuSans-65" transform="translate(77.001953 0)"/>
       <use xlink:href="#DejaVuSans-63" transform="translate(138.525391 0)"/>
      </g>
     </g>
    </g>
    <g id="xtick_12">
     <g id="line2d_23">
      <path d="M 1385.074567 670.739062 
L 1385.074567 23.899062 
" clip-path="url(#pc32dbbecac)" style="fill: none; stroke: #b0b0b0; stroke-opacity: 0.3; stroke-width: 0.8; stroke-linecap: square"/>
     </g>
     <g id="line2d_24">
      <g>
       <use xlink:href="#m8de3e96e74" x="1385.074567" y="670.739062" style="stroke: #000000; stroke-width: 0.8"/>
      </g>
     </g>
     <g id="text_12">
      <!-- Jan -->
      <g transform="translate(1377.366754 685.3375) scale(0.1 -0.1)">
       <use xlink:href="#DejaVuSans-4a"/>
       <use xlink:href="#DejaVuSans-61" transform="translate(29.492188 0)"/>
       <use xlink:href="#DejaVuSans-6e" transform="translate(90.771484 0)"/>
      </g>
     </g>
    </g>
    <g id="text_13">
     <!-- Datum -->
     <g transform="translate(717.108594 702.055) scale(0.14 -0.14)">
      <defs>
       <path id="DejaVuSans-6d" d="M 3328 2828 
Q 3544 3216 3844 3400 
Q 4144 3584 4550 3584 
Q 5097 3584 5394 3201 
Q 5691 2819 5691 2113 
L 5691 0 
L 5113 0 
L 5113 2094 
Q 5113 2597 4934 2840 
Q 4756 3084 4391 3084 
Q 3944 3084 3684 2787 
Q 3425 2491 3425 1978 
L 3425 0 
L 2847 0 
L 2847 2094 
Q 2847 2600 2669 2842 
Q 2491 3084 2119 3084 
Q 1678 3084 1418 2786 
Q 1159 2488 1159 1978 
L 1159 0 
L 581 0 
L 581 3500 
L 1159 3500 
L 1159 2956 
Q 1356 3278 1631 3431 
Q 1906 3584 2284 3584 
Q 2666 3584 2933 3390 
Q 3200 3197 3328 2828 
z
" transform="scale(0.015625)"/>
      </defs>
      <use xlink:href="#DejaVuSans-44"/>
      <use xlink:href="#DejaVuSans-61" transform="translate(77.001953 0)"/>
      <use xlink:href="#DejaVuSans-74" transform="translate(138.28125 0)"/>
      <use xlink:href="#DejaVuSans-75" transform="translate(177.490234 0)"/>
      <use xlink:href="#DejaVuSans-6d" transform="translate(240.869141 0)"/>
     </g>
    </g>
   </g>
   <g id="matplotlib.axis_2">
    <g id="ytick_1">
     <g id="line2d_25">
      <path d="M 56.032188 652.82762 
L 1425.542187 652.82762 
" clip-path="url(#pc32dbbecac)" style="fill: none; stroke: #b0b0b0; stroke-opacity: 0.3; stroke-width: 0.8; stroke-linecap: square"/>
     </g>
     <g id="line2d_26">
      <defs>
       <path id="m3498ab30d3" d="M 0 0 
L -3.5 0 
" style="stroke: #000000; stroke-width: 0.8"/>
      </defs>
      <g>
       <use xlink:href="#m3498ab30d3" x="56.032188" y="652.82762" style="stroke: #000000; stroke-width: 0.8"/>
      </g>
     </g>
     <g id="text_14">
      <!-- −1.5 -->
      <g transform="translate(24.749375 656.626839) scale(0.1 -0.1)">
       <defs>
        <path id="DejaVuSans-2212" d="M 678 2272 
L 4684 2272 
L 4684 1741 
L 678 1741 
L 678 2272 
z
" transform="scale(0.015625)"/>
        <path id="DejaVuSans-31" d="M 794 531 
L 1825 531 
L 1825 4091 
L 703 3866 
L 703 4441 
L 1819 4666 
L 2450 4666 
L 2450 531 
L 3481 531 
L 3481 0 
L 794 0 
L 794 531 
z
" transform="scale(0.015625)"/>
        <path id="DejaVuSans-2e" d="M 684 794 
L 1344 794 
L 1344 0 
L 684 0 
L 684 794 
z
" transform="scale(0.015625)"/>
        <path id="DejaVuSans-35" d="M 691 4666 
L 3169 4666 
L 3169 4134 
L 1269 4134 
L 1269 2991 
Q 1406 3038 1543 3061 
Q 1681 3084 1819 3084 
Q 2600 3084 3056 2656 
Q 3513 2228 3513 1497 
Q 3513 744 3044 326 
Q 2575 -91 1722 -91 
Q 1428 -91 1123 -41 
Q 819 9 494 109 
L 494 744 
Q 775 591 1075 516 
Q 1375 441 1709 441 
Q 2250 441 2565 725 
Q 2881 1009 2881 1497 
Q 2881 1984 2565 2268 
Q 2250 2553 1709 2553 
Q 1456 2553 1204 2497 
Q 953 2441 691 2322 
L 691 4666 
z
" transform="scale(0.015625)"/>
       </defs>
       <use xlink:href="#DejaVuSans-2212"/>
       <use xlink:href="#DejaVuSans-31" transform="translate(83.789062 0)"/>
       <use xlink:href="#DejaVuSans-2e" transform="translate(147.412109 0)"/>
       <use xlink:href="#DejaVuSans-35" transform="translate(179.199219 0)"/>
      </g>
     </g>
    </g>
    <g id="ytick_2">
     <g id="line2d_27">
      <path d="M 56.032188 545.462516 
L 1425.542187 545.462516 
" clip-path="url(#pc32dbbecac)" style="fill: none; stroke: #b0b0b0; stroke-opacity: 0.3; stroke-width: 0.8; stroke-linecap: square"/>
     </g>
     <g id="line2d_28">
      <g>
       <use xlink:href="#m3498ab30d3" x="56.032188" y="545.462516" style="stroke: #000000; stroke-width: 0.8"/>
      </g>
     </g>
     <g id="text_15">
      <!-- −1.0 -->
      <g transform="translate(24.749375 549.261735) scale(0.1 -0.1)">
       <defs>
        <path id="DejaVuSans-30" d="M 2034 4250 
Q 1547 4250 1301 3770 
Q 1056 3291 1056 2328 
Q 1056 1369 1301 889 
Q 1547 409 2034 409 
Q 2525 409 2770 889 
Q 3016 1369 3016 2328 
Q 3016 3291 2770 3770 
Q 2525 4250 2034 4250 
z
M 2034 4750 
Q 2819 4750 3233 4129 
Q 3647 3509 3647 2328 
Q 3647 1150 3233 529 
Q 2819 -91 2034 -91 
Q 1250 -91 836 529 
Q 422 1150 422 2328 
Q 422 3509 836 4129 
Q 1250 4750 2034 4750 
z
" transform="scale(0.015625)"/>
       </defs>
       <use xlink:href="#DejaVuSans-2212"/>
       <use xlink:href="#DejaVuSans-31" transform="translate(83.789062 0)"/>
       <use xlink:href="#DejaVuSans-2e" transform="translate(147.412109 0)"/>
       <use xlink:href="#DejaVuSans-30" transform="translate(179.199219 0)"/>
      </g>
     </g>
    </g>
    <g id="ytick_3">
     <g id="line2d_29">
      <path d="M 56.032188 438.097412 
L 1425.542187 438.097412 
" clip-path="url(#pc32dbbecac)" style="fill: none; stroke: #b0b0b0; stroke-opacity: 0.3; stroke-width: 0.8; stroke-linecap: square"/>
     </g>
     <g id="line2d_30">
      <g>
       <use xlink:href="#m3498ab30d3" x="56.032188" y="438.097412" style="stroke: #000000; stroke-width: 0.8"/>
      </g>
     </g>
     <g id="text_16">
      <!-- −0.5 -->
      <g transform="translate(24.749375 441.896631) scale(0.1 -0.1)">
       <use xlink:href="#DejaVuSans-2212"/>
       <use xlink:href="#DejaVuSans-30" transform="translate(83.789062 0)"/>
       <use xlink:href="#DejaVuSans-2e" transform="translate(147.412109 0)"/>
       <use xlink:href="#DejaVuSans-35" transform="translate(179.199219 0)"/>
      </g>
     </g>
    </g>
    <g id="ytick_4">
     <g id="line2d_31">
      <path d="M 56.032188 330.732309 
L 1425.542187 330.732309 
" clip-path="url(#pc32dbbecac)" style="fill: none; stroke: #b0b0b0; stroke-opacity: 0.3; stroke-width: 0.8; stroke-linecap: square"/>
     </g>
     <g id="line2d_32">
      <g>
       <use xlink:href="#m3498ab30d3" x="56.032188" y="330.732309" style="stroke: #000000; stroke-width: 0.8"/>
      </g>
     </g>
     <g id="text_17">
      <!-- 0.0 -->
      <g transform="translate(33.129063 334.531527) scale(0.1 -0.1)">
       <use xlink:href="#DejaVuSans-30"/>
       <use xlink:href="#DejaVuSans-2e" transform="translate(63.623047 0)"/>
       <use xlink:href="#DejaVuSans-30" transform="translate(95.410156 0)"/>
      </g>
     </g>
    </g>
    <g id="ytick_5">
     <g id="line2d_33">
      <path d="M 56.032188 223.367205 
L 1425.542187 223.367205 
" clip-path="url(#pc32dbbecac)" style="fill: none; stroke: #b0b0b0; stroke-opacity: 0.3; stroke-width: 0.8; stroke-linecap: square"/>
     </g>
     <g id="line2d_34">
      <g>
       <use xlink:href="#m3498ab30d3" x="56.032188" y="223.367205" style="stroke: #000000; stroke-width: 0.8"/>
      </g>
     </g>
     <g id="text_18">
      <!-- 0.5 -->
      <g transform="translate(33.129063 227.166424) scale(0.1 -0.1)">
       <use xlink:href="#DejaVuSans-30"/>
       <use xlink:href="#DejaVuSans-2e" transform="translate(63.623047 0)"/>
       <use xlink:href="#DejaVuSans-35" transform="translate(95.410156 0)"/>
      </g>
     </g>
    </g>
    <g id="ytick_6">
     <g id="line2d_35">
      <path d="M 56.032188 116.002101 
L 1425.542187 116.002101 
" clip-path="url(#pc32dbbecac)" style="fill: none; stroke: #b0b0b0; stroke-opacity: 0.3; stroke-width: 0.8; stroke-linecap: square"/>
     </g>
     <g id="line2d_36">
      <g>
       <use xlink:href="#m3498ab30d3" x="56.032188" y="116.002101" style="stroke: #000000; stroke-width: 0.8"/>
      </g>
     </g>
     <g id="text_19">
      <!-- 1.0 -->
      <g transform="translate(33.129063 119.80132) scale(0.1 -0.1)">
       <use xlink:href="#DejaVuSans-31"/>
       <use xlink:href="#DejaVuSans-2e" transform="translate(63.623047 0)"/>
       <use xlink:href="#DejaVuSans-30" transform="translate(95.410156 0)"/>
      </g>
     </g>
    </g>
    <g id="text_20">
     <!-- Fehler (kW) [Prognose - Ist] -->
     <g transform="translate(17.837813 442.830781) rotate(-90) scale(0.14 -0.14)">
      <defs>
       <path id="DejaVuSans-68" d="M 3513 2113 
L 3513 0 
L 2938 0 
L 2938 2094 
Q 2938 2591 2744 2837 
Q 2550 3084 2163 3084 
Q 1697 3084 1428 2787 
Q 1159 2491 1159 1978 
L 1159 0 
L 581 0 
L 581 4863 
L 1159 4863 
L 1159 2956 
Q 1366 3272 1645 3428 
Q 1925 3584 2291 3584 
Q 2894 3584 3203 3211 
Q 3513 2838 3513 2113 
z
" transform="scale(0.015625)"/>
       <path id="DejaVuSans-20" transform="scale(0.015625)"/>
       <path id="DejaVuSans-28" d="M 1984 4856 
Q 1566 4138 1362 3434 
Q 1159 2731 1159 2009 
Q 1159 1288 1364 580 
Q 1569 -128 1984 -844 
L 1484 -844 
Q 1016 -109 783 600 
Q 550 1309 550 2009 
Q 550 2706 781 3412 
Q 1013 4119 1484 4856 
L 1984 4856 
z
" transform="scale(0.015625)"/>
       <path id="DejaVuSans-6b" d="M 581 4863 
L 1159 4863 
L 1159 1991 
L 2875 3500 
L 3609 3500 
L 1753 1863 
L 3688 0 
L 2938 0 
L 1159 1709 
L 1159 0 
L 581 0 
L 581 4863 
z
" transform="scale(0.015625)"/>
       <path id="DejaVuSans-57" d="M 213 4666 
L 850 4666 
L 1831 722 
L 2809 4666 
L 3519 4666 
L 4500 722 
L 5478 4666 
L 6119 4666 
L 4947 0 
L 4153 0 
L 3169 4050 
L 2175 0 
L 1381 0 
L 213 4666 
z
" transform="scale(0.015625)"/>
       <path id="DejaVuSans-29" d="M 513 4856 
L 1013 4856 
Q 1481 4119 1714 3412 
Q 1947 2706 1947 2009 
Q 1947 1309 1714 600 
Q 1481 -109 1013 -844 
L 513 -844 
Q 928 -128 1133 580 
Q 1338 1288 1338 2009 
Q 1338 2731 1133 3434 
Q 928 4138 513 4856 
z
" transform="scale(0.015625)"/>
       <path id="DejaVuSans-5b" d="M 550 4863 
L 1875 4863 
L 1875 4416 
L 1125 4416 
L 1125 -397 
L 1875 -397 
L 1875 -844 
L 550 -844 
L 550 4863 
z
" transform="scale(0.015625)"/>
       <path id="DejaVuSans-50" d="M 1259 4147 
L 1259 2394 
L 2053 2394 
Q 2494 2394 2734 2622 
Q 2975 2850 2975 3272 
Q 2975 3691 2734 3919 
Q 2494 4147 2053 4147 
L 1259 4147 
z
M 628 4666 
L 2053 4666 
Q 2838 4666 3239 4311 
Q 3641 3956 3641 3272 
Q 3641 2581 3239 2228 
Q 2838 1875 2053 1875 
L 1259 1875 
L 1259 0 
L 628 0 
L 628 4666 
z
" transform="scale(0.015625)"/>
       <path id="DejaVuSans-73" d="M 2834 3397 
L 2834 2853 
Q 2591 2978 2328 3040 
Q 2066 3103 1784 3103 
Q 1356 3103 1142 2972 
Q 928 2841 928 2578 
Q 928 2378 1081 2264 
Q 1234 2150 1697 2047 
L 1894 2003 
Q 2506 1872 2764 1633 
Q 3022 1394 3022 966 
Q 3022 478 2636 193 
Q 2250 -91 1575 -91 
Q 1294 -91 989 -36 
Q 684 19 347 128 
L 347 722 
Q 666 556 975 473 
Q 1284 391 1588 391 
Q 1994 391 2212 530 
Q 2431 669 2431 922 
Q 2431 1156 2273 1281 
Q 2116 1406 1581 1522 
L 1381 1569 
Q 847 1681 609 1914 
Q 372 2147 372 2553 
Q 372 3047 722 3315 
Q 1072 3584 1716 3584 
Q 2034 3584 2315 3537 
Q 2597 3491 2834 3397 
z
" transform="scale(0.015625)"/>
       <path id="DejaVuSans-2d" d="M 313 2009 
L 1997 2009 
L 1997 1497 
L 313 1497 
L 313 2009 
z
" transform="scale(0.015625)"/>
       <path id="DejaVuSans-49" d="M 628 4666 
L 1259 4666 
L 1259 0 
L 628 0 
L 628 4666 
z
" transform="scale(0.015625)"/>
       <path id="DejaVuSans-5d" d="M 1947 4863 
L 1947 -844 
L 622 -844 
L 622 -397 
L 1369 -397 
L 1369 4416 
L 622 4416 
L 622 4863 
L 1947 4863 
z
" transform="scale(0.015625)"/>
      </defs>
      <use xlink:href="#DejaVuSans-46"/>
      <use xlink:href="#DejaVuSans-65" transform="translate(52.019531 0)"/>
      <use xlink:href="#DejaVuSans-68" transform="translate(113.542969 0)"/>
      <use xlink:href="#DejaVuSans-6c" transform="translate(176.921875 0)"/>
      <use xlink:href="#DejaVuSans-65" transform="translate(204.705078 0)"/>
      <use xlink:href="#DejaVuSans-72" transform="translate(266.228516 0)"/>
      <use xlink:href="#DejaVuSans-20" transform="translate(307.341797 0)"/>
      <use xlink:href="#DejaVuSans-28" transform="translate(339.128906 0)"/>
      <use xlink:href="#DejaVuSans-6b" transform="translate(378.142578 0)"/>
      <use xlink:href="#DejaVuSans-57" transform="translate(436.052734 0)"/>
      <use xlink:href="#DejaVuSans-29" transform="translate(534.929688 0)"/>
      <use xlink:href="#DejaVuSans-20" transform="translate(573.943359 0)"/>
      <use xlink:href="#DejaVuSans-5b" transform="translate(605.730469 0)"/>
      <use xlink:href="#DejaVuSans-50" transform="translate(644.744141 0)"/>
      <use xlink:href="#DejaVuSans-72" transform="translate(703.296875 0)"/>
      <use xlink:href="#DejaVuSans-6f" transform="translate(742.160156 0)"/>
      <use xlink:href="#DejaVuSans-67" transform="translate(803.341797 0)"/>
      <use xlink:href="#DejaVuSans-6e" transform="translate(866.818359 0)"/>
      <use xlink:href="#DejaVuSans-6f" transform="translate(930.197266 0)"/>
      <use xlink:href="#DejaVuSans-73" transform="translate(991.378906 0)"/>
      <use xlink:href="#DejaVuSans-65" transform="translate(1043.478516 0)"/>
      <use xlink:href="#DejaVuSans-20" transform="translate(1105.001953 0)"/>
      <use xlink:href="#DejaVuSans-2d" transform="translate(1136.789062 0)"/>
      <use xlink:href="#DejaVuSans-20" transform="translate(1172.873047 0)"/>
      <use xlink:href="#DejaVuSans-49" transform="translate(1204.660156 0)"/>
      <use xlink:href="#DejaVuSans-73" transform="translate(1234.152344 0)"/>
      <use xlink:href="#DejaVuSans-74" transform="translate(1286.251953 0)"/>
      <use xlink:href="#DejaVuSans-5d" transform="translate(1325.460938 0)"/>
     </g>
    </g>
   </g>
   <g id="line2d_37">
    <path d="M 118.282642 299.492337 
L 118.440203 337.647554 
L 118.558374 300.507041 
L 118.637155 313.593823 
L 118.794716 285.475137 
L 118.912887 334.615674 
L 118.952277 311.471322 
L 119.031058 294.650269 
L 119.070448 336.747824 
L 144.752921 332.45015 
L 144.831702 352.707798 
L 144.910482 346.154232 
L 144.989263 315.709783 
L 145.028653 317.857086 
L 145.068043 318.767542 
L 145.264995 299.03813 
L 145.422556 325.784925 
L 145.343776 297.354645 
L 145.461946 317.26443 
L 145.501337 307.116281 
L 145.540727 311.767337 
L 145.658898 327.172082 
L 171.2232 300.240619 
L 171.301981 246.455447 
L 171.420152 342.774708 
L 171.459542 336.913377 
L 171.577713 234.254477 
L 171.656493 314.176921 
L 171.735274 308.296998 
L 171.774664 298.818836 
L 171.853445 228.369438 
L 172.011006 313.891832 
L 172.050396 323.951257 
L 172.129177 250.741859 
L 197.693479 347.910725 
L 197.77226 286.790061 
L 197.85104 291.905936 
L 197.890431 284.703349 
L 198.047992 312.225618 
L 198.166163 307.781395 
L 198.205553 312.594692 
L 198.244943 310.018511 
L 198.284334 299.208211 
L 198.363114 304.021158 
L 198.402504 305.044633 
L 198.441895 310.3043 
L 198.520675 355.021186 
L 198.560066 339.512851 
L 198.599456 341.995916 
L 224.163758 339.321517 
L 224.281929 303.531661 
L 224.321319 314.872746 
L 224.478881 293.620837 
L 224.518271 302.76095 
L 224.557661 299.541347 
L 224.597051 294.651056 
L 224.636442 296.954459 
L 224.675832 319.72496 
L 224.754613 317.313748 
L 224.912174 296.936847 
L 225.030345 339.478261 
L 225.069735 320.126791 
L 250.634037 334.759172 
L 250.791598 235.983086 
L 250.870379 235.982504 
L 250.94916 255.736351 
L 251.02794 235.978824 
L 251.06733 244.566469 
L 251.185501 267.751771 
L 251.224892 255.724955 
L 251.343062 235.964575 
L 251.382453 244.552403 
L 251.461233 288.35536 
L 251.500624 272.035293 
L 251.540014 244.549549 
L 277.104316 299.667397 
L 277.143706 306.25238 
L 277.183097 291.042246 
L 277.261877 294.084103 
L 277.380048 315.59268 
L 277.458829 315.377795 
L 277.577 285.315334 
L 277.61639 292.68766 
L 277.65578 293.295985 
L 277.695171 293.116966 
L 277.734561 305.428087 
L 277.773951 289.681128 
L 277.813342 292.186236 
L 277.852732 273.719361 
L 277.892122 294.905998 
L 277.931512 304.711933 
L 277.970903 641.337244 
L 278.010293 345.582095 
L 303.574595 342.7572 
L 303.653376 424.354679 
L 303.692766 422.636838 
L 303.771547 372.819429 
L 303.810937 386.562163 
L 303.889718 395.151371 
L 304.047279 319.566338 
L 304.086669 334.167992 
L 304.126059 322.1431 
L 304.283621 310.97713 
L 304.362401 342.7572 
L 304.401791 330.732309 
L 304.441182 328.155546 
L 304.480572 295.516555 
L 330.044874 313.638019 
L 330.123655 307.052977 
L 330.281216 330.46534 
L 330.517558 306.529843 
L 330.635729 339.282154 
L 330.675119 330.33852 
L 330.7539 311.117506 
L 330.83268 314.645199 
L 330.87207 308.346916 
L 330.911461 323.648761 
L 330.950851 322.879163 
L 356.515153 320.425259 
L 356.554544 313.668674 
L 356.593934 320.104186 
L 356.672714 344.465163 
L 356.712105 337.237391 
L 356.790885 314.481141 
L 356.869666 318.455898 
L 356.948447 338.126028 
L 356.987837 330.412452 
L 357.066617 312.244014 
L 357.145398 313.921875 
L 357.184788 318.058254 
L 357.224179 351.240531 
L 357.302959 333.597478 
L 357.342349 318.88725 
L 357.38174 335.15498 
L 357.42113 601.286981 
L 382.985432 321.226918 
L 383.024823 335.761469 
L 383.064213 331.910641 
L 383.103603 318.069879 
L 383.182384 319.924222 
L 383.300555 342.14164 
L 383.339945 341.246931 
L 383.458116 319.65223 
L 383.536896 324.760125 
L 383.576287 322.051427 
L 383.615677 336.284726 
L 383.655067 335.768543 
L 383.733848 318.11333 
L 383.891409 341.45003 
L 409.455711 321.28418 
L 409.573882 304.105763 
L 409.692053 334.167992 
L 409.849614 304.105763 
L 409.967785 329.014467 
L 410.125346 282.632742 
L 410.243517 329.873388 
L 410.282908 303.246842 
L 410.322298 53.300881 
L 410.361688 310.327934 
L 436.083552 330.732309 
L 436.831967 330.732309 
L 462.396269 294.657634 
L 462.43566 256.314383 
L 462.51444 259.59479 
L 462.553831 276.131794 
L 462.593221 268.163736 
L 462.711392 252.294811 
L 462.868953 270.835805 
L 462.908343 261.824499 
L 462.947733 263.287857 
L 463.065904 296.641288 
L 463.105295 285.017962 
L 463.223466 265.978943 
L 463.262856 278.772455 
L 463.302246 261.500672 
L 488.866548 329.225118 
L 488.945329 329.771467 
L 488.984719 327.782611 
L 489.02411 327.844896 
L 489.0635 327.470779 
L 489.10289 317.100598 
L 489.181671 317.477106 
L 489.260451 311.566448 
L 489.299842 343.52096 
L 489.378622 333.096363 
L 489.457403 315.026687 
L 489.496793 363.80876 
L 489.536183 637.167151 
L 489.575574 340.350838 
L 489.614964 329.628412 
L 489.733135 360.438328 
L 489.772525 360.750689 
L 515.336827 339.321517 
L 515.376218 342.780275 
L 515.494389 322.135954 
L 515.573169 324.702323 
L 515.73073 340.53028 
L 515.927682 328.533921 
L 516.006462 343.889404 
L 516.045853 322.572439 
L 516.124633 337.90392 
L 516.164024 344.490335 
L 516.203414 333.894677 
L 516.242804 325.442759 
L 541.807106 336.744755 
L 541.846497 332.346926 
L 541.885887 338.250527 
L 541.925277 333.794652 
L 542.004058 325.810972 
L 542.122229 327.736065 
L 542.161619 328.51457 
L 542.2404 336.112767 
L 542.27979 330.885732 
L 542.31918 332.303788 
L 542.397961 326.483355 
L 542.437351 329.764023 
L 542.516132 337.404147 
L 542.555522 334.39873 
L 542.594912 322.126574 
L 542.673693 332.015488 
L 542.713083 330.699211 
L 568.277385 330.066546 
L 568.395556 312.888177 
L 568.474337 325.77205 
L 568.513727 321.477482 
L 568.553118 308.593705 
L 568.592508 312.888341 
L 568.710679 330.066865 
L 568.90763 312.888705 
L 568.986411 321.478063 
L 569.104582 355.835124 
L 569.143972 351.540563 
L 569.183362 347.24598 
L 594.747664 330.732309 
L 594.865835 356.499934 
L 594.984006 324.719863 
L 595.102177 347.910725 
L 595.259738 330.732309 
L 595.377909 347.910725 
L 595.4173 345.333963 
L 595.49608 339.321517 
L 595.53547 433.802808 
L 595.614251 373.67835 
L 595.653641 353.923171 
L 621.217943 328.155546 
L 621.296724 316.590309 
L 621.336114 321.061902 
L 621.375505 336.082086 
L 621.454285 334.38335 
L 621.572456 326.681367 
L 621.769408 297.526258 
L 621.808798 290.612021 
L 621.848188 295.528445 
L 622.005749 321.090528 
L 622.04514 328.883685 
L 622.08453 319.583557 
L 622.12392 439.908946 
L 647.688223 339.321517 
L 647.727613 325.279918 
L 647.767003 334.561001 
L 647.885174 344.394683 
L 647.924564 344.771224 
L 648.042735 315.799396 
L 648.082125 268.997415 
L 648.160906 278.581251 
L 648.239687 271.19548 
L 648.279077 265.88985 
L 648.436638 292.014095 
L 648.594199 307.596768 
L 674.158502 321.28418 
L 674.276672 293.767404 
L 674.355453 293.983947 
L 674.552404 313.676602 
L 674.631185 312.121838 
L 674.670575 311.168553 
L 674.709966 301.662816 
L 674.749356 309.567559 
L 674.828137 319.44258 
L 674.867527 300.56267 
L 674.946307 308.375457 
L 675.064478 326.887231 
L 700.628781 322.356252 
L 700.707561 311.945146 
L 700.865122 334.812183 
L 701.022684 309.88008 
L 701.101464 328.953774 
L 701.140854 318.114819 
L 701.180245 314.896636 
L 701.337806 338.098581 
L 701.495367 307.897527 
L 701.534757 322.787291 
L 727.09906 329.014467 
L 727.21723 292.939792 
L 727.296011 253.429434 
L 727.374792 259.44188 
L 727.571743 324.719863 
L 727.611133 329.014467 
L 727.729304 309.259288 
L 727.886866 322.1431 
L 727.965646 535.155466 
L 728.005036 317.848496 
L 753.569339 322.1431 
L 753.608729 278.6047 
L 753.687509 293.206354 
L 753.7269 281.181462 
L 753.76629 287.193908 
L 753.80568 301.795562 
L 753.845071 298.359879 
L 753.923851 278.6047 
L 753.963242 281.181462 
L 754.081412 293.206354 
L 754.120803 289.770671 
L 754.160193 287.193908 
L 754.199583 295.783116 
L 754.278364 480.451095 
L 754.317754 297.500958 
L 754.396535 323.268583 
L 754.435925 338.729158 
L 754.475315 302.654483 
L 780.039618 347.910725 
L 780.197179 303.227052 
L 780.31535 309.239498 
L 780.39413 334.58979 
L 780.433521 326.000582 
L 780.512301 326.417914 
L 780.591082 303.227052 
L 780.669862 309.239498 
L 780.709253 334.58979 
L 780.788033 317.828706 
L 780.827424 308.822165 
L 780.945594 382.247768 
L 806.509897 324.719863 
L 806.588677 312.457414 
L 806.628068 322.255295 
L 806.746238 251.735402 
L 806.785629 264.317735 
L 806.825019 255.47215 
L 806.9038 257.653744 
L 806.94319 264.419829 
L 807.021971 250.318625 
L 807.061361 258.907833 
L 807.100751 261.484596 
L 807.140141 276.08625 
L 807.179532 273.509487 
L 807.218922 251.177546 
L 807.297703 259.972237 
L 807.337093 358.269095 
L 807.415873 310.72939 
L 832.980176 332.202867 
L 833.098347 325.273808 
L 833.177127 334.996319 
L 833.216517 326.088423 
L 833.255908 326.439826 
L 833.374079 338.033136 
L 833.49225 321.654886 
L 833.53164 325.317053 
L 833.61042 341.161216 
L 833.689201 333.363476 
L 833.728591 316.471266 
L 833.807372 328.09166 
L 833.846762 319.974237 
L 833.886152 328.84407 
L 859.450455 332.541745 
L 859.529235 323.952549 
L 859.568626 309.350914 
L 859.647406 315.363429 
L 859.765577 341.131195 
L 859.804967 332.542058 
L 859.962529 311.069694 
L 860.041309 338.555573 
L 860.12009 332.543526 
L 860.15948 329.966966 
L 860.238261 312.788924 
L 860.277651 317.942594 
L 860.356432 329.967634 
L 885.920734 340.374731 
L 885.999514 316.358986 
L 886.078295 325.501565 
L 886.196466 343.735611 
L 886.354027 317.979546 
L 886.511588 340.283253 
L 886.629759 317.068193 
L 886.669149 325.649232 
L 886.78732 340.226298 
L 886.826711 323.898596 
L 912.391013 331.241709 
L 912.430403 314.905338 
L 912.509184 319.357531 
L 912.627355 331.695296 
L 912.666745 330.956575 
L 912.745525 299.97299 
L 912.863696 311.431563 
L 912.903087 308.427283 
L 912.942477 316.709992 
L 912.981867 308.964436 
L 913.021257 307.27142 
L 913.139428 322.824308 
L 913.218209 296.286366 
L 913.257599 306.460657 
L 913.29699 319.957782 
L 938.861292 323.146577 
L 938.940072 314.652709 
L 939.018853 344.720022 
L 939.058243 329.260935 
L 939.097634 331.839118 
L 939.137024 314.662134 
L 939.215804 317.241765 
L 939.255195 318.961044 
L 939.333975 341.295865 
L 939.412756 329.273861 
L 939.452146 314.673654 
L 939.530927 314.676553 
L 939.767269 357.631338 
L 965.331571 348.333262 
L 965.489132 306.789795 
L 965.528522 308.985105 
L 965.567913 300.291864 
L 965.607303 302.923685 
L 965.764864 318.342928 
L 965.804254 318.597315 
L 965.883035 319.119169 
L 965.922425 310.793537 
L 966.001206 324.205374 
L 966.040596 320.174427 
L 966.079986 317.860801 
L 966.119377 357.633654 
L 966.158767 311.513698 
L 966.237548 330.072162 
L 991.80185 347.910725 
L 991.959411 313.756439 
L 991.998801 330.685988 
L 992.038192 313.356875 
L 992.077582 313.580756 
L 992.116972 305.522312 
L 992.156362 314.163127 
L 992.195753 314.132297 
L 992.313924 331.959772 
L 992.353314 324.209897 
L 992.392704 310.447592 
L 992.471485 313.652149 
L 992.510875 331.14361 
L 992.550265 323.868856 
L 992.589656 450.298744 
L 992.668436 388.4582 
L 992.707827 327.449413 
L 1018.311519 314.840267 
L 1018.42969 330.732309 
L 1018.46908 323.860942 
L 1018.508471 327.296625 
L 1018.547861 330.732309 
L 1018.587251 326.352797 
L 1018.626642 328.896065 
L 1018.705422 313.298626 
L 1018.744812 330.408551 
L 1018.823593 321.682238 
L 1018.862983 314.74226 
L 1018.941764 340.37254 
L 1018.981154 335.150282 
L 1019.020544 338.517192 
L 1019.099325 393.350459 
L 1019.138715 379.538832 
L 1019.178106 558.125431 
L 1044.742408 319.747937 
L 1044.821188 310.705038 
L 1044.860579 312.540131 
L 1044.939359 328.662577 
L 1044.97875 326.577791 
L 1045.01814 315.150163 
L 1045.05753 320.090367 
L 1045.096921 331.118632 
L 1045.175701 325.809818 
L 1045.293872 335.27842 
L 1045.333262 327.611429 
L 1045.569604 378.234548 
L 1045.608994 387.875667 
L 1045.648385 380.376657 
L 1071.212687 329.014467 
L 1071.252077 331.786117 
L 1071.330858 350.590623 
L 1071.370248 331.236845 
L 1071.449029 340.915162 
L 1071.488419 342.468563 
L 1071.527809 330.157032 
L 1071.5672 331.812314 
L 1071.60659 341.948151 
L 1071.64598 338.054948 
L 1071.764151 322.13844 
L 1071.803541 329.009474 
L 1072.079273 391.428776 
L 1072.118664 327.861583 
L 1097.682966 310.118209 
L 1097.761747 296.203252 
L 1097.801137 306.233079 
L 1097.840527 306.7764 
L 1097.879917 294.69165 
L 1097.919308 308.329014 
L 1097.958698 315.003506 
L 1097.998088 306.39737 
L 1098.076869 308.383905 
L 1098.116259 299.842902 
L 1098.19504 308.616697 
L 1098.23443 302.120886 
L 1098.27382 309.055682 
L 1098.313211 304.746324 
L 1098.352601 300.021898 
L 1098.510162 374.028809 
L 1098.549552 357.287502 
L 1098.588943 538.519797 
L 1124.153245 330.732309 
L 1124.192635 310.22159 
L 1124.271416 319.228596 
L 1124.310806 319.84471 
L 1124.468367 277.667667 
L 1124.507758 254.829195 
L 1124.547148 280.822654 
L 1124.625928 319.471056 
L 1124.704709 318.983729 
L 1124.744099 317.229474 
L 1124.82288 289.246054 
L 1124.901661 301.023075 
L 1125.019831 359.407595 
L 1125.059222 344.264843 
L 1150.623524 333.934225 
L 1150.859866 266.886982 
L 1150.899256 269.305175 
L 1151.096208 315.342305 
L 1151.135598 312.030438 
L 1151.174988 297.526568 
L 1151.214378 304.680924 
L 1151.45072 366.348765 
L 1151.529501 322.607355 
L 1177.093803 306.446557 
L 1177.133193 307.667418 
L 1177.211974 313.273882 
L 1177.251364 292.672797 
L 1177.330145 292.722609 
L 1177.369535 292.033721 
L 1177.527096 316.643752 
L 1177.566487 300.013226 
L 1177.605877 317.806783 
L 1177.645267 310.299374 
L 1177.724048 301.938764 
L 1177.763438 313.185151 
L 1177.802828 304.620535 
L 1177.842219 299.469606 
L 1177.99978 337.465407 
L 1203.564082 315.726225 
L 1203.603472 314.921179 
L 1203.839814 339.699308 
L 1203.879204 336.859568 
L 1203.918595 328.240531 
L 1203.957985 341.995949 
L 1204.194327 315.026481 
L 1204.312498 349.702565 
L 1204.430669 305.696975 
L 1204.470059 325.616723 
L 1230.034361 297.745953 
L 1230.152532 314.652175 
L 1230.310093 288.737657 
L 1230.349483 292.883061 
L 1230.388874 283.756042 
L 1230.428264 291.92688 
L 1230.507045 320.063606 
L 1230.546435 311.368694 
L 1230.625215 295.915911 
L 1230.703996 297.425998 
L 1230.861557 363.492033 
L 1230.900948 629.87513 
L 1230.940338 363.729445 
L 1256.50464 308.928705 
L 1256.54403 308.165991 
L 1256.583421 303.120508 
L 1256.622811 304.922488 
L 1256.701592 325.602474 
L 1256.780372 321.333159 
L 1256.898543 311.651882 
L 1257.016714 322.674418 
L 1257.174275 295.147526 
L 1257.213665 298.888393 
L 1257.253056 297.602505 
L 1257.331836 341.137864 
L 1257.371227 331.597031 
L 1257.410617 331.755211 
L 1282.974919 329.873388 
L 1283.014309 329.705097 
L 1283.0537 337.906187 
L 1283.09309 332.459171 
L 1283.13248 324.707938 
L 1283.171871 333.543554 
L 1283.211261 332.353752 
L 1283.290041 331.695421 
L 1283.329432 344.797578 
L 1283.447603 321.309437 
L 1283.486993 321.337295 
L 1283.565774 318.131015 
L 1283.644554 340.206544 
L 1283.762725 321.974379 
L 1283.802115 330.747224 
L 1283.841506 337.856076 
L 1283.880896 337.398853 
L 1309.445198 320.425259 
L 1309.523979 276.86999 
L 1309.563369 281.293009 
L 1309.68154 299.552344 
L 1309.72093 291.837387 
L 1309.799711 285.221503 
L 1309.839101 293.632931 
L 1309.878491 283.349512 
L 1309.917882 291.654784 
L 1309.996662 297.370893 
L 1310.075443 271.646801 
L 1310.114833 286.336176 
L 1310.154223 286.737487 
L 1310.233004 319.910991 
L 1310.311785 315.270232 
L 1310.351175 301.887794 
L 1335.915477 313.983353 
L 1335.994258 327.962111 
L 1336.033648 326.908382 
L 1336.191209 302.160734 
L 1336.230599 305.606572 
L 1336.30938 305.19875 
L 1336.34877 296.776167 
L 1336.427551 317.042726 
L 1336.466941 315.650256 
L 1336.585112 288.921638 
L 1336.624502 291.229754 
L 1336.663893 286.338103 
L 1336.703283 442.768226 
L 1336.782064 340.802275 
L 1336.821454 339.459559 
L 1362.385756 330.732309 
L 1362.543317 361.370791 
L 1362.661488 311.79449 
L 1362.740269 310.523488 
L 1362.779659 326.385422 
L 1362.819049 335.237504 
L 1362.85844 325.486607 
L 1363.055391 267.125704 
L 1363.173562 294.094275 
L 1363.212952 277.174328 
L 1363.252343 277.17661 
L 1363.291733 275.741703 
L 1363.291733 275.741703 
" clip-path="url(#pc32dbbecac)" style="fill: none; stroke: #00008b; stroke-opacity: 0.7; stroke-width: 0.5; stroke-linecap: square"/>
   </g>
   <g id="line2d_38">
    <path d="M 56.032188 330.732309 
L 1425.542187 330.732309 
" clip-path="url(#pc32dbbecac)" style="fill: none; stroke: #000000; stroke-linecap: square"/>
   </g>
   <g id="patch_3">
    <path d="M 56.032188 670.739063 
L 56.032188 23.899062 
" style="fill: none; stroke: #000000; stroke-width: 0.8; stroke-linejoin: miter; stroke-linecap: square"/>
   </g>
   <g id="patch_4">
    <path d="M 1425.542187 670.739063 
L 1425.542187 23.899062 
" style="fill: none; stroke: #000000; stroke-width: 0.8; stroke-linejoin: miter; stroke-linecap: square"/>
   </g>
   <g id="patch_5">
    <path d="M 56.032188 670.739062 
L 1425.542187 670.739062 
" style="fill: none; stroke: #000000; stroke-width: 0.8; stroke-linejoin: miter; stroke-linecap: square"/>
   </g>
   <g id="patch_6">
    <path d="M 56.032188 23.899062 
L 1425.542187 23.899062 
" style="fill: none; stroke: #000000; stroke-width: 0.8; stroke-linejoin: miter; stroke-linecap: square"/>
   </g>
   <g id="text_21">
    <!-- Vorhersagefehler 2016 (Stündlich) - RMSE: 0.18 kW | NRMSE: 92.4% | MAPE: 76.2% | Pearson: 0.422 -->
    <g transform="translate(389.366406 17.899062) scale(0.14 -0.14)">
     <defs>
      <path id="DejaVuSans-56" d="M 1831 0 
L 50 4666 
L 709 4666 
L 2188 738 
L 3669 4666 
L 4325 4666 
L 2547 0 
L 1831 0 
z
" transform="scale(0.015625)"/>
      <path id="DejaVuSans-66" d="M 2375 4863 
L 2375 4384 
L 1825 4384 
Q 1516 4384 1395 4259 
Q 1275 4134 1275 3809 
L 1275 3500 
L 2222 3500 
L 2222 3053 
L 1275 3053 
L 1275 0 
L 697 0 
L 697 3053 
L 147 3053 
L 147 3500 
L 697 3500 
L 697 3744 
Q 697 4328 969 4595 
Q 1241 4863 1831 4863 
L 2375 4863 
z
" transform="scale(0.015625)"/>
      <path id="DejaVuSans-32" d="M 1228 531 
L 3431 531 
L 3431 0 
L 469 0 
L 469 531 
Q 828 903 1448 1529 
Q 2069 2156 2228 2338 
Q 2531 2678 2651 2914 
Q 2772 3150 2772 3378 
Q 2772 3750 2511 3984 
Q 2250 4219 1831 4219 
Q 1534 4219 1204 4116 
Q 875 4013 500 3803 
L 500 4441 
Q 881 4594 1212 4672 
Q 1544 4750 1819 4750 
Q 2544 4750 2975 4387 
Q 3406 4025 3406 3419 
Q 3406 3131 3298 2873 
Q 3191 2616 2906 2266 
Q 2828 2175 2409 1742 
Q 1991 1309 1228 531 
z
" transform="scale(0.015625)"/>
      <path id="DejaVuSans-36" d="M 2113 2584 
Q 1688 2584 1439 2293 
Q 1191 2003 1191 1497 
Q 1191 994 1439 701 
Q 1688 409 2113 409 
Q 2538 409 2786 701 
Q 3034 994 3034 1497 
Q 3034 2003 2786 2293 
Q 2538 2584 2113 2584 
z
M 3366 4563 
L 3366 3988 
Q 3128 4100 2886 4159 
Q 2644 4219 2406 4219 
Q 1781 4219 1451 3797 
Q 1122 3375 1075 2522 
Q 1259 2794 1537 2939 
Q 1816 3084 2150 3084 
Q 2853 3084 3261 2657 
Q 3669 2231 3669 1497 
Q 3669 778 3244 343 
Q 2819 -91 2113 -91 
Q 1303 -91 875 529 
Q 447 1150 447 2328 
Q 447 3434 972 4092 
Q 1497 4750 2381 4750 
Q 2619 4750 2861 4703 
Q 3103 4656 3366 4563 
z
" transform="scale(0.015625)"/>
      <path id="DejaVuSans-fc" d="M 544 1381 
L 544 3500 
L 1119 3500 
L 1119 1403 
Q 1119 906 1312 657 
Q 1506 409 1894 409 
Q 2359 409 2629 706 
Q 2900 1003 2900 1516 
L 2900 3500 
L 3475 3500 
L 3475 0 
L 2900 0 
L 2900 538 
Q 2691 219 2414 64 
Q 2138 -91 1772 -91 
Q 1169 -91 856 284 
Q 544 659 544 1381 
z
M 1991 3584 
L 1991 3584 
z
M 2278 4850 
L 2912 4850 
L 2912 4219 
L 2278 4219 
L 2278 4850 
z
M 1056 4850 
L 1690 4850 
L 1690 4219 
L 1056 4219 
L 1056 4850 
z
" transform="scale(0.015625)"/>
      <path id="DejaVuSans-64" d="M 2906 2969 
L 2906 4863 
L 3481 4863 
L 3481 0 
L 2906 0 
L 2906 525 
Q 2725 213 2448 61 
Q 2172 -91 1784 -91 
Q 1150 -91 751 415 
Q 353 922 353 1747 
Q 353 2572 751 3078 
Q 1150 3584 1784 3584 
Q 2172 3584 2448 3432 
Q 2725 3281 2906 2969 
z
M 947 1747 
Q 947 1113 1208 752 
Q 1469 391 1925 391 
Q 2381 391 2643 752 
Q 2906 1113 2906 1747 
Q 2906 2381 2643 2742 
Q 2381 3103 1925 3103 
Q 1469 3103 1208 2742 
Q 947 2381 947 1747 
z
" transform="scale(0.015625)"/>
      <path id="DejaVuSans-69" d="M 603 3500 
L 1178 3500 
L 1178 0 
L 603 0 
L 603 3500 
z
M 603 4863 
L 1178 4863 
L 1178 4134 
L 603 4134 
L 603 4863 
z
" transform="scale(0.015625)"/>
      <path id="DejaVuSans-52" d="M 2841 2188 
Q 3044 2119 3236 1894 
Q 3428 1669 3622 1275 
L 4263 0 
L 3584 0 
L 2988 1197 
Q 2756 1666 2539 1819 
Q 2322 1972 1947 1972 
L 1259 1972 
L 1259 0 
L 628 0 
L 628 4666 
L 2053 4666 
Q 2853 4666 3247 4331 
Q 3641 3997 3641 3322 
Q 3641 2881 3436 2590 
Q 3231 2300 2841 2188 
z
M 1259 4147 
L 1259 2491 
L 2053 2491 
Q 2509 2491 2742 2702 
Q 2975 2913 2975 3322 
Q 2975 3731 2742 3939 
Q 2509 4147 2053 4147 
L 1259 4147 
z
" transform="scale(0.015625)"/>
      <path id="DejaVuSans-45" d="M 628 4666 
L 3578 4666 
L 3578 4134 
L 1259 4134 
L 1259 2753 
L 3481 2753 
L 3481 2222 
L 1259 2222 
L 1259 531 
L 3634 531 
L 3634 0 
L 628 0 
L 628 4666 
z
" transform="scale(0.015625)"/>
      <path id="DejaVuSans-3a" d="M 750 794 
L 1409 794 
L 1409 0 
L 750 0 
L 750 794 
z
M 750 3309 
L 1409 3309 
L 1409 2516 
L 750 2516 
L 750 3309 
z
" transform="scale(0.015625)"/>
      <path id="DejaVuSans-38" d="M 2034 2216 
Q 1584 2216 1326 1975 
Q 1069 1734 1069 1313 
Q 1069 891 1326 650 
Q 1584 409 2034 409 
Q 2484 409 2743 651 
Q 3003 894 3003 1313 
Q 3003 1734 2745 1975 
Q 2488 2216 2034 2216 
z
M 1403 2484 
Q 997 2584 770 2862 
Q 544 3141 544 3541 
Q 544 4100 942 4425 
Q 1341 4750 2034 4750 
Q 2731 4750 3128 4425 
Q 3525 4100 3525 3541 
Q 3525 3141 3298 2862 
Q 3072 2584 2669 2484 
Q 3125 2378 3379 2068 
Q 3634 1759 3634 1313 
Q 3634 634 3220 271 
Q 2806 -91 2034 -91 
Q 1263 -91 848 271 
Q 434 634 434 1313 
Q 434 1759 690 2068 
Q 947 2378 1403 2484 
z
M 1172 3481 
Q 1172 3119 1398 2916 
Q 1625 2713 2034 2713 
Q 2441 2713 2670 2916 
Q 2900 3119 2900 3481 
Q 2900 3844 2670 4047 
Q 2441 4250 2034 4250 
Q 1625 4250 1398 4047 
Q 1172 3844 1172 3481 
z
" transform="scale(0.015625)"/>
      <path id="DejaVuSans-7c" d="M 1344 4891 
L 1344 -1509 
L 813 -1509 
L 813 4891 
L 1344 4891 
z
" transform="scale(0.015625)"/>
      <path id="DejaVuSans-39" d="M 703 97 
L 703 672 
Q 941 559 1184 500 
Q 1428 441 1663 441 
Q 2288 441 2617 861 
Q 2947 1281 2994 2138 
Q 2813 1869 2534 1725 
Q 2256 1581 1919 1581 
Q 1219 1581 811 2004 
Q 403 2428 403 3163 
Q 403 3881 828 4315 
Q 1253 4750 1959 4750 
Q 2769 4750 3195 4129 
Q 3622 3509 3622 2328 
Q 3622 1225 3098 567 
Q 2575 -91 1691 -91 
Q 1453 -91 1209 -44 
Q 966 3 703 97 
z
M 1959 2075 
Q 2384 2075 2632 2365 
Q 2881 2656 2881 3163 
Q 2881 3666 2632 3958 
Q 2384 4250 1959 4250 
Q 1534 4250 1286 3958 
Q 1038 3666 1038 3163 
Q 1038 2656 1286 2365 
Q 1534 2075 1959 2075 
z
" transform="scale(0.015625)"/>
      <path id="DejaVuSans-34" d="M 2419 4116 
L 825 1625 
L 2419 1625 
L 2419 4116 
z
M 2253 4666 
L 3047 4666 
L 3047 1625 
L 3713 1625 
L 3713 1100 
L 3047 1100 
L 3047 0 
L 2419 0 
L 2419 1100 
L 313 1100 
L 313 1709 
L 2253 4666 
z
" transform="scale(0.015625)"/>
      <path id="DejaVuSans-25" d="M 4653 2053 
Q 4381 2053 4226 1822 
Q 4072 1591 4072 1178 
Q 4072 772 4226 539 
Q 4381 306 4653 306 
Q 4919 306 5073 539 
Q 5228 772 5228 1178 
Q 5228 1588 5073 1820 
Q 4919 2053 4653 2053 
z
M 4653 2450 
Q 5147 2450 5437 2106 
Q 5728 1763 5728 1178 
Q 5728 594 5436 251 
Q 5144 -91 4653 -91 
Q 4153 -91 3862 251 
Q 3572 594 3572 1178 
Q 3572 1766 3864 2108 
Q 4156 2450 4653 2450 
z
M 1428 4353 
Q 1159 4353 1004 4120 
Q 850 3888 850 3481 
Q 850 3069 1003 2837 
Q 1156 2606 1428 2606 
Q 1700 2606 1854 2837 
Q 2009 3069 2009 3481 
Q 2009 3884 1853 4118 
Q 1697 4353 1428 4353 
z
M 4250 4750 
L 4750 4750 
L 1831 -91 
L 1331 -91 
L 4250 4750 
z
M 1428 4750 
Q 1922 4750 2215 4408 
Q 2509 4066 2509 3481 
Q 2509 2891 2217 2550 
Q 1925 2209 1428 2209 
Q 931 2209 642 2551 
Q 353 2894 353 3481 
Q 353 4063 643 4406 
Q 934 4750 1428 4750 
z
" transform="scale(0.015625)"/>
      <path id="DejaVuSans-37" d="M 525 4666 
L 3525 4666 
L 3525 4397 
L 1831 0 
L 1172 0 
L 2766 4134 
L 525 4134 
L 525 4666 
z
" transform="scale(0.015625)"/>
     </defs>
     <use xlink:href="#DejaVuSans-56"/>
     <use xlink:href="#DejaVuSans-6f" transform="translate(60.658203 0)"/>
     <use xlink:href="#DejaVuSans-72" transform="translate(121.839844 0)"/>
     <use xlink:href="#DejaVuSans-68" transform="translate(161.203125 0)"/>
     <use xlink:href="#DejaVuSans-65" transform="translate(224.582031 0)"/>
     <use xlink:href="#DejaVuSans-72" transform="translate(286.105469 0)"/>
     <use xlink:href="#DejaVuSans-73" transform="translate(327.21875 0)"/>
     <use xlink:href="#DejaVuSans-61" transform="translate(379.318359 0)"/>
     <use xlink:href="#DejaVuSans-67" transform="translate(440.597656 0)"/>
     <use xlink:href="#DejaVuSans-65" transform="translate(504.074219 0)"/>
     <use xlink:href="#DejaVuSans-66" transform="translate(565.597656 0)"/>
     <use xlink:href="#DejaVuSans-65" transform="translate(600.802734 0)"/>
     <use xlink:href="#DejaVuSans-68" transform="translate(662.326172 0)"/>
     <use xlink:href="#DejaVuSans-6c" transform="translate(725.705078 0)"/>
     <use xlink:href="#DejaVuSans-65" transform="translate(753.488281 0)"/>
     <use xlink:href="#DejaVuSans-72" transform="translate(815.011719 0)"/>
     <use xlink:href="#DejaVuSans-20" transform="translate(856.125 0)"/>
     <use xlink:href="#DejaVuSans-32" transform="translate(887.912109 0)"/>
     <use xlink:href="#DejaVuSans-30" transform="translate(951.535156 0)"/>
     <use xlink:href="#DejaVuSans-31" transform="translate(1015.158203 0)"/>
     <use xlink:href="#DejaVuSans-36" transform="translate(1078.78125 0)"/>
     <use xlink:href="#DejaVuSans-20" transform="translate(1142.404297 0)"/>
     <use xlink:href="#DejaVuSans-28" transform="translate(1174.191406 0)"/>
     <use xlink:href="#DejaVuSans-53" transform="translate(1213.205078 0)"/>
     <use xlink:href="#DejaVuSans-74" transform="translate(1276.681641 0)"/>
     <use xlink:href="#DejaVuSans-fc" transform="translate(1315.890625 0)"/>
     <use xlink:href="#DejaVuSans-6e" transform="translate(1379.269531 0)"/>
     <use xlink:href="#DejaVuSans-64" transform="translate(1442.648438 0)"/>
     <use xlink:href="#DejaVuSans-6c" transform="translate(1506.125 0)"/>
     <use xlink:href="#DejaVuSans-69" transform="translate(1533.908203 0)"/>
     <use xlink:href="#DejaVuSans-63" transform="translate(1561.691406 0)"/>
     <use xlink:href="#DejaVuSans-68" transform="translate(1616.671875 0)"/>
     <use xlink:href="#DejaVuSans-29" transform="translate(1680.050781 0)"/>
     <use xlink:href="#DejaVuSans-20" transform="translate(1719.064453 0)"/>
     <use xlink:href="#DejaVuSans-2d" transform="translate(1750.851562 0)"/>
     <use xlink:href="#DejaVuSans-20" transform="translate(1786.935547 0)"/>
     <use xlink:href="#DejaVuSans-52" transform="translate(1818.722656 0)"/>
     <use xlink:href="#DejaVuSans-4d" transform="translate(1888.205078 0)"/>
     <use xlink:href="#DejaVuSans-53" transform="translate(1974.484375 0)"/>
     <use xlink:href="#DejaVuSans-45" transform="translate(2037.960938 0)"/>
     <use xlink:href="#DejaVuSans-3a" transform="translate(2101.144531 0)"/>
     <use xlink:href="#DejaVuSans-20" transform="translate(2134.835938 0)"/>
     <use xlink:href="#DejaVuSans-30" transform="translate(2166.623047 0)"/>
     <use xlink:href="#DejaVuSans-2e" transform="translate(2230.246094 0)"/>
     <use xlink:href="#DejaVuSans-31" transform="translate(2262.033203 0)"/>
     <use xlink:href="#DejaVuSans-38" transform="translate(2325.65625 0)"/>
     <use xlink:href="#DejaVuSans-20" transform="translate(2389.279297 0)"/>
     <use xlink:href="#DejaVuSans-6b" transform="translate(2421.066406 0)"/>
     <use xlink:href="#DejaVuSans-57" transform="translate(2478.976562 0)"/>
     <use xlink:href="#DejaVuSans-20" transform="translate(2577.853516 0)"/>
     <use xlink:href="#DejaVuSans-7c" transform="translate(2609.640625 0)"/>
     <use xlink:href="#DejaVuSans-20" transform="translate(2643.332031 0)"/>
     <use xlink:href="#DejaVuSans-4e" transform="translate(2675.119141 0)"/>
     <use xlink:href="#DejaVuSans-52" transform="translate(2749.923828 0)"/>
     <use xlink:href="#DejaVuSans-4d" transform="translate(2819.40625 0)"/>
     <use xlink:href="#DejaVuSans-53" transform="translate(2905.685547 0)"/>
     <use xlink:href="#DejaVuSans-45" transform="translate(2969.162109 0)"/>
     <use xlink:href="#DejaVuSans-3a" transform="translate(3032.345703 0)"/>
     <use xlink:href="#DejaVuSans-20" transform="translate(3066.037109 0)"/>
     <use xlink:href="#DejaVuSans-39" transform="translate(3097.824219 0)"/>
     <use xlink:href="#DejaVuSans-32" transform="translate(3161.447266 0)"/>
     <use xlink:href="#DejaVuSans-2e" transform="translate(3225.070312 0)"/>
     <use xlink:href="#DejaVuSans-34" transform="translate(3256.857422 0)"/>
     <use xlink:href="#DejaVuSans-25" transform="translate(3320.480469 0)"/>
     <use xlink:href="#DejaVuSans-20" transform="translate(3415.5 0)"/>
     <use xlink:href="#DejaVuSans-7c" transform="translate(3447.287109 0)"/>
     <use xlink:href="#DejaVuSans-20" transform="translate(3480.978516 0)"/>
     <use xlink:href="#DejaVuSans-4d" transform="translate(3512.765625 0)"/>
     <use xlink:href="#DejaVuSans-41" transform="translate(3599.044922 0)"/>
     <use xlink:href="#DejaVuSans-50" transform="translate(3667.453125 0)"/>
     <use xlink:href="#DejaVuSans-45" transform="translate(3727.755859 0)"/>
     <use xlink:href="#DejaVuSans-3a" transform="translate(3790.939453 0)"/>
     <use xlink:href="#DejaVuSans-20" transform="translate(3824.630859 0)"/>
     <use xlink:href="#DejaVuSans-37" transform="translate(3856.417969 0)"/>
     <use xlink:href="#DejaVuSans-36" transform="translate(3920.041016 0)"/>
     <use xlink:href="#DejaVuSans-2e" transform="translate(3983.664062 0)"/>
     <use xlink:href="#DejaVuSans-32" transform="translate(4015.451172 0)"/>
     <use xlink:href="#DejaVuSans-25" transform="translate(4079.074219 0)"/>
     <use xlink:href="#DejaVuSans-20" transform="translate(4174.09375 0)"/>
     <use xlink:href="#DejaVuSans-7c" transform="translate(4205.880859 0)"/>
     <use xlink:href="#DejaVuSans-20" transform="translate(4239.572266 0)"/>
     <use xlink:href="#DejaVuSans-50" transform="translate(4271.359375 0)"/>
     <use xlink:href="#DejaVuSans-65" transform="translate(4328.037109 0)"/>
     <use xlink:href="#DejaVuSans-61" transform="translate(4389.560547 0)"/>
     <use xlink:href="#DejaVuSans-72" transform="translate(4450.839844 0)"/>
     <use xlink:href="#DejaVuSans-73" transform="translate(4491.953125 0)"/>
     <use xlink:href="#DejaVuSans-6f" transform="translate(4544.052734 0)"/>
     <use xlink:href="#DejaVuSans-6e" transform="translate(4605.234375 0)"/>
     <use xlink:href="#DejaVuSans-3a" transform="translate(4668.613281 0)"/>
     <use xlink:href="#DejaVuSans-20" transform="translate(4702.304688 0)"/>
     <use xlink:href="#DejaVuSans-30" transform="translate(4734.091797 0)"/>
     <use xlink:href="#DejaVuSans-2e" transform="translate(4797.714844 0)"/>
     <use xlink:href="#DejaVuSans-34" transform="translate(4829.501953 0)"/>
     <use xlink:href="#DejaVuSans-32" transform="translate(4893.125 0)"/>
     <use xlink:href="#DejaVuSans-32" transform="translate(4956.748047 0)"/>
    </g>
   </g>
  </g>
 </g>
 <defs>
  <clipPath id="pc32dbbecac">
   <rect x="56.032188" y="23.899062" width="1369.51" height="646.84"/>
  </clipPath>
 </defs>
</svg>
