<?xml version="1.0" encoding="utf-8" standalone="no"?>
<!DOCTYPE svg PUBLIC "-//W3C//DTD SVG 1.1//EN"
  "http://www.w3.org/Graphics/SVG/1.1/DTD/svg11.dtd">
<svg xmlns:xlink="http://www.w3.org/1999/xlink" width="1432.714062pt" height="712.166562pt" viewBox="0 0 1432.714062 712.166562" xmlns="http://www.w3.org/2000/svg" version="1.1">
 <metadata>
  <rdf:RDF xmlns:dc="http://purl.org/dc/elements/1.1/" xmlns:cc="http://creativecommons.org/ns#" xmlns:rdf="http://www.w3.org/1999/02/22-rdf-syntax-ns#">
   <cc:Work>
    <dc:type rdf:resource="http://purl.org/dc/dcmitype/StillImage"/>
    <dc:date>2025-12-09T16:56:56.292265</dc:date>
    <dc:format>image/svg+xml</dc:format>
    <dc:creator>
     <cc:Agent>
      <dc:title>Matplotlib v3.10.7, https://matplotlib.org/</dc:title>
     </cc:Agent>
    </dc:creator>
   </cc:Work>
  </rdf:RDF>
 </metadata>
 <defs>
  <style type="text/css">*{stroke-linejoin: round; stroke-linecap: butt}</style>
 </defs>
 <g id="figure_1">
  <g id="patch_1">
   <path d="M 0 712.166562 
L 1432.714062 712.166562 
L 1432.714062 0 
L 0 0 
z
" style="fill: #ffffff"/>
  </g>
  <g id="axes_1">
   <g id="patch_2">
    <path d="M 52.854063 670.739062 
L 1425.514062 670.739062 
L 1425.514062 23.899062 
L 52.854063 23.899062 
z
" style="fill: #ffffff"/>
   </g>
   <g id="matplotlib.axis_1">
    <g id="xtick_1">
     <g id="line2d_1">
      <path d="M 115.247699 670.739062 
L 115.247699 23.899062 
" clip-path="url(#p19e30bcaa2)" style="fill: none; stroke: #b0b0b0; stroke-opacity: 0.3; stroke-width: 0.8; stroke-linecap: square"/>
     </g>
     <g id="line2d_2">
      <defs>
       <path id="m9145367b03" d="M 0 0 
L 0 3.5 
" style="stroke: #000000; stroke-width: 0.8"/>
      </defs>
      <g>
       <use xlink:href="#m9145367b03" x="115.247699" y="670.739062" style="stroke: #000000; stroke-width: 0.8"/>
      </g>
     </g>
     <g id="text_1">
      <!-- Feb -->
      <g transform="translate(106.396136 685.3375) scale(0.1 -0.1)">
       <defs>
        <path id="DejaVuSans-46" d="M 628 4666 
L 3309 4666 
L 3309 4134 
L 1259 4134 
L 1259 2759 
L 3109 2759 
L 3109 2228 
L 1259 2228 
L 1259 0 
L 628 0 
L 628 4666 
z
" transform="scale(0.015625)"/>
        <path id="DejaVuSans-65" d="M 3597 1894 
L 3597 1613 
L 953 1613 
Q 991 1019 1311 708 
Q 1631 397 2203 397 
Q 2534 397 2845 478 
Q 3156 559 3463 722 
L 3463 178 
Q 3153 47 2828 -22 
Q 2503 -91 2169 -91 
Q 1331 -91 842 396 
Q 353 884 353 1716 
Q 353 2575 817 3079 
Q 1281 3584 2069 3584 
Q 2775 3584 3186 3129 
Q 3597 2675 3597 1894 
z
M 3022 2063 
Q 3016 2534 2758 2815 
Q 2500 3097 2075 3097 
Q 1594 3097 1305 2825 
Q 1016 2553 972 2059 
L 3022 2063 
z
" transform="scale(0.015625)"/>
        <path id="DejaVuSans-62" d="M 3116 1747 
Q 3116 2381 2855 2742 
Q 2594 3103 2138 3103 
Q 1681 3103 1420 2742 
Q 1159 2381 1159 1747 
Q 1159 1113 1420 752 
Q 1681 391 2138 391 
Q 2594 391 2855 752 
Q 3116 1113 3116 1747 
z
M 1159 2969 
Q 1341 3281 1617 3432 
Q 1894 3584 2278 3584 
Q 2916 3584 3314 3078 
Q 3713 2572 3713 1747 
Q 3713 922 3314 415 
Q 2916 -91 2278 -91 
Q 1894 -91 1617 61 
Q 1341 213 1159 525 
L 1159 0 
L 581 0 
L 581 4863 
L 1159 4863 
L 1159 2969 
z
" transform="scale(0.015625)"/>
       </defs>
       <use xlink:href="#DejaVuSans-46"/>
       <use xlink:href="#DejaVuSans-65" transform="translate(52.019531 0)"/>
       <use xlink:href="#DejaVuSans-62" transform="translate(113.542969 0)"/>
      </g>
     </g>
    </g>
    <g id="xtick_2">
     <g id="line2d_3">
      <path d="M 225.162518 670.739062 
L 225.162518 23.899062 
" clip-path="url(#p19e30bcaa2)" style="fill: none; stroke: #b0b0b0; stroke-opacity: 0.3; stroke-width: 0.8; stroke-linecap: square"/>
     </g>
     <g id="line2d_4">
      <g>
       <use xlink:href="#m9145367b03" x="225.162518" y="670.739062" style="stroke: #000000; stroke-width: 0.8"/>
      </g>
     </g>
     <g id="text_2">
      <!-- Mar -->
      <g transform="translate(215.728924 685.3375) scale(0.1 -0.1)">
       <defs>
        <path id="DejaVuSans-4d" d="M 628 4666 
L 1569 4666 
L 2759 1491 
L 3956 4666 
L 4897 4666 
L 4897 0 
L 4281 0 
L 4281 4097 
L 3078 897 
L 2444 897 
L 1241 4097 
L 1241 0 
L 628 0 
L 628 4666 
z
" transform="scale(0.015625)"/>
        <path id="DejaVuSans-61" d="M 2194 1759 
Q 1497 1759 1228 1600 
Q 959 1441 959 1056 
Q 959 750 1161 570 
Q 1363 391 1709 391 
Q 2188 391 2477 730 
Q 2766 1069 2766 1631 
L 2766 1759 
L 2194 1759 
z
M 3341 1997 
L 3341 0 
L 2766 0 
L 2766 531 
Q 2569 213 2275 61 
Q 1981 -91 1556 -91 
Q 1019 -91 701 211 
Q 384 513 384 1019 
Q 384 1609 779 1909 
Q 1175 2209 1959 2209 
L 2766 2209 
L 2766 2266 
Q 2766 2663 2505 2880 
Q 2244 3097 1772 3097 
Q 1472 3097 1187 3025 
Q 903 2953 641 2809 
L 641 3341 
Q 956 3463 1253 3523 
Q 1550 3584 1831 3584 
Q 2591 3584 2966 3190 
Q 3341 2797 3341 1997 
z
" transform="scale(0.015625)"/>
        <path id="DejaVuSans-72" d="M 2631 2963 
Q 2534 3019 2420 3045 
Q 2306 3072 2169 3072 
Q 1681 3072 1420 2755 
Q 1159 2438 1159 1844 
L 1159 0 
L 581 0 
L 581 3500 
L 1159 3500 
L 1159 2956 
Q 1341 3275 1631 3429 
Q 1922 3584 2338 3584 
Q 2397 3584 2469 3576 
Q 2541 3569 2628 3553 
L 2631 2963 
z
" transform="scale(0.015625)"/>
       </defs>
       <use xlink:href="#DejaVuSans-4d"/>
       <use xlink:href="#DejaVuSans-61" transform="translate(86.279297 0)"/>
       <use xlink:href="#DejaVuSans-72" transform="translate(147.558594 0)"/>
      </g>
     </g>
    </g>
    <g id="xtick_3">
     <g id="line2d_5">
      <path d="M 342.657668 670.739062 
L 342.657668 23.899062 
" clip-path="url(#p19e30bcaa2)" style="fill: none; stroke: #b0b0b0; stroke-opacity: 0.3; stroke-width: 0.8; stroke-linecap: square"/>
     </g>
     <g id="line2d_6">
      <g>
       <use xlink:href="#m9145367b03" x="342.657668" y="670.739062" style="stroke: #000000; stroke-width: 0.8"/>
      </g>
     </g>
     <g id="text_3">
      <!-- Apr -->
      <g transform="translate(334.007668 685.3375) scale(0.1 -0.1)">
       <defs>
        <path id="DejaVuSans-41" d="M 2188 4044 
L 1331 1722 
L 3047 1722 
L 2188 4044 
z
M 1831 4666 
L 2547 4666 
L 4325 0 
L 3669 0 
L 3244 1197 
L 1141 1197 
L 716 0 
L 50 0 
L 1831 4666 
z
" transform="scale(0.015625)"/>
        <path id="DejaVuSans-70" d="M 1159 525 
L 1159 -1331 
L 581 -1331 
L 581 3500 
L 1159 3500 
L 1159 2969 
Q 1341 3281 1617 3432 
Q 1894 3584 2278 3584 
Q 2916 3584 3314 3078 
Q 3713 2572 3713 1747 
Q 3713 922 3314 415 
Q 2916 -91 2278 -91 
Q 1894 -91 1617 61 
Q 1341 213 1159 525 
z
M 3116 1747 
Q 3116 2381 2855 2742 
Q 2594 3103 2138 3103 
Q 1681 3103 1420 2742 
Q 1159 2381 1159 1747 
Q 1159 1113 1420 752 
Q 1681 391 2138 391 
Q 2594 391 2855 752 
Q 3116 1113 3116 1747 
z
" transform="scale(0.015625)"/>
       </defs>
       <use xlink:href="#DejaVuSans-41"/>
       <use xlink:href="#DejaVuSans-70" transform="translate(68.408203 0)"/>
       <use xlink:href="#DejaVuSans-72" transform="translate(131.884766 0)"/>
      </g>
     </g>
    </g>
    <g id="xtick_4">
     <g id="line2d_7">
      <path d="M 456.362653 670.739062 
L 456.362653 23.899062 
" clip-path="url(#p19e30bcaa2)" style="fill: none; stroke: #b0b0b0; stroke-opacity: 0.3; stroke-width: 0.8; stroke-linecap: square"/>
     </g>
     <g id="line2d_8">
      <g>
       <use xlink:href="#m9145367b03" x="456.362653" y="670.739062" style="stroke: #000000; stroke-width: 0.8"/>
      </g>
     </g>
     <g id="text_4">
      <!-- May -->
      <g transform="translate(446.025153 685.3375) scale(0.1 -0.1)">
       <defs>
        <path id="DejaVuSans-79" d="M 2059 -325 
Q 1816 -950 1584 -1140 
Q 1353 -1331 966 -1331 
L 506 -1331 
L 506 -850 
L 844 -850 
Q 1081 -850 1212 -737 
Q 1344 -625 1503 -206 
L 1606 56 
L 191 3500 
L 800 3500 
L 1894 763 
L 2988 3500 
L 3597 3500 
L 2059 -325 
z
" transform="scale(0.015625)"/>
       </defs>
       <use xlink:href="#DejaVuSans-4d"/>
       <use xlink:href="#DejaVuSans-61" transform="translate(86.279297 0)"/>
       <use xlink:href="#DejaVuSans-79" transform="translate(147.558594 0)"/>
      </g>
     </g>
    </g>
    <g id="xtick_5">
     <g id="line2d_9">
      <path d="M 573.857804 670.739062 
L 573.857804 23.899062 
" clip-path="url(#p19e30bcaa2)" style="fill: none; stroke: #b0b0b0; stroke-opacity: 0.3; stroke-width: 0.8; stroke-linecap: square"/>
     </g>
     <g id="line2d_10">
      <g>
       <use xlink:href="#m9145367b03" x="573.857804" y="670.739062" style="stroke: #000000; stroke-width: 0.8"/>
      </g>
     </g>
     <g id="text_5">
      <!-- Jun -->
      <g transform="translate(566.045304 685.3375) scale(0.1 -0.1)">
       <defs>
        <path id="DejaVuSans-4a" d="M 628 4666 
L 1259 4666 
L 1259 325 
Q 1259 -519 939 -900 
Q 619 -1281 -91 -1281 
L -331 -1281 
L -331 -750 
L -134 -750 
Q 284 -750 456 -515 
Q 628 -281 628 325 
L 628 4666 
z
" transform="scale(0.015625)"/>
        <path id="DejaVuSans-75" d="M 544 1381 
L 544 3500 
L 1119 3500 
L 1119 1403 
Q 1119 906 1312 657 
Q 1506 409 1894 409 
Q 2359 409 2629 706 
Q 2900 1003 2900 1516 
L 2900 3500 
L 3475 3500 
L 3475 0 
L 2900 0 
L 2900 538 
Q 2691 219 2414 64 
Q 2138 -91 1772 -91 
Q 1169 -91 856 284 
Q 544 659 544 1381 
z
M 1991 3584 
L 1991 3584 
z
" transform="scale(0.015625)"/>
        <path id="DejaVuSans-6e" d="M 3513 2113 
L 3513 0 
L 2938 0 
L 2938 2094 
Q 2938 2591 2744 2837 
Q 2550 3084 2163 3084 
Q 1697 3084 1428 2787 
Q 1159 2491 1159 1978 
L 1159 0 
L 581 0 
L 581 3500 
L 1159 3500 
L 1159 2956 
Q 1366 3272 1645 3428 
Q 1925 3584 2291 3584 
Q 2894 3584 3203 3211 
Q 3513 2838 3513 2113 
z
" transform="scale(0.015625)"/>
       </defs>
       <use xlink:href="#DejaVuSans-4a"/>
       <use xlink:href="#DejaVuSans-75" transform="translate(29.492188 0)"/>
       <use xlink:href="#DejaVuSans-6e" transform="translate(92.871094 0)"/>
      </g>
     </g>
    </g>
    <g id="xtick_6">
     <g id="line2d_11">
      <path d="M 687.562789 670.739062 
L 687.562789 23.899062 
" clip-path="url(#p19e30bcaa2)" style="fill: none; stroke: #b0b0b0; stroke-opacity: 0.3; stroke-width: 0.8; stroke-linecap: square"/>
     </g>
     <g id="line2d_12">
      <g>
       <use xlink:href="#m9145367b03" x="687.562789" y="670.739062" style="stroke: #000000; stroke-width: 0.8"/>
      </g>
     </g>
     <g id="text_6">
      <!-- Jul -->
      <g transform="translate(681.529977 685.3375) scale(0.1 -0.1)">
       <defs>
        <path id="DejaVuSans-6c" d="M 603 4863 
L 1178 4863 
L 1178 0 
L 603 0 
L 603 4863 
z
" transform="scale(0.015625)"/>
       </defs>
       <use xlink:href="#DejaVuSans-4a"/>
       <use xlink:href="#DejaVuSans-75" transform="translate(29.492188 0)"/>
       <use xlink:href="#DejaVuSans-6c" transform="translate(92.871094 0)"/>
      </g>
     </g>
    </g>
    <g id="xtick_7">
     <g id="line2d_13">
      <path d="M 805.05794 670.739062 
L 805.05794 23.899062 
" clip-path="url(#p19e30bcaa2)" style="fill: none; stroke: #b0b0b0; stroke-opacity: 0.3; stroke-width: 0.8; stroke-linecap: square"/>
     </g>
     <g id="line2d_14">
      <g>
       <use xlink:href="#m9145367b03" x="805.05794" y="670.739062" style="stroke: #000000; stroke-width: 0.8"/>
      </g>
     </g>
     <g id="text_7">
      <!-- Aug -->
      <g transform="translate(795.294659 685.3375) scale(0.1 -0.1)">
       <defs>
        <path id="DejaVuSans-67" d="M 2906 1791 
Q 2906 2416 2648 2759 
Q 2391 3103 1925 3103 
Q 1463 3103 1205 2759 
Q 947 2416 947 1791 
Q 947 1169 1205 825 
Q 1463 481 1925 481 
Q 2391 481 2648 825 
Q 2906 1169 2906 1791 
z
M 3481 434 
Q 3481 -459 3084 -895 
Q 2688 -1331 1869 -1331 
Q 1566 -1331 1297 -1286 
Q 1028 -1241 775 -1147 
L 775 -588 
Q 1028 -725 1275 -790 
Q 1522 -856 1778 -856 
Q 2344 -856 2625 -561 
Q 2906 -266 2906 331 
L 2906 616 
Q 2728 306 2450 153 
Q 2172 0 1784 0 
Q 1141 0 747 490 
Q 353 981 353 1791 
Q 353 2603 747 3093 
Q 1141 3584 1784 3584 
Q 2172 3584 2450 3431 
Q 2728 3278 2906 2969 
L 2906 3500 
L 3481 3500 
L 3481 434 
z
" transform="scale(0.015625)"/>
       </defs>
       <use xlink:href="#DejaVuSans-41"/>
       <use xlink:href="#DejaVuSans-75" transform="translate(68.408203 0)"/>
       <use xlink:href="#DejaVuSans-67" transform="translate(131.787109 0)"/>
      </g>
     </g>
    </g>
    <g id="xtick_8">
     <g id="line2d_15">
      <path d="M 922.553091 670.739062 
L 922.553091 23.899062 
" clip-path="url(#p19e30bcaa2)" style="fill: none; stroke: #b0b0b0; stroke-opacity: 0.3; stroke-width: 0.8; stroke-linecap: square"/>
     </g>
     <g id="line2d_16">
      <g>
       <use xlink:href="#m9145367b03" x="922.553091" y="670.739062" style="stroke: #000000; stroke-width: 0.8"/>
      </g>
     </g>
     <g id="text_8">
      <!-- Sep -->
      <g transform="translate(913.128091 685.3375) scale(0.1 -0.1)">
       <defs>
        <path id="DejaVuSans-53" d="M 3425 4513 
L 3425 3897 
Q 3066 4069 2747 4153 
Q 2428 4238 2131 4238 
Q 1616 4238 1336 4038 
Q 1056 3838 1056 3469 
Q 1056 3159 1242 3001 
Q 1428 2844 1947 2747 
L 2328 2669 
Q 3034 2534 3370 2195 
Q 3706 1856 3706 1288 
Q 3706 609 3251 259 
Q 2797 -91 1919 -91 
Q 1588 -91 1214 -16 
Q 841 59 441 206 
L 441 856 
Q 825 641 1194 531 
Q 1563 422 1919 422 
Q 2459 422 2753 634 
Q 3047 847 3047 1241 
Q 3047 1584 2836 1778 
Q 2625 1972 2144 2069 
L 1759 2144 
Q 1053 2284 737 2584 
Q 422 2884 422 3419 
Q 422 4038 858 4394 
Q 1294 4750 2059 4750 
Q 2388 4750 2728 4690 
Q 3069 4631 3425 4513 
z
" transform="scale(0.015625)"/>
       </defs>
       <use xlink:href="#DejaVuSans-53"/>
       <use xlink:href="#DejaVuSans-65" transform="translate(63.476562 0)"/>
       <use xlink:href="#DejaVuSans-70" transform="translate(125 0)"/>
      </g>
     </g>
    </g>
    <g id="xtick_9">
     <g id="line2d_17">
      <path d="M 1036.258076 670.739062 
L 1036.258076 23.899062 
" clip-path="url(#p19e30bcaa2)" style="fill: none; stroke: #b0b0b0; stroke-opacity: 0.3; stroke-width: 0.8; stroke-linecap: square"/>
     </g>
     <g id="line2d_18">
      <g>
       <use xlink:href="#m9145367b03" x="1036.258076" y="670.739062" style="stroke: #000000; stroke-width: 0.8"/>
      </g>
     </g>
     <g id="text_9">
      <!-- Oct -->
      <g transform="translate(1027.612763 685.3375) scale(0.1 -0.1)">
       <defs>
        <path id="DejaVuSans-4f" d="M 2522 4238 
Q 1834 4238 1429 3725 
Q 1025 3213 1025 2328 
Q 1025 1447 1429 934 
Q 1834 422 2522 422 
Q 3209 422 3611 934 
Q 4013 1447 4013 2328 
Q 4013 3213 3611 3725 
Q 3209 4238 2522 4238 
z
M 2522 4750 
Q 3503 4750 4090 4092 
Q 4678 3434 4678 2328 
Q 4678 1225 4090 567 
Q 3503 -91 2522 -91 
Q 1538 -91 948 565 
Q 359 1222 359 2328 
Q 359 3434 948 4092 
Q 1538 4750 2522 4750 
z
" transform="scale(0.015625)"/>
        <path id="DejaVuSans-63" d="M 3122 3366 
L 3122 2828 
Q 2878 2963 2633 3030 
Q 2388 3097 2138 3097 
Q 1578 3097 1268 2742 
Q 959 2388 959 1747 
Q 959 1106 1268 751 
Q 1578 397 2138 397 
Q 2388 397 2633 464 
Q 2878 531 3122 666 
L 3122 134 
Q 2881 22 2623 -34 
Q 2366 -91 2075 -91 
Q 1284 -91 818 406 
Q 353 903 353 1747 
Q 353 2603 823 3093 
Q 1294 3584 2113 3584 
Q 2378 3584 2631 3529 
Q 2884 3475 3122 3366 
z
" transform="scale(0.015625)"/>
        <path id="DejaVuSans-74" d="M 1172 4494 
L 1172 3500 
L 2356 3500 
L 2356 3053 
L 1172 3053 
L 1172 1153 
Q 1172 725 1289 603 
Q 1406 481 1766 481 
L 2356 481 
L 2356 0 
L 1766 0 
Q 1100 0 847 248 
Q 594 497 594 1153 
L 594 3053 
L 172 3053 
L 172 3500 
L 594 3500 
L 594 4494 
L 1172 4494 
z
" transform="scale(0.015625)"/>
       </defs>
       <use xlink:href="#DejaVuSans-4f"/>
       <use xlink:href="#DejaVuSans-63" transform="translate(78.710938 0)"/>
       <use xlink:href="#DejaVuSans-74" transform="translate(133.691406 0)"/>
      </g>
     </g>
    </g>
    <g id="xtick_10">
     <g id="line2d_19">
      <path d="M 1153.753227 670.739062 
L 1153.753227 23.899062 
" clip-path="url(#p19e30bcaa2)" style="fill: none; stroke: #b0b0b0; stroke-opacity: 0.3; stroke-width: 0.8; stroke-linecap: square"/>
     </g>
     <g id="line2d_20">
      <g>
       <use xlink:href="#m9145367b03" x="1153.753227" y="670.739062" style="stroke: #000000; stroke-width: 0.8"/>
      </g>
     </g>
     <g id="text_10">
      <!-- Nov -->
      <g transform="translate(1143.993852 685.3375) scale(0.1 -0.1)">
       <defs>
        <path id="DejaVuSans-4e" d="M 628 4666 
L 1478 4666 
L 3547 763 
L 3547 4666 
L 4159 4666 
L 4159 0 
L 3309 0 
L 1241 3903 
L 1241 0 
L 628 0 
L 628 4666 
z
" transform="scale(0.015625)"/>
        <path id="DejaVuSans-6f" d="M 1959 3097 
Q 1497 3097 1228 2736 
Q 959 2375 959 1747 
Q 959 1119 1226 758 
Q 1494 397 1959 397 
Q 2419 397 2687 759 
Q 2956 1122 2956 1747 
Q 2956 2369 2687 2733 
Q 2419 3097 1959 3097 
z
M 1959 3584 
Q 2709 3584 3137 3096 
Q 3566 2609 3566 1747 
Q 3566 888 3137 398 
Q 2709 -91 1959 -91 
Q 1206 -91 779 398 
Q 353 888 353 1747 
Q 353 2609 779 3096 
Q 1206 3584 1959 3584 
z
" transform="scale(0.015625)"/>
        <path id="DejaVuSans-76" d="M 191 3500 
L 800 3500 
L 1894 563 
L 2988 3500 
L 3597 3500 
L 2284 0 
L 1503 0 
L 191 3500 
z
" transform="scale(0.015625)"/>
       </defs>
       <use xlink:href="#DejaVuSans-4e"/>
       <use xlink:href="#DejaVuSans-6f" transform="translate(74.804688 0)"/>
       <use xlink:href="#DejaVuSans-76" transform="translate(135.986328 0)"/>
      </g>
     </g>
    </g>
    <g id="xtick_11">
     <g id="line2d_21">
      <path d="M 1267.458211 670.739062 
L 1267.458211 23.899062 
" clip-path="url(#p19e30bcaa2)" style="fill: none; stroke: #b0b0b0; stroke-opacity: 0.3; stroke-width: 0.8; stroke-linecap: square"/>
     </g>
     <g id="line2d_22">
      <g>
       <use xlink:href="#m9145367b03" x="1267.458211" y="670.739062" style="stroke: #000000; stroke-width: 0.8"/>
      </g>
     </g>
     <g id="text_11">
      <!-- Dec -->
      <g transform="translate(1257.78243 685.3375) scale(0.1 -0.1)">
       <defs>
        <path id="DejaVuSans-44" d="M 1259 4147 
L 1259 519 
L 2022 519 
Q 2988 519 3436 956 
Q 3884 1394 3884 2338 
Q 3884 3275 3436 3711 
Q 2988 4147 2022 4147 
L 1259 4147 
z
M 628 4666 
L 1925 4666 
Q 3281 4666 3915 4102 
Q 4550 3538 4550 2338 
Q 4550 1131 3912 565 
Q 3275 0 1925 0 
L 628 0 
L 628 4666 
z
" transform="scale(0.015625)"/>
       </defs>
       <use xlink:href="#DejaVuSans-44"/>
       <use xlink:href="#DejaVuSans-65" transform="translate(77.001953 0)"/>
       <use xlink:href="#DejaVuSans-63" transform="translate(138.525391 0)"/>
      </g>
     </g>
    </g>
    <g id="xtick_12">
     <g id="line2d_23">
      <path d="M 1384.953362 670.739062 
L 1384.953362 23.899062 
" clip-path="url(#p19e30bcaa2)" style="fill: none; stroke: #b0b0b0; stroke-opacity: 0.3; stroke-width: 0.8; stroke-linecap: square"/>
     </g>
     <g id="line2d_24">
      <g>
       <use xlink:href="#m9145367b03" x="1384.953362" y="670.739062" style="stroke: #000000; stroke-width: 0.8"/>
      </g>
     </g>
     <g id="text_12">
      <!-- Jan -->
      <g transform="translate(1377.24555 685.3375) scale(0.1 -0.1)">
       <use xlink:href="#DejaVuSans-4a"/>
       <use xlink:href="#DejaVuSans-61" transform="translate(29.492188 0)"/>
       <use xlink:href="#DejaVuSans-6e" transform="translate(90.771484 0)"/>
      </g>
     </g>
    </g>
    <g id="text_13">
     <!-- Datum -->
     <g transform="translate(715.505469 702.055) scale(0.14 -0.14)">
      <defs>
       <path id="DejaVuSans-6d" d="M 3328 2828 
Q 3544 3216 3844 3400 
Q 4144 3584 4550 3584 
Q 5097 3584 5394 3201 
Q 5691 2819 5691 2113 
L 5691 0 
L 5113 0 
L 5113 2094 
Q 5113 2597 4934 2840 
Q 4756 3084 4391 3084 
Q 3944 3084 3684 2787 
Q 3425 2491 3425 1978 
L 3425 0 
L 2847 0 
L 2847 2094 
Q 2847 2600 2669 2842 
Q 2491 3084 2119 3084 
Q 1678 3084 1418 2786 
Q 1159 2488 1159 1978 
L 1159 0 
L 581 0 
L 581 3500 
L 1159 3500 
L 1159 2956 
Q 1356 3278 1631 3431 
Q 1906 3584 2284 3584 
Q 2666 3584 2933 3390 
Q 3200 3197 3328 2828 
z
" transform="scale(0.015625)"/>
      </defs>
      <use xlink:href="#DejaVuSans-44"/>
      <use xlink:href="#DejaVuSans-61" transform="translate(77.001953 0)"/>
      <use xlink:href="#DejaVuSans-74" transform="translate(138.28125 0)"/>
      <use xlink:href="#DejaVuSans-75" transform="translate(177.490234 0)"/>
      <use xlink:href="#DejaVuSans-6d" transform="translate(240.869141 0)"/>
     </g>
    </g>
   </g>
   <g id="matplotlib.axis_2">
    <g id="ytick_1">
     <g id="line2d_25">
      <path d="M 52.854063 651.123511 
L 1425.514062 651.123511 
" clip-path="url(#p19e30bcaa2)" style="fill: none; stroke: #b0b0b0; stroke-opacity: 0.3; stroke-width: 0.8; stroke-linecap: square"/>
     </g>
     <g id="line2d_26">
      <defs>
       <path id="m273151a7ec" d="M 0 0 
L -3.5 0 
" style="stroke: #000000; stroke-width: 0.8"/>
      </defs>
      <g>
       <use xlink:href="#m273151a7ec" x="52.854063" y="651.123511" style="stroke: #000000; stroke-width: 0.8"/>
      </g>
     </g>
     <g id="text_14">
      <!-- −30 -->
      <g transform="translate(24.749375 654.922729) scale(0.1 -0.1)">
       <defs>
        <path id="DejaVuSans-2212" d="M 678 2272 
L 4684 2272 
L 4684 1741 
L 678 1741 
L 678 2272 
z
" transform="scale(0.015625)"/>
        <path id="DejaVuSans-33" d="M 2597 2516 
Q 3050 2419 3304 2112 
Q 3559 1806 3559 1356 
Q 3559 666 3084 287 
Q 2609 -91 1734 -91 
Q 1441 -91 1130 -33 
Q 819 25 488 141 
L 488 750 
Q 750 597 1062 519 
Q 1375 441 1716 441 
Q 2309 441 2620 675 
Q 2931 909 2931 1356 
Q 2931 1769 2642 2001 
Q 2353 2234 1838 2234 
L 1294 2234 
L 1294 2753 
L 1863 2753 
Q 2328 2753 2575 2939 
Q 2822 3125 2822 3475 
Q 2822 3834 2567 4026 
Q 2313 4219 1838 4219 
Q 1578 4219 1281 4162 
Q 984 4106 628 3988 
L 628 4550 
Q 988 4650 1302 4700 
Q 1616 4750 1894 4750 
Q 2613 4750 3031 4423 
Q 3450 4097 3450 3541 
Q 3450 3153 3228 2886 
Q 3006 2619 2597 2516 
z
" transform="scale(0.015625)"/>
        <path id="DejaVuSans-30" d="M 2034 4250 
Q 1547 4250 1301 3770 
Q 1056 3291 1056 2328 
Q 1056 1369 1301 889 
Q 1547 409 2034 409 
Q 2525 409 2770 889 
Q 3016 1369 3016 2328 
Q 3016 3291 2770 3770 
Q 2525 4250 2034 4250 
z
M 2034 4750 
Q 2819 4750 3233 4129 
Q 3647 3509 3647 2328 
Q 3647 1150 3233 529 
Q 2819 -91 2034 -91 
Q 1250 -91 836 529 
Q 422 1150 422 2328 
Q 422 3509 836 4129 
Q 1250 4750 2034 4750 
z
" transform="scale(0.015625)"/>
       </defs>
       <use xlink:href="#DejaVuSans-2212"/>
       <use xlink:href="#DejaVuSans-33" transform="translate(83.789062 0)"/>
       <use xlink:href="#DejaVuSans-30" transform="translate(147.412109 0)"/>
      </g>
     </g>
    </g>
    <g id="ytick_2">
     <g id="line2d_27">
      <path d="M 52.854063 578.783488 
L 1425.514062 578.783488 
" clip-path="url(#p19e30bcaa2)" style="fill: none; stroke: #b0b0b0; stroke-opacity: 0.3; stroke-width: 0.8; stroke-linecap: square"/>
     </g>
     <g id="line2d_28">
      <g>
       <use xlink:href="#m273151a7ec" x="52.854063" y="578.783488" style="stroke: #000000; stroke-width: 0.8"/>
      </g>
     </g>
     <g id="text_15">
      <!-- −20 -->
      <g transform="translate(24.749375 582.582707) scale(0.1 -0.1)">
       <defs>
        <path id="DejaVuSans-32" d="M 1228 531 
L 3431 531 
L 3431 0 
L 469 0 
L 469 531 
Q 828 903 1448 1529 
Q 2069 2156 2228 2338 
Q 2531 2678 2651 2914 
Q 2772 3150 2772 3378 
Q 2772 3750 2511 3984 
Q 2250 4219 1831 4219 
Q 1534 4219 1204 4116 
Q 875 4013 500 3803 
L 500 4441 
Q 881 4594 1212 4672 
Q 1544 4750 1819 4750 
Q 2544 4750 2975 4387 
Q 3406 4025 3406 3419 
Q 3406 3131 3298 2873 
Q 3191 2616 2906 2266 
Q 2828 2175 2409 1742 
Q 1991 1309 1228 531 
z
" transform="scale(0.015625)"/>
       </defs>
       <use xlink:href="#DejaVuSans-2212"/>
       <use xlink:href="#DejaVuSans-32" transform="translate(83.789062 0)"/>
       <use xlink:href="#DejaVuSans-30" transform="translate(147.412109 0)"/>
      </g>
     </g>
    </g>
    <g id="ytick_3">
     <g id="line2d_29">
      <path d="M 52.854063 506.443465 
L 1425.514062 506.443465 
" clip-path="url(#p19e30bcaa2)" style="fill: none; stroke: #b0b0b0; stroke-opacity: 0.3; stroke-width: 0.8; stroke-linecap: square"/>
     </g>
     <g id="line2d_30">
      <g>
       <use xlink:href="#m273151a7ec" x="52.854063" y="506.443465" style="stroke: #000000; stroke-width: 0.8"/>
      </g>
     </g>
     <g id="text_16">
      <!-- −10 -->
      <g transform="translate(24.749375 510.242684) scale(0.1 -0.1)">
       <defs>
        <path id="DejaVuSans-31" d="M 794 531 
L 1825 531 
L 1825 4091 
L 703 3866 
L 703 4441 
L 1819 4666 
L 2450 4666 
L 2450 531 
L 3481 531 
L 3481 0 
L 794 0 
L 794 531 
z
" transform="scale(0.015625)"/>
       </defs>
       <use xlink:href="#DejaVuSans-2212"/>
       <use xlink:href="#DejaVuSans-31" transform="translate(83.789062 0)"/>
       <use xlink:href="#DejaVuSans-30" transform="translate(147.412109 0)"/>
      </g>
     </g>
    </g>
    <g id="ytick_4">
     <g id="line2d_31">
      <path d="M 52.854063 434.103442 
L 1425.514062 434.103442 
" clip-path="url(#p19e30bcaa2)" style="fill: none; stroke: #b0b0b0; stroke-opacity: 0.3; stroke-width: 0.8; stroke-linecap: square"/>
     </g>
     <g id="line2d_32">
      <g>
       <use xlink:href="#m273151a7ec" x="52.854063" y="434.103442" style="stroke: #000000; stroke-width: 0.8"/>
      </g>
     </g>
     <g id="text_17">
      <!-- 0 -->
      <g transform="translate(39.491563 437.902661) scale(0.1 -0.1)">
       <use xlink:href="#DejaVuSans-30"/>
      </g>
     </g>
    </g>
    <g id="ytick_5">
     <g id="line2d_33">
      <path d="M 52.854063 361.76342 
L 1425.514062 361.76342 
" clip-path="url(#p19e30bcaa2)" style="fill: none; stroke: #b0b0b0; stroke-opacity: 0.3; stroke-width: 0.8; stroke-linecap: square"/>
     </g>
     <g id="line2d_34">
      <g>
       <use xlink:href="#m273151a7ec" x="52.854063" y="361.76342" style="stroke: #000000; stroke-width: 0.8"/>
      </g>
     </g>
     <g id="text_18">
      <!-- 10 -->
      <g transform="translate(33.129063 365.562638) scale(0.1 -0.1)">
       <use xlink:href="#DejaVuSans-31"/>
       <use xlink:href="#DejaVuSans-30" transform="translate(63.623047 0)"/>
      </g>
     </g>
    </g>
    <g id="ytick_6">
     <g id="line2d_35">
      <path d="M 52.854063 289.423397 
L 1425.514062 289.423397 
" clip-path="url(#p19e30bcaa2)" style="fill: none; stroke: #b0b0b0; stroke-opacity: 0.3; stroke-width: 0.8; stroke-linecap: square"/>
     </g>
     <g id="line2d_36">
      <g>
       <use xlink:href="#m273151a7ec" x="52.854063" y="289.423397" style="stroke: #000000; stroke-width: 0.8"/>
      </g>
     </g>
     <g id="text_19">
      <!-- 20 -->
      <g transform="translate(33.129063 293.222616) scale(0.1 -0.1)">
       <use xlink:href="#DejaVuSans-32"/>
       <use xlink:href="#DejaVuSans-30" transform="translate(63.623047 0)"/>
      </g>
     </g>
    </g>
    <g id="ytick_7">
     <g id="line2d_37">
      <path d="M 52.854063 217.083374 
L 1425.514062 217.083374 
" clip-path="url(#p19e30bcaa2)" style="fill: none; stroke: #b0b0b0; stroke-opacity: 0.3; stroke-width: 0.8; stroke-linecap: square"/>
     </g>
     <g id="line2d_38">
      <g>
       <use xlink:href="#m273151a7ec" x="52.854063" y="217.083374" style="stroke: #000000; stroke-width: 0.8"/>
      </g>
     </g>
     <g id="text_20">
      <!-- 30 -->
      <g transform="translate(33.129063 220.882593) scale(0.1 -0.1)">
       <use xlink:href="#DejaVuSans-33"/>
       <use xlink:href="#DejaVuSans-30" transform="translate(63.623047 0)"/>
      </g>
     </g>
    </g>
    <g id="ytick_8">
     <g id="line2d_39">
      <path d="M 52.854063 144.743351 
L 1425.514062 144.743351 
" clip-path="url(#p19e30bcaa2)" style="fill: none; stroke: #b0b0b0; stroke-opacity: 0.3; stroke-width: 0.8; stroke-linecap: square"/>
     </g>
     <g id="line2d_40">
      <g>
       <use xlink:href="#m273151a7ec" x="52.854063" y="144.743351" style="stroke: #000000; stroke-width: 0.8"/>
      </g>
     </g>
     <g id="text_21">
      <!-- 40 -->
      <g transform="translate(33.129063 148.54257) scale(0.1 -0.1)">
       <defs>
        <path id="DejaVuSans-34" d="M 2419 4116 
L 825 1625 
L 2419 1625 
L 2419 4116 
z
M 2253 4666 
L 3047 4666 
L 3047 1625 
L 3713 1625 
L 3713 1100 
L 3047 1100 
L 3047 0 
L 2419 0 
L 2419 1100 
L 313 1100 
L 313 1709 
L 2253 4666 
z
" transform="scale(0.015625)"/>
       </defs>
       <use xlink:href="#DejaVuSans-34"/>
       <use xlink:href="#DejaVuSans-30" transform="translate(63.623047 0)"/>
      </g>
     </g>
    </g>
    <g id="ytick_9">
     <g id="line2d_41">
      <path d="M 52.854063 72.403329 
L 1425.514062 72.403329 
" clip-path="url(#p19e30bcaa2)" style="fill: none; stroke: #b0b0b0; stroke-opacity: 0.3; stroke-width: 0.8; stroke-linecap: square"/>
     </g>
     <g id="line2d_42">
      <g>
       <use xlink:href="#m273151a7ec" x="52.854063" y="72.403329" style="stroke: #000000; stroke-width: 0.8"/>
      </g>
     </g>
     <g id="text_22">
      <!-- 50 -->
      <g transform="translate(33.129063 76.202547) scale(0.1 -0.1)">
       <defs>
        <path id="DejaVuSans-35" d="M 691 4666 
L 3169 4666 
L 3169 4134 
L 1269 4134 
L 1269 2991 
Q 1406 3038 1543 3061 
Q 1681 3084 1819 3084 
Q 2600 3084 3056 2656 
Q 3513 2228 3513 1497 
Q 3513 744 3044 326 
Q 2575 -91 1722 -91 
Q 1428 -91 1123 -41 
Q 819 9 494 109 
L 494 744 
Q 775 591 1075 516 
Q 1375 441 1709 441 
Q 2250 441 2565 725 
Q 2881 1009 2881 1497 
Q 2881 1984 2565 2268 
Q 2250 2553 1709 2553 
Q 1456 2553 1204 2497 
Q 953 2441 691 2322 
L 691 4666 
z
" transform="scale(0.015625)"/>
       </defs>
       <use xlink:href="#DejaVuSans-35"/>
       <use xlink:href="#DejaVuSans-30" transform="translate(63.623047 0)"/>
      </g>
     </g>
    </g>
    <g id="text_23">
     <!-- Fehler (kW) [Prognose - Ist] -->
     <g transform="translate(17.837813 442.830781) rotate(-90) scale(0.14 -0.14)">
      <defs>
       <path id="DejaVuSans-68" d="M 3513 2113 
L 3513 0 
L 2938 0 
L 2938 2094 
Q 2938 2591 2744 2837 
Q 2550 3084 2163 3084 
Q 1697 3084 1428 2787 
Q 1159 2491 1159 1978 
L 1159 0 
L 581 0 
L 581 4863 
L 1159 4863 
L 1159 2956 
Q 1366 3272 1645 3428 
Q 1925 3584 2291 3584 
Q 2894 3584 3203 3211 
Q 3513 2838 3513 2113 
z
" transform="scale(0.015625)"/>
       <path id="DejaVuSans-20" transform="scale(0.015625)"/>
       <path id="DejaVuSans-28" d="M 1984 4856 
Q 1566 4138 1362 3434 
Q 1159 2731 1159 2009 
Q 1159 1288 1364 580 
Q 1569 -128 1984 -844 
L 1484 -844 
Q 1016 -109 783 600 
Q 550 1309 550 2009 
Q 550 2706 781 3412 
Q 1013 4119 1484 4856 
L 1984 4856 
z
" transform="scale(0.015625)"/>
       <path id="DejaVuSans-6b" d="M 581 4863 
L 1159 4863 
L 1159 1991 
L 2875 3500 
L 3609 3500 
L 1753 1863 
L 3688 0 
L 2938 0 
L 1159 1709 
L 1159 0 
L 581 0 
L 581 4863 
z
" transform="scale(0.015625)"/>
       <path id="DejaVuSans-57" d="M 213 4666 
L 850 4666 
L 1831 722 
L 2809 4666 
L 3519 4666 
L 4500 722 
L 5478 4666 
L 6119 4666 
L 4947 0 
L 4153 0 
L 3169 4050 
L 2175 0 
L 1381 0 
L 213 4666 
z
" transform="scale(0.015625)"/>
       <path id="DejaVuSans-29" d="M 513 4856 
L 1013 4856 
Q 1481 4119 1714 3412 
Q 1947 2706 1947 2009 
Q 1947 1309 1714 600 
Q 1481 -109 1013 -844 
L 513 -844 
Q 928 -128 1133 580 
Q 1338 1288 1338 2009 
Q 1338 2731 1133 3434 
Q 928 4138 513 4856 
z
" transform="scale(0.015625)"/>
       <path id="DejaVuSans-5b" d="M 550 4863 
L 1875 4863 
L 1875 4416 
L 1125 4416 
L 1125 -397 
L 1875 -397 
L 1875 -844 
L 550 -844 
L 550 4863 
z
" transform="scale(0.015625)"/>
       <path id="DejaVuSans-50" d="M 1259 4147 
L 1259 2394 
L 2053 2394 
Q 2494 2394 2734 2622 
Q 2975 2850 2975 3272 
Q 2975 3691 2734 3919 
Q 2494 4147 2053 4147 
L 1259 4147 
z
M 628 4666 
L 2053 4666 
Q 2838 4666 3239 4311 
Q 3641 3956 3641 3272 
Q 3641 2581 3239 2228 
Q 2838 1875 2053 1875 
L 1259 1875 
L 1259 0 
L 628 0 
L 628 4666 
z
" transform="scale(0.015625)"/>
       <path id="DejaVuSans-73" d="M 2834 3397 
L 2834 2853 
Q 2591 2978 2328 3040 
Q 2066 3103 1784 3103 
Q 1356 3103 1142 2972 
Q 928 2841 928 2578 
Q 928 2378 1081 2264 
Q 1234 2150 1697 2047 
L 1894 2003 
Q 2506 1872 2764 1633 
Q 3022 1394 3022 966 
Q 3022 478 2636 193 
Q 2250 -91 1575 -91 
Q 1294 -91 989 -36 
Q 684 19 347 128 
L 347 722 
Q 666 556 975 473 
Q 1284 391 1588 391 
Q 1994 391 2212 530 
Q 2431 669 2431 922 
Q 2431 1156 2273 1281 
Q 2116 1406 1581 1522 
L 1381 1569 
Q 847 1681 609 1914 
Q 372 2147 372 2553 
Q 372 3047 722 3315 
Q 1072 3584 1716 3584 
Q 2034 3584 2315 3537 
Q 2597 3491 2834 3397 
z
" transform="scale(0.015625)"/>
       <path id="DejaVuSans-2d" d="M 313 2009 
L 1997 2009 
L 1997 1497 
L 313 1497 
L 313 2009 
z
" transform="scale(0.015625)"/>
       <path id="DejaVuSans-49" d="M 628 4666 
L 1259 4666 
L 1259 0 
L 628 0 
L 628 4666 
z
" transform="scale(0.015625)"/>
       <path id="DejaVuSans-5d" d="M 1947 4863 
L 1947 -844 
L 622 -844 
L 622 -397 
L 1369 -397 
L 1369 4416 
L 622 4416 
L 622 4863 
L 1947 4863 
z
" transform="scale(0.015625)"/>
      </defs>
      <use xlink:href="#DejaVuSans-46"/>
      <use xlink:href="#DejaVuSans-65" transform="translate(52.019531 0)"/>
      <use xlink:href="#DejaVuSans-68" transform="translate(113.542969 0)"/>
      <use xlink:href="#DejaVuSans-6c" transform="translate(176.921875 0)"/>
      <use xlink:href="#DejaVuSans-65" transform="translate(204.705078 0)"/>
      <use xlink:href="#DejaVuSans-72" transform="translate(266.228516 0)"/>
      <use xlink:href="#DejaVuSans-20" transform="translate(307.341797 0)"/>
      <use xlink:href="#DejaVuSans-28" transform="translate(339.128906 0)"/>
      <use xlink:href="#DejaVuSans-6b" transform="translate(378.142578 0)"/>
      <use xlink:href="#DejaVuSans-57" transform="translate(436.052734 0)"/>
      <use xlink:href="#DejaVuSans-29" transform="translate(534.929688 0)"/>
      <use xlink:href="#DejaVuSans-20" transform="translate(573.943359 0)"/>
      <use xlink:href="#DejaVuSans-5b" transform="translate(605.730469 0)"/>
      <use xlink:href="#DejaVuSans-50" transform="translate(644.744141 0)"/>
      <use xlink:href="#DejaVuSans-72" transform="translate(703.296875 0)"/>
      <use xlink:href="#DejaVuSans-6f" transform="translate(742.160156 0)"/>
      <use xlink:href="#DejaVuSans-67" transform="translate(803.341797 0)"/>
      <use xlink:href="#DejaVuSans-6e" transform="translate(866.818359 0)"/>
      <use xlink:href="#DejaVuSans-6f" transform="translate(930.197266 0)"/>
      <use xlink:href="#DejaVuSans-73" transform="translate(991.378906 0)"/>
      <use xlink:href="#DejaVuSans-65" transform="translate(1043.478516 0)"/>
      <use xlink:href="#DejaVuSans-20" transform="translate(1105.001953 0)"/>
      <use xlink:href="#DejaVuSans-2d" transform="translate(1136.789062 0)"/>
      <use xlink:href="#DejaVuSans-20" transform="translate(1172.873047 0)"/>
      <use xlink:href="#DejaVuSans-49" transform="translate(1204.660156 0)"/>
      <use xlink:href="#DejaVuSans-73" transform="translate(1234.152344 0)"/>
      <use xlink:href="#DejaVuSans-74" transform="translate(1286.251953 0)"/>
      <use xlink:href="#DejaVuSans-5d" transform="translate(1325.460938 0)"/>
     </g>
    </g>
   </g>
   <g id="line2d_43">
    <path d="M 115.247699 434.103442 
L 328.365584 434.103442 
L 328.405064 434.624291 
L 354.028167 429.280774 
L 354.067648 458.216783 
L 354.107129 446.160113 
L 354.14661 395.522097 
L 354.186091 402.756099 
L 354.225571 443.748779 
L 354.304533 426.86944 
L 354.344014 405.167433 
L 354.383495 429.280774 
L 354.422976 419.635438 
L 354.541419 438.926111 
L 354.738823 417.224104 
L 354.857266 431.692108 
L 354.896747 417.744952 
L 354.936228 449.555271 
L 380.55933 434.103442 
L 380.598811 442.700373 
L 380.638292 434.103442 
L 381.309467 434.103442 
L 381.467391 436.939171 
L 407.919592 434.103442 
L 407.998554 435.366981 
L 434.332312 434.103442 
L 434.529717 439.639866 
L 460.666071 434.103442 
L 460.863476 434.103442 
L 461.06088 439.254052 
L 487.236715 434.103442 
L 487.394639 434.103442 
L 487.592043 428.446453 
L 513.728397 434.103442 
L 513.84684 434.103442 
L 513.925802 435.723859 
L 513.965283 434.476395 
L 514.004764 434.090582 
L 514.044245 434.244907 
L 514.123206 436.61123 
L 540.378003 434.103442 
L 540.575408 431.904306 
L 540.654369 427.911136 
L 566.711762 434.103442 
L 593.440329 434.103442 
L 593.558772 435.698138 
L 593.677215 440.662271 
L 593.716696 438.04517 
L 620.010973 433.949235 
L 620.089935 433.699939 
L 620.247859 437.84937 
L 646.423694 434.103442 
L 646.739541 439.422001 
L 646.779022 446.692493 
L 672.63901 434.103442 
L 673.0733 434.103442 
L 673.231223 432.367282 
L 673.310185 428.605601 
L 699.446539 434.103442 
L 699.48602 434.103442 
L 699.643944 435.240753 
L 699.683425 434.915304 
L 699.722905 435.028556 
L 699.762386 436.392299 
L 699.801867 435.000016 
L 699.841348 434.552139 
L 726.056664 434.103442 
L 726.214588 435.839603 
L 726.254069 435.434499 
L 726.293549 435.550243 
L 726.33303 433.061746 
L 726.372511 434.740035 
L 751.995614 552.28674 
L 752.114056 93.949162 
L 752.193018 413.246538 
L 752.232499 182.444419 
L 752.27198 287.056251 
L 752.350942 265.815333 
L 752.429904 136.983041 
L 752.469385 157.332652 
L 752.587827 53.300881 
L 752.627308 328.265536 
L 752.70627 132.234972 
L 752.785232 379.087022 
L 752.824713 354.917243 
L 752.864193 242.800812 
L 752.903674 378.621252 
L 778.526777 520.217006 
L 778.566258 528.309781 
L 778.763662 158.26538 
L 778.803143 444.857206 
L 778.882105 286.563409 
L 778.921586 219.646224 
L 779.000548 230.955208 
L 779.040029 266.034501 
L 779.11899 96.155498 
L 779.197952 335.775784 
L 779.237433 152.747049 
L 779.355876 506.467654 
L 779.434838 476.17934 
L 805.05794 304.30022 
L 805.176383 599.322714 
L 805.334306 290.253431 
L 805.373787 264.080825 
L 805.452749 427.207476 
L 805.49223 328.884078 
L 805.571192 344.50592 
L 805.610673 253.531643 
L 805.650153 387.887151 
L 805.689634 276.287134 
L 805.729115 220.202365 
L 805.768596 238.467372 
L 805.887039 379.78967 
L 805.92652 260.645828 
L 805.966001 489.396939 
L 831.589103 366.522049 
L 831.628584 500.565947 
L 831.707546 413.49615 
L 831.786508 432.267578 
L 831.865469 329.359126 
L 831.90495 377.081156 
L 832.062874 324.281397 
L 832.102355 322.605673 
L 832.181317 291.200238 
L 832.220797 320.298077 
L 832.260278 306.479655 
L 832.299759 286.117824 
L 832.33924 323.01676 
L 832.378721 312.45731 
L 832.457683 354.46777 
L 832.497164 347.690382 
L 858.120266 430.688993 
L 858.199228 474.282909 
L 858.238709 461.703011 
L 858.27819 467.044563 
L 858.396633 404.624158 
L 858.436113 433.366887 
L 858.475594 407.949056 
L 858.515075 425.079058 
L 858.554556 459.617387 
L 858.633518 444.481159 
L 858.751961 431.979971 
L 858.791441 432.141216 
L 858.870403 447.7218 
L 858.909884 418.908375 
L 858.988846 422.546421 
L 859.028327 447.880896 
L 884.651429 343.486052 
L 884.730391 513.988674 
L 884.769872 432.324868 
L 884.927796 340.875538 
L 884.967277 385.368686 
L 885.006757 353.501287 
L 885.046238 307.985495 
L 885.1252 343.811712 
L 885.164681 360.000583 
L 885.204162 351.340528 
L 885.243643 329.635603 
L 885.283124 330.476456 
L 885.322605 394.681475 
L 885.401566 358.993288 
L 885.441047 337.545842 
L 885.480528 413.843089 
L 885.55949 409.911501 
L 911.182592 360.272745 
L 911.222073 341.596315 
L 911.261554 389.835239 
L 911.301035 280.365833 
L 911.379997 329.709851 
L 911.419478 392.675382 
L 911.458959 360.468425 
L 911.616882 174.219185 
L 911.656363 259.284728 
L 911.735325 200.153566 
L 911.853768 111.028807 
L 911.814287 211.419222 
L 911.893249 147.194044 
L 911.93273 224.652726 
L 911.97221 155.998979 
L 912.051172 129.748984 
L 912.090653 220.175535 
L 937.713756 406.49849 
L 937.792717 377.190806 
L 937.871679 464.799416 
L 937.91116 437.784425 
L 938.029603 390.030624 
L 938.108565 385.298302 
L 938.148045 444.152216 
L 938.227007 386.75716 
L 938.266488 452.608736 
L 938.305969 385.323654 
L 938.34545 423.697593 
L 938.384931 384.604476 
L 938.424412 396.230244 
L 938.621816 556.322607 
L 964.244919 641.337244 
L 964.363361 531.426276 
L 964.402842 640.330044 
L 964.481804 385.973045 
L 964.521285 492.575197 
L 964.560766 432.399306 
L 964.639728 454.477839 
L 964.679209 457.976025 
L 964.718689 452.110297 
L 964.75817 445.60494 
L 964.797651 472.995053 
L 964.837132 471.918992 
L 964.876613 395.999966 
L 964.916094 576.071881 
L 964.955575 472.303461 
L 964.995056 386.314058 
L 965.074018 447.515844 
L 965.113498 460.719862 
L 965.152979 528.756996 
L 990.776082 413.298452 
L 990.815563 459.875592 
L 990.855044 353.115411 
L 990.894525 457.097692 
L 990.934005 467.595063 
L 991.052448 316.635285 
L 991.13141 432.161056 
L 991.249853 391.917051 
L 991.368295 302.642005 
L 991.486738 389.537548 
L 991.526219 371.455336 
L 991.5657 377.895001 
L 991.644662 352.500015 
L 991.684142 442.861075 
L 1017.307245 471.631694 
L 1017.346726 472.179972 
L 1017.425688 347.746393 
L 1017.465169 423.075135 
L 1017.583611 364.635476 
L 1017.623092 373.308559 
L 1017.702054 372.330908 
L 1017.741535 431.916985 
L 1017.781016 372.150391 
L 1017.859978 401.77693 
L 1017.899458 400.862772 
L 1017.97842 369.205782 
L 1018.017901 396.354573 
L 1018.057382 407.317877 
L 1018.096863 340.471976 
L 1018.136344 373.6048 
L 1018.215306 536.323034 
L 1043.838408 472.761951 
L 1044.075293 96.73007 
L 1044.114774 123.879787 
L 1044.154255 104.116659 
L 1044.193736 96.213477 
L 1044.233217 103.753223 
L 1044.312179 171.161586 
L 1044.430622 169.743814 
L 1044.509583 96.808746 
L 1044.628026 121.605058 
L 1044.667507 123.425851 
L 1044.706988 116.473443 
L 1044.746469 174.303024 
L 1070.369571 466.193477 
L 1070.409052 457.913112 
L 1070.448533 388.861111 
L 1070.527495 440.041306 
L 1070.606457 376.444753 
L 1070.645937 381.780819 
L 1070.685418 416.370047 
L 1070.724899 405.020562 
L 1070.76438 371.874009 
L 1070.803861 417.773243 
L 1070.843342 464.890292 
L 1070.882823 418.330236 
L 1071.001266 357.686873 
L 1071.080227 431.549984 
L 1071.119708 417.343699 
L 1071.159189 392.557072 
L 1071.277632 505.853825 
L 1096.900734 331.033378 
L 1097.019177 369.880588 
L 1097.058658 365.575367 
L 1097.098139 293.230811 
L 1097.177101 296.201088 
L 1097.256062 444.050301 
L 1097.295543 394.705186 
L 1097.374505 282.654015 
L 1097.413986 286.218662 
L 1097.453467 309.754482 
L 1097.492948 309.001693 
L 1097.57191 265.019252 
L 1097.61139 268.785094 
L 1097.729833 471.023266 
L 1097.769314 319.554872 
L 1097.808795 411.77159 
L 1123.431897 571.033418 
L 1123.510859 368.945342 
L 1123.55034 399.663482 
L 1123.589821 395.511676 
L 1123.629302 409.103704 
L 1123.668783 508.389582 
L 1123.708264 426.083175 
L 1123.866187 342.481323 
L 1123.905668 355.768891 
L 1123.98463 348.36535 
L 1124.024111 326.120288 
L 1124.063592 343.36732 
L 1124.103073 348.969907 
L 1124.142554 341.800969 
L 1124.221515 522.248689 
L 1124.260996 520.074623 
L 1124.300477 401.367825 
L 1124.339958 451.050593 
L 1149.963061 432.305578 
L 1150.002541 368.246264 
L 1150.042022 397.589536 
L 1150.120984 489.751727 
L 1150.160465 437.263706 
L 1150.199946 382.979051 
L 1150.278908 398.440096 
L 1150.318389 380.461364 
L 1150.35787 385.310058 
L 1150.436831 427.293516 
L 1150.476312 473.776631 
L 1150.515793 389.004858 
L 1150.594755 401.924882 
L 1150.673717 415.807779 
L 1150.752678 360.050277 
L 1150.83164 347.760089 
L 1150.871121 409.850313 
L 1176.494224 486.304003 
L 1176.573185 360.889857 
L 1176.612666 433.833143 
L 1176.691628 353.687336 
L 1176.77059 354.157447 
L 1176.810071 452.576572 
L 1176.889033 400.805589 
L 1177.046956 441.586621 
L 1177.125918 374.521704 
L 1177.165399 392.857436 
L 1177.20488 414.667181 
L 1177.244361 372.468209 
L 1177.283842 386.402885 
L 1177.402284 489.155043 
L 1203.025387 395.90791 
L 1203.143829 478.460578 
L 1203.222791 400.365793 
L 1203.301753 413.165649 
L 1203.341234 416.503298 
L 1203.420196 395.135612 
L 1203.499158 461.210426 
L 1203.538638 413.281489 
L 1203.578119 429.133655 
L 1203.6176 408.830215 
L 1203.696562 409.544029 
L 1203.775524 363.392933 
L 1203.933447 453.388465 
L 1229.55655 395.213446 
L 1229.674993 448.339959 
L 1229.714473 440.706945 
L 1229.753954 423.029745 
L 1229.832916 428.029217 
L 1229.911878 457.199297 
L 1229.951359 435.750155 
L 1230.030321 409.39273 
L 1230.069802 424.392912 
L 1230.109282 431.036225 
L 1230.148763 493.253133 
L 1230.188244 441.885254 
L 1230.267206 416.351201 
L 1230.306687 447.237039 
L 1230.346168 443.004603 
L 1230.42513 412.645874 
L 1230.464611 443.015733 
L 1256.087713 430.949417 
L 1256.166675 390.680428 
L 1256.206156 446.121047 
L 1256.285118 403.164578 
L 1256.324598 407.413831 
L 1256.40356 524.711924 
L 1256.443041 433.183663 
L 1256.482522 385.221069 
L 1256.561484 423.157047 
L 1256.600965 410.171723 
L 1256.640446 435.378941 
L 1256.679926 431.117246 
L 1256.719407 408.897865 
L 1256.758888 438.914151 
L 1256.798369 486.263106 
L 1256.877331 484.604301 
L 1256.995774 410.601326 
L 1282.618876 515.03746 
L 1282.7768 422.354518 
L 1282.855762 393.665515 
L 1282.895242 397.201101 
L 1282.974204 389.322802 
L 1283.053166 428.498056 
L 1283.092647 435.785132 
L 1283.132128 424.661771 
L 1283.25057 404.618548 
L 1283.329532 407.47856 
L 1283.447975 448.39758 
L 1283.487456 474.996381 
L 1283.526937 450.347117 
L 1309.150039 304.354378 
L 1309.268482 488.078142 
L 1309.307963 455.510664 
L 1309.347444 446.784648 
L 1309.386925 459.124048 
L 1309.426406 448.911445 
L 1309.544848 460.30319 
L 1309.584329 491.63908 
L 1309.62381 454.39301 
L 1309.663291 484.45029 
L 1309.742253 425.690298 
L 1309.781734 454.038544 
L 1309.821215 458.255968 
L 1309.860695 588.959921 
L 1309.900176 482.030516 
L 1309.979138 448.309214 
L 1310.018619 472.089188 
L 1310.0581 487.627825 
L 1335.681202 442.063483 
L 1335.760164 425.7502 
L 1335.799645 445.775526 
L 1335.839126 435.240663 
L 1335.878607 411.327252 
L 1335.918088 436.792266 
L 1335.957569 418.281916 
L 1336.03653 404.144319 
L 1336.076011 458.517466 
L 1336.154973 424.816976 
L 1336.194454 427.19278 
L 1336.312897 412.387464 
L 1336.352378 418.720835 
L 1336.391859 476.445807 
L 1336.431339 381.555277 
L 1336.589263 436.875529 
L 1362.212365 498.905797 
L 1362.330808 429.269771 
L 1362.370289 433.168941 
L 1362.40977 427.263694 
L 1362.449251 422.572443 
L 1362.488732 443.724665 
L 1362.567694 435.579178 
L 1362.607174 447.356134 
L 1362.646655 428.102839 
L 1362.765098 435.781731 
L 1362.84406 417.700344 
L 1362.883541 437.633636 
L 1362.923022 420.70607 
L 1362.962503 417.239548 
L 1363.041464 414.950669 
L 1363.080945 450.212982 
L 1363.120426 420.189223 
L 1363.120426 420.189223 
" clip-path="url(#p19e30bcaa2)" style="fill: none; stroke: #00008b; stroke-opacity: 0.7; stroke-width: 0.5; stroke-linecap: square"/>
   </g>
   <g id="line2d_44">
    <path d="M 52.854063 434.103442 
L 1425.514062 434.103442 
" clip-path="url(#p19e30bcaa2)" style="fill: none; stroke: #000000; stroke-linecap: square"/>
   </g>
   <g id="patch_3">
    <path d="M 52.854063 670.739062 
L 52.854063 23.899062 
" style="fill: none; stroke: #000000; stroke-width: 0.8; stroke-linejoin: miter; stroke-linecap: square"/>
   </g>
   <g id="patch_4">
    <path d="M 1425.514062 670.739062 
L 1425.514062 23.899062 
" style="fill: none; stroke: #000000; stroke-width: 0.8; stroke-linejoin: miter; stroke-linecap: square"/>
   </g>
   <g id="patch_5">
    <path d="M 52.854063 670.739062 
L 1425.514062 670.739062 
" style="fill: none; stroke: #000000; stroke-width: 0.8; stroke-linejoin: miter; stroke-linecap: square"/>
   </g>
   <g id="patch_6">
    <path d="M 52.854063 23.899062 
L 1425.514062 23.899062 
" style="fill: none; stroke: #000000; stroke-width: 0.8; stroke-linejoin: miter; stroke-linecap: square"/>
   </g>
   <g id="text_24">
    <!-- Vorhersagefehler 2016 (Stündlich) - RMSE: 10.56 kW | NRMSE: 44.8% | MAPE: 21.3% | Pearson: 0.827 -->
    <g transform="translate(383.309531 17.899062) scale(0.14 -0.14)">
     <defs>
      <path id="DejaVuSans-56" d="M 1831 0 
L 50 4666 
L 709 4666 
L 2188 738 
L 3669 4666 
L 4325 4666 
L 2547 0 
L 1831 0 
z
" transform="scale(0.015625)"/>
      <path id="DejaVuSans-66" d="M 2375 4863 
L 2375 4384 
L 1825 4384 
Q 1516 4384 1395 4259 
Q 1275 4134 1275 3809 
L 1275 3500 
L 2222 3500 
L 2222 3053 
L 1275 3053 
L 1275 0 
L 697 0 
L 697 3053 
L 147 3053 
L 147 3500 
L 697 3500 
L 697 3744 
Q 697 4328 969 4595 
Q 1241 4863 1831 4863 
L 2375 4863 
z
" transform="scale(0.015625)"/>
      <path id="DejaVuSans-36" d="M 2113 2584 
Q 1688 2584 1439 2293 
Q 1191 2003 1191 1497 
Q 1191 994 1439 701 
Q 1688 409 2113 409 
Q 2538 409 2786 701 
Q 3034 994 3034 1497 
Q 3034 2003 2786 2293 
Q 2538 2584 2113 2584 
z
M 3366 4563 
L 3366 3988 
Q 3128 4100 2886 4159 
Q 2644 4219 2406 4219 
Q 1781 4219 1451 3797 
Q 1122 3375 1075 2522 
Q 1259 2794 1537 2939 
Q 1816 3084 2150 3084 
Q 2853 3084 3261 2657 
Q 3669 2231 3669 1497 
Q 3669 778 3244 343 
Q 2819 -91 2113 -91 
Q 1303 -91 875 529 
Q 447 1150 447 2328 
Q 447 3434 972 4092 
Q 1497 4750 2381 4750 
Q 2619 4750 2861 4703 
Q 3103 4656 3366 4563 
z
" transform="scale(0.015625)"/>
      <path id="DejaVuSans-fc" d="M 544 1381 
L 544 3500 
L 1119 3500 
L 1119 1403 
Q 1119 906 1312 657 
Q 1506 409 1894 409 
Q 2359 409 2629 706 
Q 2900 1003 2900 1516 
L 2900 3500 
L 3475 3500 
L 3475 0 
L 2900 0 
L 2900 538 
Q 2691 219 2414 64 
Q 2138 -91 1772 -91 
Q 1169 -91 856 284 
Q 544 659 544 1381 
z
M 1991 3584 
L 1991 3584 
z
M 2278 4850 
L 2912 4850 
L 2912 4219 
L 2278 4219 
L 2278 4850 
z
M 1056 4850 
L 1690 4850 
L 1690 4219 
L 1056 4219 
L 1056 4850 
z
" transform="scale(0.015625)"/>
      <path id="DejaVuSans-64" d="M 2906 2969 
L 2906 4863 
L 3481 4863 
L 3481 0 
L 2906 0 
L 2906 525 
Q 2725 213 2448 61 
Q 2172 -91 1784 -91 
Q 1150 -91 751 415 
Q 353 922 353 1747 
Q 353 2572 751 3078 
Q 1150 3584 1784 3584 
Q 2172 3584 2448 3432 
Q 2725 3281 2906 2969 
z
M 947 1747 
Q 947 1113 1208 752 
Q 1469 391 1925 391 
Q 2381 391 2643 752 
Q 2906 1113 2906 1747 
Q 2906 2381 2643 2742 
Q 2381 3103 1925 3103 
Q 1469 3103 1208 2742 
Q 947 2381 947 1747 
z
" transform="scale(0.015625)"/>
      <path id="DejaVuSans-69" d="M 603 3500 
L 1178 3500 
L 1178 0 
L 603 0 
L 603 3500 
z
M 603 4863 
L 1178 4863 
L 1178 4134 
L 603 4134 
L 603 4863 
z
" transform="scale(0.015625)"/>
      <path id="DejaVuSans-52" d="M 2841 2188 
Q 3044 2119 3236 1894 
Q 3428 1669 3622 1275 
L 4263 0 
L 3584 0 
L 2988 1197 
Q 2756 1666 2539 1819 
Q 2322 1972 1947 1972 
L 1259 1972 
L 1259 0 
L 628 0 
L 628 4666 
L 2053 4666 
Q 2853 4666 3247 4331 
Q 3641 3997 3641 3322 
Q 3641 2881 3436 2590 
Q 3231 2300 2841 2188 
z
M 1259 4147 
L 1259 2491 
L 2053 2491 
Q 2509 2491 2742 2702 
Q 2975 2913 2975 3322 
Q 2975 3731 2742 3939 
Q 2509 4147 2053 4147 
L 1259 4147 
z
" transform="scale(0.015625)"/>
      <path id="DejaVuSans-45" d="M 628 4666 
L 3578 4666 
L 3578 4134 
L 1259 4134 
L 1259 2753 
L 3481 2753 
L 3481 2222 
L 1259 2222 
L 1259 531 
L 3634 531 
L 3634 0 
L 628 0 
L 628 4666 
z
" transform="scale(0.015625)"/>
      <path id="DejaVuSans-3a" d="M 750 794 
L 1409 794 
L 1409 0 
L 750 0 
L 750 794 
z
M 750 3309 
L 1409 3309 
L 1409 2516 
L 750 2516 
L 750 3309 
z
" transform="scale(0.015625)"/>
      <path id="DejaVuSans-2e" d="M 684 794 
L 1344 794 
L 1344 0 
L 684 0 
L 684 794 
z
" transform="scale(0.015625)"/>
      <path id="DejaVuSans-7c" d="M 1344 4891 
L 1344 -1509 
L 813 -1509 
L 813 4891 
L 1344 4891 
z
" transform="scale(0.015625)"/>
      <path id="DejaVuSans-38" d="M 2034 2216 
Q 1584 2216 1326 1975 
Q 1069 1734 1069 1313 
Q 1069 891 1326 650 
Q 1584 409 2034 409 
Q 2484 409 2743 651 
Q 3003 894 3003 1313 
Q 3003 1734 2745 1975 
Q 2488 2216 2034 2216 
z
M 1403 2484 
Q 997 2584 770 2862 
Q 544 3141 544 3541 
Q 544 4100 942 4425 
Q 1341 4750 2034 4750 
Q 2731 4750 3128 4425 
Q 3525 4100 3525 3541 
Q 3525 3141 3298 2862 
Q 3072 2584 2669 2484 
Q 3125 2378 3379 2068 
Q 3634 1759 3634 1313 
Q 3634 634 3220 271 
Q 2806 -91 2034 -91 
Q 1263 -91 848 271 
Q 434 634 434 1313 
Q 434 1759 690 2068 
Q 947 2378 1403 2484 
z
M 1172 3481 
Q 1172 3119 1398 2916 
Q 1625 2713 2034 2713 
Q 2441 2713 2670 2916 
Q 2900 3119 2900 3481 
Q 2900 3844 2670 4047 
Q 2441 4250 2034 4250 
Q 1625 4250 1398 4047 
Q 1172 3844 1172 3481 
z
" transform="scale(0.015625)"/>
      <path id="DejaVuSans-25" d="M 4653 2053 
Q 4381 2053 4226 1822 
Q 4072 1591 4072 1178 
Q 4072 772 4226 539 
Q 4381 306 4653 306 
Q 4919 306 5073 539 
Q 5228 772 5228 1178 
Q 5228 1588 5073 1820 
Q 4919 2053 4653 2053 
z
M 4653 2450 
Q 5147 2450 5437 2106 
Q 5728 1763 5728 1178 
Q 5728 594 5436 251 
Q 5144 -91 4653 -91 
Q 4153 -91 3862 251 
Q 3572 594 3572 1178 
Q 3572 1766 3864 2108 
Q 4156 2450 4653 2450 
z
M 1428 4353 
Q 1159 4353 1004 4120 
Q 850 3888 850 3481 
Q 850 3069 1003 2837 
Q 1156 2606 1428 2606 
Q 1700 2606 1854 2837 
Q 2009 3069 2009 3481 
Q 2009 3884 1853 4118 
Q 1697 4353 1428 4353 
z
M 4250 4750 
L 4750 4750 
L 1831 -91 
L 1331 -91 
L 4250 4750 
z
M 1428 4750 
Q 1922 4750 2215 4408 
Q 2509 4066 2509 3481 
Q 2509 2891 2217 2550 
Q 1925 2209 1428 2209 
Q 931 2209 642 2551 
Q 353 2894 353 3481 
Q 353 4063 643 4406 
Q 934 4750 1428 4750 
z
" transform="scale(0.015625)"/>
      <path id="DejaVuSans-37" d="M 525 4666 
L 3525 4666 
L 3525 4397 
L 1831 0 
L 1172 0 
L 2766 4134 
L 525 4134 
L 525 4666 
z
" transform="scale(0.015625)"/>
     </defs>
     <use xlink:href="#DejaVuSans-56"/>
     <use xlink:href="#DejaVuSans-6f" transform="translate(60.658203 0)"/>
     <use xlink:href="#DejaVuSans-72" transform="translate(121.839844 0)"/>
     <use xlink:href="#DejaVuSans-68" transform="translate(161.203125 0)"/>
     <use xlink:href="#DejaVuSans-65" transform="translate(224.582031 0)"/>
     <use xlink:href="#DejaVuSans-72" transform="translate(286.105469 0)"/>
     <use xlink:href="#DejaVuSans-73" transform="translate(327.21875 0)"/>
     <use xlink:href="#DejaVuSans-61" transform="translate(379.318359 0)"/>
     <use xlink:href="#DejaVuSans-67" transform="translate(440.597656 0)"/>
     <use xlink:href="#DejaVuSans-65" transform="translate(504.074219 0)"/>
     <use xlink:href="#DejaVuSans-66" transform="translate(565.597656 0)"/>
     <use xlink:href="#DejaVuSans-65" transform="translate(600.802734 0)"/>
     <use xlink:href="#DejaVuSans-68" transform="translate(662.326172 0)"/>
     <use xlink:href="#DejaVuSans-6c" transform="translate(725.705078 0)"/>
     <use xlink:href="#DejaVuSans-65" transform="translate(753.488281 0)"/>
     <use xlink:href="#DejaVuSans-72" transform="translate(815.011719 0)"/>
     <use xlink:href="#DejaVuSans-20" transform="translate(856.125 0)"/>
     <use xlink:href="#DejaVuSans-32" transform="translate(887.912109 0)"/>
     <use xlink:href="#DejaVuSans-30" transform="translate(951.535156 0)"/>
     <use xlink:href="#DejaVuSans-31" transform="translate(1015.158203 0)"/>
     <use xlink:href="#DejaVuSans-36" transform="translate(1078.78125 0)"/>
     <use xlink:href="#DejaVuSans-20" transform="translate(1142.404297 0)"/>
     <use xlink:href="#DejaVuSans-28" transform="translate(1174.191406 0)"/>
     <use xlink:href="#DejaVuSans-53" transform="translate(1213.205078 0)"/>
     <use xlink:href="#DejaVuSans-74" transform="translate(1276.681641 0)"/>
     <use xlink:href="#DejaVuSans-fc" transform="translate(1315.890625 0)"/>
     <use xlink:href="#DejaVuSans-6e" transform="translate(1379.269531 0)"/>
     <use xlink:href="#DejaVuSans-64" transform="translate(1442.648438 0)"/>
     <use xlink:href="#DejaVuSans-6c" transform="translate(1506.125 0)"/>
     <use xlink:href="#DejaVuSans-69" transform="translate(1533.908203 0)"/>
     <use xlink:href="#DejaVuSans-63" transform="translate(1561.691406 0)"/>
     <use xlink:href="#DejaVuSans-68" transform="translate(1616.671875 0)"/>
     <use xlink:href="#DejaVuSans-29" transform="translate(1680.050781 0)"/>
     <use xlink:href="#DejaVuSans-20" transform="translate(1719.064453 0)"/>
     <use xlink:href="#DejaVuSans-2d" transform="translate(1750.851562 0)"/>
     <use xlink:href="#DejaVuSans-20" transform="translate(1786.935547 0)"/>
     <use xlink:href="#DejaVuSans-52" transform="translate(1818.722656 0)"/>
     <use xlink:href="#DejaVuSans-4d" transform="translate(1888.205078 0)"/>
     <use xlink:href="#DejaVuSans-53" transform="translate(1974.484375 0)"/>
     <use xlink:href="#DejaVuSans-45" transform="translate(2037.960938 0)"/>
     <use xlink:href="#DejaVuSans-3a" transform="translate(2101.144531 0)"/>
     <use xlink:href="#DejaVuSans-20" transform="translate(2134.835938 0)"/>
     <use xlink:href="#DejaVuSans-31" transform="translate(2166.623047 0)"/>
     <use xlink:href="#DejaVuSans-30" transform="translate(2230.246094 0)"/>
     <use xlink:href="#DejaVuSans-2e" transform="translate(2293.869141 0)"/>
     <use xlink:href="#DejaVuSans-35" transform="translate(2325.65625 0)"/>
     <use xlink:href="#DejaVuSans-36" transform="translate(2389.279297 0)"/>
     <use xlink:href="#DejaVuSans-20" transform="translate(2452.902344 0)"/>
     <use xlink:href="#DejaVuSans-6b" transform="translate(2484.689453 0)"/>
     <use xlink:href="#DejaVuSans-57" transform="translate(2542.599609 0)"/>
     <use xlink:href="#DejaVuSans-20" transform="translate(2641.476562 0)"/>
     <use xlink:href="#DejaVuSans-7c" transform="translate(2673.263672 0)"/>
     <use xlink:href="#DejaVuSans-20" transform="translate(2706.955078 0)"/>
     <use xlink:href="#DejaVuSans-4e" transform="translate(2738.742188 0)"/>
     <use xlink:href="#DejaVuSans-52" transform="translate(2813.546875 0)"/>
     <use xlink:href="#DejaVuSans-4d" transform="translate(2883.029297 0)"/>
     <use xlink:href="#DejaVuSans-53" transform="translate(2969.308594 0)"/>
     <use xlink:href="#DejaVuSans-45" transform="translate(3032.785156 0)"/>
     <use xlink:href="#DejaVuSans-3a" transform="translate(3095.96875 0)"/>
     <use xlink:href="#DejaVuSans-20" transform="translate(3129.660156 0)"/>
     <use xlink:href="#DejaVuSans-34" transform="translate(3161.447266 0)"/>
     <use xlink:href="#DejaVuSans-34" transform="translate(3225.070312 0)"/>
     <use xlink:href="#DejaVuSans-2e" transform="translate(3288.693359 0)"/>
     <use xlink:href="#DejaVuSans-38" transform="translate(3320.480469 0)"/>
     <use xlink:href="#DejaVuSans-25" transform="translate(3384.103516 0)"/>
     <use xlink:href="#DejaVuSans-20" transform="translate(3479.123047 0)"/>
     <use xlink:href="#DejaVuSans-7c" transform="translate(3510.910156 0)"/>
     <use xlink:href="#DejaVuSans-20" transform="translate(3544.601562 0)"/>
     <use xlink:href="#DejaVuSans-4d" transform="translate(3576.388672 0)"/>
     <use xlink:href="#DejaVuSans-41" transform="translate(3662.667969 0)"/>
     <use xlink:href="#DejaVuSans-50" transform="translate(3731.076172 0)"/>
     <use xlink:href="#DejaVuSans-45" transform="translate(3791.378906 0)"/>
     <use xlink:href="#DejaVuSans-3a" transform="translate(3854.5625 0)"/>
     <use xlink:href="#DejaVuSans-20" transform="translate(3888.253906 0)"/>
     <use xlink:href="#DejaVuSans-32" transform="translate(3920.041016 0)"/>
     <use xlink:href="#DejaVuSans-31" transform="translate(3983.664062 0)"/>
     <use xlink:href="#DejaVuSans-2e" transform="translate(4047.287109 0)"/>
     <use xlink:href="#DejaVuSans-33" transform="translate(4079.074219 0)"/>
     <use xlink:href="#DejaVuSans-25" transform="translate(4142.697266 0)"/>
     <use xlink:href="#DejaVuSans-20" transform="translate(4237.716797 0)"/>
     <use xlink:href="#DejaVuSans-7c" transform="translate(4269.503906 0)"/>
     <use xlink:href="#DejaVuSans-20" transform="translate(4303.195312 0)"/>
     <use xlink:href="#DejaVuSans-50" transform="translate(4334.982422 0)"/>
     <use xlink:href="#DejaVuSans-65" transform="translate(4391.660156 0)"/>
     <use xlink:href="#DejaVuSans-61" transform="translate(4453.183594 0)"/>
     <use xlink:href="#DejaVuSans-72" transform="translate(4514.462891 0)"/>
     <use xlink:href="#DejaVuSans-73" transform="translate(4555.576172 0)"/>
     <use xlink:href="#DejaVuSans-6f" transform="translate(4607.675781 0)"/>
     <use xlink:href="#DejaVuSans-6e" transform="translate(4668.857422 0)"/>
     <use xlink:href="#DejaVuSans-3a" transform="translate(4732.236328 0)"/>
     <use xlink:href="#DejaVuSans-20" transform="translate(4765.927734 0)"/>
     <use xlink:href="#DejaVuSans-30" transform="translate(4797.714844 0)"/>
     <use xlink:href="#DejaVuSans-2e" transform="translate(4861.337891 0)"/>
     <use xlink:href="#DejaVuSans-38" transform="translate(4893.125 0)"/>
     <use xlink:href="#DejaVuSans-32" transform="translate(4956.748047 0)"/>
     <use xlink:href="#DejaVuSans-37" transform="translate(5020.371094 0)"/>
    </g>
   </g>
  </g>
 </g>
 <defs>
  <clipPath id="p19e30bcaa2">
   <rect x="52.854063" y="23.899062" width="1372.66" height="646.84"/>
  </clipPath>
 </defs>
</svg>
