<?xml version="1.0" encoding="utf-8" standalone="no"?>
<!DOCTYPE svg PUBLIC "-//W3C//DTD SVG 1.1//EN"
  "http://www.w3.org/Graphics/SVG/1.1/DTD/svg11.dtd">
<svg xmlns:xlink="http://www.w3.org/1999/xlink" width="1432.742187pt" height="712.166562pt" viewBox="0 0 1432.742187 712.166562" xmlns="http://www.w3.org/2000/svg" version="1.1">
 <metadata>
  <rdf:RDF xmlns:dc="http://purl.org/dc/elements/1.1/" xmlns:cc="http://creativecommons.org/ns#" xmlns:rdf="http://www.w3.org/1999/02/22-rdf-syntax-ns#">
   <cc:Work>
    <dc:type rdf:resource="http://purl.org/dc/dcmitype/StillImage"/>
    <dc:date>2025-12-10T14:16:50.230582</dc:date>
    <dc:format>image/svg+xml</dc:format>
    <dc:creator>
     <cc:Agent>
      <dc:title>Matplotlib v3.10.7, https://matplotlib.org/</dc:title>
     </cc:Agent>
    </dc:creator>
   </cc:Work>
  </rdf:RDF>
 </metadata>
 <defs>
  <style type="text/css">*{stroke-linejoin: round; stroke-linecap: butt}</style>
 </defs>
 <g id="figure_1">
  <g id="patch_1">
   <path d="M 0 712.166562 
L 1432.742187 712.166562 
L 1432.742187 0 
L 0 0 
z
" style="fill: #ffffff"/>
  </g>
  <g id="axes_1">
   <g id="patch_2">
    <path d="M 56.032188 670.739062 
L 1425.542187 670.739062 
L 1425.542187 23.899062 
L 56.032188 23.899062 
z
" style="fill: #ffffff"/>
   </g>
   <g id="matplotlib.axis_1">
    <g id="xtick_1">
     <g id="line2d_1">
      <path d="M 118.282642 670.739062 
L 118.282642 23.899062 
" clip-path="url(#p01b1bb0c76)" style="fill: none; stroke: #b0b0b0; stroke-opacity: 0.3; stroke-width: 0.8; stroke-linecap: square"/>
     </g>
     <g id="line2d_2">
      <defs>
       <path id="m16261c693c" d="M 0 0 
L 0 3.5 
" style="stroke: #000000; stroke-width: 0.8"/>
      </defs>
      <g>
       <use xlink:href="#m16261c693c" x="118.282642" y="670.739062" style="stroke: #000000; stroke-width: 0.8"/>
      </g>
     </g>
     <g id="text_1">
      <!-- Feb -->
      <g transform="translate(109.43108 685.3375) scale(0.1 -0.1)">
       <defs>
        <path id="DejaVuSans-46" d="M 628 4666 
L 3309 4666 
L 3309 4134 
L 1259 4134 
L 1259 2759 
L 3109 2759 
L 3109 2228 
L 1259 2228 
L 1259 0 
L 628 0 
L 628 4666 
z
" transform="scale(0.015625)"/>
        <path id="DejaVuSans-65" d="M 3597 1894 
L 3597 1613 
L 953 1613 
Q 991 1019 1311 708 
Q 1631 397 2203 397 
Q 2534 397 2845 478 
Q 3156 559 3463 722 
L 3463 178 
Q 3153 47 2828 -22 
Q 2503 -91 2169 -91 
Q 1331 -91 842 396 
Q 353 884 353 1716 
Q 353 2575 817 3079 
Q 1281 3584 2069 3584 
Q 2775 3584 3186 3129 
Q 3597 2675 3597 1894 
z
M 3022 2063 
Q 3016 2534 2758 2815 
Q 2500 3097 2075 3097 
Q 1594 3097 1305 2825 
Q 1016 2553 972 2059 
L 3022 2063 
z
" transform="scale(0.015625)"/>
        <path id="DejaVuSans-62" d="M 3116 1747 
Q 3116 2381 2855 2742 
Q 2594 3103 2138 3103 
Q 1681 3103 1420 2742 
Q 1159 2381 1159 1747 
Q 1159 1113 1420 752 
Q 1681 391 2138 391 
Q 2594 391 2855 752 
Q 3116 1113 3116 1747 
z
M 1159 2969 
Q 1341 3281 1617 3432 
Q 1894 3584 2278 3584 
Q 2916 3584 3314 3078 
Q 3713 2572 3713 1747 
Q 3713 922 3314 415 
Q 2916 -91 2278 -91 
Q 1894 -91 1617 61 
Q 1341 213 1159 525 
L 1159 0 
L 581 0 
L 581 4863 
L 1159 4863 
L 1159 2969 
z
" transform="scale(0.015625)"/>
       </defs>
       <use xlink:href="#DejaVuSans-46"/>
       <use xlink:href="#DejaVuSans-65" transform="translate(52.019531 0)"/>
       <use xlink:href="#DejaVuSans-62" transform="translate(113.542969 0)"/>
      </g>
     </g>
    </g>
    <g id="xtick_2">
     <g id="line2d_3">
      <path d="M 227.945227 670.739062 
L 227.945227 23.899062 
" clip-path="url(#p01b1bb0c76)" style="fill: none; stroke: #b0b0b0; stroke-opacity: 0.3; stroke-width: 0.8; stroke-linecap: square"/>
     </g>
     <g id="line2d_4">
      <g>
       <use xlink:href="#m16261c693c" x="227.945227" y="670.739062" style="stroke: #000000; stroke-width: 0.8"/>
      </g>
     </g>
     <g id="text_2">
      <!-- Mar -->
      <g transform="translate(218.511633 685.3375) scale(0.1 -0.1)">
       <defs>
        <path id="DejaVuSans-4d" d="M 628 4666 
L 1569 4666 
L 2759 1491 
L 3956 4666 
L 4897 4666 
L 4897 0 
L 4281 0 
L 4281 4097 
L 3078 897 
L 2444 897 
L 1241 4097 
L 1241 0 
L 628 0 
L 628 4666 
z
" transform="scale(0.015625)"/>
        <path id="DejaVuSans-61" d="M 2194 1759 
Q 1497 1759 1228 1600 
Q 959 1441 959 1056 
Q 959 750 1161 570 
Q 1363 391 1709 391 
Q 2188 391 2477 730 
Q 2766 1069 2766 1631 
L 2766 1759 
L 2194 1759 
z
M 3341 1997 
L 3341 0 
L 2766 0 
L 2766 531 
Q 2569 213 2275 61 
Q 1981 -91 1556 -91 
Q 1019 -91 701 211 
Q 384 513 384 1019 
Q 384 1609 779 1909 
Q 1175 2209 1959 2209 
L 2766 2209 
L 2766 2266 
Q 2766 2663 2505 2880 
Q 2244 3097 1772 3097 
Q 1472 3097 1187 3025 
Q 903 2953 641 2809 
L 641 3341 
Q 956 3463 1253 3523 
Q 1550 3584 1831 3584 
Q 2591 3584 2966 3190 
Q 3341 2797 3341 1997 
z
" transform="scale(0.015625)"/>
        <path id="DejaVuSans-72" d="M 2631 2963 
Q 2534 3019 2420 3045 
Q 2306 3072 2169 3072 
Q 1681 3072 1420 2755 
Q 1159 2438 1159 1844 
L 1159 0 
L 581 0 
L 581 3500 
L 1159 3500 
L 1159 2956 
Q 1341 3275 1631 3429 
Q 1922 3584 2338 3584 
Q 2397 3584 2469 3576 
Q 2541 3569 2628 3553 
L 2631 2963 
z
" transform="scale(0.015625)"/>
       </defs>
       <use xlink:href="#DejaVuSans-4d"/>
       <use xlink:href="#DejaVuSans-61" transform="translate(86.279297 0)"/>
       <use xlink:href="#DejaVuSans-72" transform="translate(147.558594 0)"/>
      </g>
     </g>
    </g>
    <g id="xtick_3">
     <g id="line2d_5">
      <path d="M 345.170748 670.739062 
L 345.170748 23.899062 
" clip-path="url(#p01b1bb0c76)" style="fill: none; stroke: #b0b0b0; stroke-opacity: 0.3; stroke-width: 0.8; stroke-linecap: square"/>
     </g>
     <g id="line2d_6">
      <g>
       <use xlink:href="#m16261c693c" x="345.170748" y="670.739062" style="stroke: #000000; stroke-width: 0.8"/>
      </g>
     </g>
     <g id="text_3">
      <!-- Apr -->
      <g transform="translate(336.520748 685.3375) scale(0.1 -0.1)">
       <defs>
        <path id="DejaVuSans-41" d="M 2188 4044 
L 1331 1722 
L 3047 1722 
L 2188 4044 
z
M 1831 4666 
L 2547 4666 
L 4325 0 
L 3669 0 
L 3244 1197 
L 1141 1197 
L 716 0 
L 50 0 
L 1831 4666 
z
" transform="scale(0.015625)"/>
        <path id="DejaVuSans-70" d="M 1159 525 
L 1159 -1331 
L 581 -1331 
L 581 3500 
L 1159 3500 
L 1159 2969 
Q 1341 3281 1617 3432 
Q 1894 3584 2278 3584 
Q 2916 3584 3314 3078 
Q 3713 2572 3713 1747 
Q 3713 922 3314 415 
Q 2916 -91 2278 -91 
Q 1894 -91 1617 61 
Q 1341 213 1159 525 
z
M 3116 1747 
Q 3116 2381 2855 2742 
Q 2594 3103 2138 3103 
Q 1681 3103 1420 2742 
Q 1159 2381 1159 1747 
Q 1159 1113 1420 752 
Q 1681 391 2138 391 
Q 2594 391 2855 752 
Q 3116 1113 3116 1747 
z
" transform="scale(0.015625)"/>
       </defs>
       <use xlink:href="#DejaVuSans-41"/>
       <use xlink:href="#DejaVuSans-70" transform="translate(68.408203 0)"/>
       <use xlink:href="#DejaVuSans-72" transform="translate(131.884766 0)"/>
      </g>
     </g>
    </g>
    <g id="xtick_4">
     <g id="line2d_7">
      <path d="M 458.614801 670.739062 
L 458.614801 23.899062 
" clip-path="url(#p01b1bb0c76)" style="fill: none; stroke: #b0b0b0; stroke-opacity: 0.3; stroke-width: 0.8; stroke-linecap: square"/>
     </g>
     <g id="line2d_8">
      <g>
       <use xlink:href="#m16261c693c" x="458.614801" y="670.739062" style="stroke: #000000; stroke-width: 0.8"/>
      </g>
     </g>
     <g id="text_4">
      <!-- May -->
      <g transform="translate(448.277301 685.3375) scale(0.1 -0.1)">
       <defs>
        <path id="DejaVuSans-79" d="M 2059 -325 
Q 1816 -950 1584 -1140 
Q 1353 -1331 966 -1331 
L 506 -1331 
L 506 -850 
L 844 -850 
Q 1081 -850 1212 -737 
Q 1344 -625 1503 -206 
L 1606 56 
L 191 3500 
L 800 3500 
L 1894 763 
L 2988 3500 
L 3597 3500 
L 2059 -325 
z
" transform="scale(0.015625)"/>
       </defs>
       <use xlink:href="#DejaVuSans-4d"/>
       <use xlink:href="#DejaVuSans-61" transform="translate(86.279297 0)"/>
       <use xlink:href="#DejaVuSans-79" transform="translate(147.558594 0)"/>
      </g>
     </g>
    </g>
    <g id="xtick_5">
     <g id="line2d_9">
      <path d="M 575.840322 670.739062 
L 575.840322 23.899062 
" clip-path="url(#p01b1bb0c76)" style="fill: none; stroke: #b0b0b0; stroke-opacity: 0.3; stroke-width: 0.8; stroke-linecap: square"/>
     </g>
     <g id="line2d_10">
      <g>
       <use xlink:href="#m16261c693c" x="575.840322" y="670.739062" style="stroke: #000000; stroke-width: 0.8"/>
      </g>
     </g>
     <g id="text_5">
      <!-- Jun -->
      <g transform="translate(568.027822 685.3375) scale(0.1 -0.1)">
       <defs>
        <path id="DejaVuSans-4a" d="M 628 4666 
L 1259 4666 
L 1259 325 
Q 1259 -519 939 -900 
Q 619 -1281 -91 -1281 
L -331 -1281 
L -331 -750 
L -134 -750 
Q 284 -750 456 -515 
Q 628 -281 628 325 
L 628 4666 
z
" transform="scale(0.015625)"/>
        <path id="DejaVuSans-75" d="M 544 1381 
L 544 3500 
L 1119 3500 
L 1119 1403 
Q 1119 906 1312 657 
Q 1506 409 1894 409 
Q 2359 409 2629 706 
Q 2900 1003 2900 1516 
L 2900 3500 
L 3475 3500 
L 3475 0 
L 2900 0 
L 2900 538 
Q 2691 219 2414 64 
Q 2138 -91 1772 -91 
Q 1169 -91 856 284 
Q 544 659 544 1381 
z
M 1991 3584 
L 1991 3584 
z
" transform="scale(0.015625)"/>
        <path id="DejaVuSans-6e" d="M 3513 2113 
L 3513 0 
L 2938 0 
L 2938 2094 
Q 2938 2591 2744 2837 
Q 2550 3084 2163 3084 
Q 1697 3084 1428 2787 
Q 1159 2491 1159 1978 
L 1159 0 
L 581 0 
L 581 3500 
L 1159 3500 
L 1159 2956 
Q 1366 3272 1645 3428 
Q 1925 3584 2291 3584 
Q 2894 3584 3203 3211 
Q 3513 2838 3513 2113 
z
" transform="scale(0.015625)"/>
       </defs>
       <use xlink:href="#DejaVuSans-4a"/>
       <use xlink:href="#DejaVuSans-75" transform="translate(29.492188 0)"/>
       <use xlink:href="#DejaVuSans-6e" transform="translate(92.871094 0)"/>
      </g>
     </g>
    </g>
    <g id="xtick_6">
     <g id="line2d_11">
      <path d="M 689.284375 670.739062 
L 689.284375 23.899062 
" clip-path="url(#p01b1bb0c76)" style="fill: none; stroke: #b0b0b0; stroke-opacity: 0.3; stroke-width: 0.8; stroke-linecap: square"/>
     </g>
     <g id="line2d_12">
      <g>
       <use xlink:href="#m16261c693c" x="689.284375" y="670.739062" style="stroke: #000000; stroke-width: 0.8"/>
      </g>
     </g>
     <g id="text_6">
      <!-- Jul -->
      <g transform="translate(683.251563 685.3375) scale(0.1 -0.1)">
       <defs>
        <path id="DejaVuSans-6c" d="M 603 4863 
L 1178 4863 
L 1178 0 
L 603 0 
L 603 4863 
z
" transform="scale(0.015625)"/>
       </defs>
       <use xlink:href="#DejaVuSans-4a"/>
       <use xlink:href="#DejaVuSans-75" transform="translate(29.492188 0)"/>
       <use xlink:href="#DejaVuSans-6c" transform="translate(92.871094 0)"/>
      </g>
     </g>
    </g>
    <g id="xtick_7">
     <g id="line2d_13">
      <path d="M 806.509897 670.739062 
L 806.509897 23.899062 
" clip-path="url(#p01b1bb0c76)" style="fill: none; stroke: #b0b0b0; stroke-opacity: 0.3; stroke-width: 0.8; stroke-linecap: square"/>
     </g>
     <g id="line2d_14">
      <g>
       <use xlink:href="#m16261c693c" x="806.509897" y="670.739062" style="stroke: #000000; stroke-width: 0.8"/>
      </g>
     </g>
     <g id="text_7">
      <!-- Aug -->
      <g transform="translate(796.746615 685.3375) scale(0.1 -0.1)">
       <defs>
        <path id="DejaVuSans-67" d="M 2906 1791 
Q 2906 2416 2648 2759 
Q 2391 3103 1925 3103 
Q 1463 3103 1205 2759 
Q 947 2416 947 1791 
Q 947 1169 1205 825 
Q 1463 481 1925 481 
Q 2391 481 2648 825 
Q 2906 1169 2906 1791 
z
M 3481 434 
Q 3481 -459 3084 -895 
Q 2688 -1331 1869 -1331 
Q 1566 -1331 1297 -1286 
Q 1028 -1241 775 -1147 
L 775 -588 
Q 1028 -725 1275 -790 
Q 1522 -856 1778 -856 
Q 2344 -856 2625 -561 
Q 2906 -266 2906 331 
L 2906 616 
Q 2728 306 2450 153 
Q 2172 0 1784 0 
Q 1141 0 747 490 
Q 353 981 353 1791 
Q 353 2603 747 3093 
Q 1141 3584 1784 3584 
Q 2172 3584 2450 3431 
Q 2728 3278 2906 2969 
L 2906 3500 
L 3481 3500 
L 3481 434 
z
" transform="scale(0.015625)"/>
       </defs>
       <use xlink:href="#DejaVuSans-41"/>
       <use xlink:href="#DejaVuSans-75" transform="translate(68.408203 0)"/>
       <use xlink:href="#DejaVuSans-67" transform="translate(131.787109 0)"/>
      </g>
     </g>
    </g>
    <g id="xtick_8">
     <g id="line2d_15">
      <path d="M 923.735418 670.739062 
L 923.735418 23.899062 
" clip-path="url(#p01b1bb0c76)" style="fill: none; stroke: #b0b0b0; stroke-opacity: 0.3; stroke-width: 0.8; stroke-linecap: square"/>
     </g>
     <g id="line2d_16">
      <g>
       <use xlink:href="#m16261c693c" x="923.735418" y="670.739062" style="stroke: #000000; stroke-width: 0.8"/>
      </g>
     </g>
     <g id="text_8">
      <!-- Sep -->
      <g transform="translate(914.310418 685.3375) scale(0.1 -0.1)">
       <defs>
        <path id="DejaVuSans-53" d="M 3425 4513 
L 3425 3897 
Q 3066 4069 2747 4153 
Q 2428 4238 2131 4238 
Q 1616 4238 1336 4038 
Q 1056 3838 1056 3469 
Q 1056 3159 1242 3001 
Q 1428 2844 1947 2747 
L 2328 2669 
Q 3034 2534 3370 2195 
Q 3706 1856 3706 1288 
Q 3706 609 3251 259 
Q 2797 -91 1919 -91 
Q 1588 -91 1214 -16 
Q 841 59 441 206 
L 441 856 
Q 825 641 1194 531 
Q 1563 422 1919 422 
Q 2459 422 2753 634 
Q 3047 847 3047 1241 
Q 3047 1584 2836 1778 
Q 2625 1972 2144 2069 
L 1759 2144 
Q 1053 2284 737 2584 
Q 422 2884 422 3419 
Q 422 4038 858 4394 
Q 1294 4750 2059 4750 
Q 2388 4750 2728 4690 
Q 3069 4631 3425 4513 
z
" transform="scale(0.015625)"/>
       </defs>
       <use xlink:href="#DejaVuSans-53"/>
       <use xlink:href="#DejaVuSans-65" transform="translate(63.476562 0)"/>
       <use xlink:href="#DejaVuSans-70" transform="translate(125 0)"/>
      </g>
     </g>
    </g>
    <g id="xtick_9">
     <g id="line2d_17">
      <path d="M 1037.179471 670.739062 
L 1037.179471 23.899062 
" clip-path="url(#p01b1bb0c76)" style="fill: none; stroke: #b0b0b0; stroke-opacity: 0.3; stroke-width: 0.8; stroke-linecap: square"/>
     </g>
     <g id="line2d_18">
      <g>
       <use xlink:href="#m16261c693c" x="1037.179471" y="670.739062" style="stroke: #000000; stroke-width: 0.8"/>
      </g>
     </g>
     <g id="text_9">
      <!-- Oct -->
      <g transform="translate(1028.534158 685.3375) scale(0.1 -0.1)">
       <defs>
        <path id="DejaVuSans-4f" d="M 2522 4238 
Q 1834 4238 1429 3725 
Q 1025 3213 1025 2328 
Q 1025 1447 1429 934 
Q 1834 422 2522 422 
Q 3209 422 3611 934 
Q 4013 1447 4013 2328 
Q 4013 3213 3611 3725 
Q 3209 4238 2522 4238 
z
M 2522 4750 
Q 3503 4750 4090 4092 
Q 4678 3434 4678 2328 
Q 4678 1225 4090 567 
Q 3503 -91 2522 -91 
Q 1538 -91 948 565 
Q 359 1222 359 2328 
Q 359 3434 948 4092 
Q 1538 4750 2522 4750 
z
" transform="scale(0.015625)"/>
        <path id="DejaVuSans-63" d="M 3122 3366 
L 3122 2828 
Q 2878 2963 2633 3030 
Q 2388 3097 2138 3097 
Q 1578 3097 1268 2742 
Q 959 2388 959 1747 
Q 959 1106 1268 751 
Q 1578 397 2138 397 
Q 2388 397 2633 464 
Q 2878 531 3122 666 
L 3122 134 
Q 2881 22 2623 -34 
Q 2366 -91 2075 -91 
Q 1284 -91 818 406 
Q 353 903 353 1747 
Q 353 2603 823 3093 
Q 1294 3584 2113 3584 
Q 2378 3584 2631 3529 
Q 2884 3475 3122 3366 
z
" transform="scale(0.015625)"/>
        <path id="DejaVuSans-74" d="M 1172 4494 
L 1172 3500 
L 2356 3500 
L 2356 3053 
L 1172 3053 
L 1172 1153 
Q 1172 725 1289 603 
Q 1406 481 1766 481 
L 2356 481 
L 2356 0 
L 1766 0 
Q 1100 0 847 248 
Q 594 497 594 1153 
L 594 3053 
L 172 3053 
L 172 3500 
L 594 3500 
L 594 4494 
L 1172 4494 
z
" transform="scale(0.015625)"/>
       </defs>
       <use xlink:href="#DejaVuSans-4f"/>
       <use xlink:href="#DejaVuSans-63" transform="translate(78.710938 0)"/>
       <use xlink:href="#DejaVuSans-74" transform="translate(133.691406 0)"/>
      </g>
     </g>
    </g>
    <g id="xtick_10">
     <g id="line2d_19">
      <path d="M 1154.404992 670.739062 
L 1154.404992 23.899062 
" clip-path="url(#p01b1bb0c76)" style="fill: none; stroke: #b0b0b0; stroke-opacity: 0.3; stroke-width: 0.8; stroke-linecap: square"/>
     </g>
     <g id="line2d_20">
      <g>
       <use xlink:href="#m16261c693c" x="1154.404992" y="670.739062" style="stroke: #000000; stroke-width: 0.8"/>
      </g>
     </g>
     <g id="text_10">
      <!-- Nov -->
      <g transform="translate(1144.645617 685.3375) scale(0.1 -0.1)">
       <defs>
        <path id="DejaVuSans-4e" d="M 628 4666 
L 1478 4666 
L 3547 763 
L 3547 4666 
L 4159 4666 
L 4159 0 
L 3309 0 
L 1241 3903 
L 1241 0 
L 628 0 
L 628 4666 
z
" transform="scale(0.015625)"/>
        <path id="DejaVuSans-6f" d="M 1959 3097 
Q 1497 3097 1228 2736 
Q 959 2375 959 1747 
Q 959 1119 1226 758 
Q 1494 397 1959 397 
Q 2419 397 2687 759 
Q 2956 1122 2956 1747 
Q 2956 2369 2687 2733 
Q 2419 3097 1959 3097 
z
M 1959 3584 
Q 2709 3584 3137 3096 
Q 3566 2609 3566 1747 
Q 3566 888 3137 398 
Q 2709 -91 1959 -91 
Q 1206 -91 779 398 
Q 353 888 353 1747 
Q 353 2609 779 3096 
Q 1206 3584 1959 3584 
z
" transform="scale(0.015625)"/>
        <path id="DejaVuSans-76" d="M 191 3500 
L 800 3500 
L 1894 563 
L 2988 3500 
L 3597 3500 
L 2284 0 
L 1503 0 
L 191 3500 
z
" transform="scale(0.015625)"/>
       </defs>
       <use xlink:href="#DejaVuSans-4e"/>
       <use xlink:href="#DejaVuSans-6f" transform="translate(74.804688 0)"/>
       <use xlink:href="#DejaVuSans-76" transform="translate(135.986328 0)"/>
      </g>
     </g>
    </g>
    <g id="xtick_11">
     <g id="line2d_21">
      <path d="M 1267.849045 670.739062 
L 1267.849045 23.899062 
" clip-path="url(#p01b1bb0c76)" style="fill: none; stroke: #b0b0b0; stroke-opacity: 0.3; stroke-width: 0.8; stroke-linecap: square"/>
     </g>
     <g id="line2d_22">
      <g>
       <use xlink:href="#m16261c693c" x="1267.849045" y="670.739062" style="stroke: #000000; stroke-width: 0.8"/>
      </g>
     </g>
     <g id="text_11">
      <!-- Dec -->
      <g transform="translate(1258.173264 685.3375) scale(0.1 -0.1)">
       <defs>
        <path id="DejaVuSans-44" d="M 1259 4147 
L 1259 519 
L 2022 519 
Q 2988 519 3436 956 
Q 3884 1394 3884 2338 
Q 3884 3275 3436 3711 
Q 2988 4147 2022 4147 
L 1259 4147 
z
M 628 4666 
L 1925 4666 
Q 3281 4666 3915 4102 
Q 4550 3538 4550 2338 
Q 4550 1131 3912 565 
Q 3275 0 1925 0 
L 628 0 
L 628 4666 
z
" transform="scale(0.015625)"/>
       </defs>
       <use xlink:href="#DejaVuSans-44"/>
       <use xlink:href="#DejaVuSans-65" transform="translate(77.001953 0)"/>
       <use xlink:href="#DejaVuSans-63" transform="translate(138.525391 0)"/>
      </g>
     </g>
    </g>
    <g id="xtick_12">
     <g id="line2d_23">
      <path d="M 1385.074567 670.739062 
L 1385.074567 23.899062 
" clip-path="url(#p01b1bb0c76)" style="fill: none; stroke: #b0b0b0; stroke-opacity: 0.3; stroke-width: 0.8; stroke-linecap: square"/>
     </g>
     <g id="line2d_24">
      <g>
       <use xlink:href="#m16261c693c" x="1385.074567" y="670.739062" style="stroke: #000000; stroke-width: 0.8"/>
      </g>
     </g>
     <g id="text_12">
      <!-- Jan -->
      <g transform="translate(1377.366754 685.3375) scale(0.1 -0.1)">
       <use xlink:href="#DejaVuSans-4a"/>
       <use xlink:href="#DejaVuSans-61" transform="translate(29.492188 0)"/>
       <use xlink:href="#DejaVuSans-6e" transform="translate(90.771484 0)"/>
      </g>
     </g>
    </g>
    <g id="text_13">
     <!-- Datum -->
     <g transform="translate(717.108594 702.055) scale(0.14 -0.14)">
      <defs>
       <path id="DejaVuSans-6d" d="M 3328 2828 
Q 3544 3216 3844 3400 
Q 4144 3584 4550 3584 
Q 5097 3584 5394 3201 
Q 5691 2819 5691 2113 
L 5691 0 
L 5113 0 
L 5113 2094 
Q 5113 2597 4934 2840 
Q 4756 3084 4391 3084 
Q 3944 3084 3684 2787 
Q 3425 2491 3425 1978 
L 3425 0 
L 2847 0 
L 2847 2094 
Q 2847 2600 2669 2842 
Q 2491 3084 2119 3084 
Q 1678 3084 1418 2786 
Q 1159 2488 1159 1978 
L 1159 0 
L 581 0 
L 581 3500 
L 1159 3500 
L 1159 2956 
Q 1356 3278 1631 3431 
Q 1906 3584 2284 3584 
Q 2666 3584 2933 3390 
Q 3200 3197 3328 2828 
z
" transform="scale(0.015625)"/>
      </defs>
      <use xlink:href="#DejaVuSans-44"/>
      <use xlink:href="#DejaVuSans-61" transform="translate(77.001953 0)"/>
      <use xlink:href="#DejaVuSans-74" transform="translate(138.28125 0)"/>
      <use xlink:href="#DejaVuSans-75" transform="translate(177.490234 0)"/>
      <use xlink:href="#DejaVuSans-6d" transform="translate(240.869141 0)"/>
     </g>
    </g>
   </g>
   <g id="matplotlib.axis_2">
    <g id="ytick_1">
     <g id="line2d_25">
      <path d="M 56.032188 659.472033 
L 1425.542187 659.472033 
" clip-path="url(#p01b1bb0c76)" style="fill: none; stroke: #b0b0b0; stroke-opacity: 0.3; stroke-width: 0.8; stroke-linecap: square"/>
     </g>
     <g id="line2d_26">
      <defs>
       <path id="mff6ffb2806" d="M 0 0 
L -3.5 0 
" style="stroke: #000000; stroke-width: 0.8"/>
      </defs>
      <g>
       <use xlink:href="#mff6ffb2806" x="56.032188" y="659.472033" style="stroke: #000000; stroke-width: 0.8"/>
      </g>
     </g>
     <g id="text_14">
      <!-- −2.5 -->
      <g transform="translate(24.749375 663.271252) scale(0.1 -0.1)">
       <defs>
        <path id="DejaVuSans-2212" d="M 678 2272 
L 4684 2272 
L 4684 1741 
L 678 1741 
L 678 2272 
z
" transform="scale(0.015625)"/>
        <path id="DejaVuSans-32" d="M 1228 531 
L 3431 531 
L 3431 0 
L 469 0 
L 469 531 
Q 828 903 1448 1529 
Q 2069 2156 2228 2338 
Q 2531 2678 2651 2914 
Q 2772 3150 2772 3378 
Q 2772 3750 2511 3984 
Q 2250 4219 1831 4219 
Q 1534 4219 1204 4116 
Q 875 4013 500 3803 
L 500 4441 
Q 881 4594 1212 4672 
Q 1544 4750 1819 4750 
Q 2544 4750 2975 4387 
Q 3406 4025 3406 3419 
Q 3406 3131 3298 2873 
Q 3191 2616 2906 2266 
Q 2828 2175 2409 1742 
Q 1991 1309 1228 531 
z
" transform="scale(0.015625)"/>
        <path id="DejaVuSans-2e" d="M 684 794 
L 1344 794 
L 1344 0 
L 684 0 
L 684 794 
z
" transform="scale(0.015625)"/>
        <path id="DejaVuSans-35" d="M 691 4666 
L 3169 4666 
L 3169 4134 
L 1269 4134 
L 1269 2991 
Q 1406 3038 1543 3061 
Q 1681 3084 1819 3084 
Q 2600 3084 3056 2656 
Q 3513 2228 3513 1497 
Q 3513 744 3044 326 
Q 2575 -91 1722 -91 
Q 1428 -91 1123 -41 
Q 819 9 494 109 
L 494 744 
Q 775 591 1075 516 
Q 1375 441 1709 441 
Q 2250 441 2565 725 
Q 2881 1009 2881 1497 
Q 2881 1984 2565 2268 
Q 2250 2553 1709 2553 
Q 1456 2553 1204 2497 
Q 953 2441 691 2322 
L 691 4666 
z
" transform="scale(0.015625)"/>
       </defs>
       <use xlink:href="#DejaVuSans-2212"/>
       <use xlink:href="#DejaVuSans-32" transform="translate(83.789062 0)"/>
       <use xlink:href="#DejaVuSans-2e" transform="translate(147.412109 0)"/>
       <use xlink:href="#DejaVuSans-35" transform="translate(179.199219 0)"/>
      </g>
     </g>
    </g>
    <g id="ytick_2">
     <g id="line2d_27">
      <path d="M 56.032188 573.232666 
L 1425.542187 573.232666 
" clip-path="url(#p01b1bb0c76)" style="fill: none; stroke: #b0b0b0; stroke-opacity: 0.3; stroke-width: 0.8; stroke-linecap: square"/>
     </g>
     <g id="line2d_28">
      <g>
       <use xlink:href="#mff6ffb2806" x="56.032188" y="573.232666" style="stroke: #000000; stroke-width: 0.8"/>
      </g>
     </g>
     <g id="text_15">
      <!-- −2.0 -->
      <g transform="translate(24.749375 577.031885) scale(0.1 -0.1)">
       <defs>
        <path id="DejaVuSans-30" d="M 2034 4250 
Q 1547 4250 1301 3770 
Q 1056 3291 1056 2328 
Q 1056 1369 1301 889 
Q 1547 409 2034 409 
Q 2525 409 2770 889 
Q 3016 1369 3016 2328 
Q 3016 3291 2770 3770 
Q 2525 4250 2034 4250 
z
M 2034 4750 
Q 2819 4750 3233 4129 
Q 3647 3509 3647 2328 
Q 3647 1150 3233 529 
Q 2819 -91 2034 -91 
Q 1250 -91 836 529 
Q 422 1150 422 2328 
Q 422 3509 836 4129 
Q 1250 4750 2034 4750 
z
" transform="scale(0.015625)"/>
       </defs>
       <use xlink:href="#DejaVuSans-2212"/>
       <use xlink:href="#DejaVuSans-32" transform="translate(83.789062 0)"/>
       <use xlink:href="#DejaVuSans-2e" transform="translate(147.412109 0)"/>
       <use xlink:href="#DejaVuSans-30" transform="translate(179.199219 0)"/>
      </g>
     </g>
    </g>
    <g id="ytick_3">
     <g id="line2d_29">
      <path d="M 56.032188 486.9933 
L 1425.542187 486.9933 
" clip-path="url(#p01b1bb0c76)" style="fill: none; stroke: #b0b0b0; stroke-opacity: 0.3; stroke-width: 0.8; stroke-linecap: square"/>
     </g>
     <g id="line2d_30">
      <g>
       <use xlink:href="#mff6ffb2806" x="56.032188" y="486.9933" style="stroke: #000000; stroke-width: 0.8"/>
      </g>
     </g>
     <g id="text_16">
      <!-- −1.5 -->
      <g transform="translate(24.749375 490.792519) scale(0.1 -0.1)">
       <defs>
        <path id="DejaVuSans-31" d="M 794 531 
L 1825 531 
L 1825 4091 
L 703 3866 
L 703 4441 
L 1819 4666 
L 2450 4666 
L 2450 531 
L 3481 531 
L 3481 0 
L 794 0 
L 794 531 
z
" transform="scale(0.015625)"/>
       </defs>
       <use xlink:href="#DejaVuSans-2212"/>
       <use xlink:href="#DejaVuSans-31" transform="translate(83.789062 0)"/>
       <use xlink:href="#DejaVuSans-2e" transform="translate(147.412109 0)"/>
       <use xlink:href="#DejaVuSans-35" transform="translate(179.199219 0)"/>
      </g>
     </g>
    </g>
    <g id="ytick_4">
     <g id="line2d_31">
      <path d="M 56.032188 400.753933 
L 1425.542187 400.753933 
" clip-path="url(#p01b1bb0c76)" style="fill: none; stroke: #b0b0b0; stroke-opacity: 0.3; stroke-width: 0.8; stroke-linecap: square"/>
     </g>
     <g id="line2d_32">
      <g>
       <use xlink:href="#mff6ffb2806" x="56.032188" y="400.753933" style="stroke: #000000; stroke-width: 0.8"/>
      </g>
     </g>
     <g id="text_17">
      <!-- −1.0 -->
      <g transform="translate(24.749375 404.553152) scale(0.1 -0.1)">
       <use xlink:href="#DejaVuSans-2212"/>
       <use xlink:href="#DejaVuSans-31" transform="translate(83.789062 0)"/>
       <use xlink:href="#DejaVuSans-2e" transform="translate(147.412109 0)"/>
       <use xlink:href="#DejaVuSans-30" transform="translate(179.199219 0)"/>
      </g>
     </g>
    </g>
    <g id="ytick_5">
     <g id="line2d_33">
      <path d="M 56.032188 314.514567 
L 1425.542187 314.514567 
" clip-path="url(#p01b1bb0c76)" style="fill: none; stroke: #b0b0b0; stroke-opacity: 0.3; stroke-width: 0.8; stroke-linecap: square"/>
     </g>
     <g id="line2d_34">
      <g>
       <use xlink:href="#mff6ffb2806" x="56.032188" y="314.514567" style="stroke: #000000; stroke-width: 0.8"/>
      </g>
     </g>
     <g id="text_18">
      <!-- −0.5 -->
      <g transform="translate(24.749375 318.313786) scale(0.1 -0.1)">
       <use xlink:href="#DejaVuSans-2212"/>
       <use xlink:href="#DejaVuSans-30" transform="translate(83.789062 0)"/>
       <use xlink:href="#DejaVuSans-2e" transform="translate(147.412109 0)"/>
       <use xlink:href="#DejaVuSans-35" transform="translate(179.199219 0)"/>
      </g>
     </g>
    </g>
    <g id="ytick_6">
     <g id="line2d_35">
      <path d="M 56.032188 228.2752 
L 1425.542187 228.2752 
" clip-path="url(#p01b1bb0c76)" style="fill: none; stroke: #b0b0b0; stroke-opacity: 0.3; stroke-width: 0.8; stroke-linecap: square"/>
     </g>
     <g id="line2d_36">
      <g>
       <use xlink:href="#mff6ffb2806" x="56.032188" y="228.2752" style="stroke: #000000; stroke-width: 0.8"/>
      </g>
     </g>
     <g id="text_19">
      <!-- 0.0 -->
      <g transform="translate(33.129063 232.074419) scale(0.1 -0.1)">
       <use xlink:href="#DejaVuSans-30"/>
       <use xlink:href="#DejaVuSans-2e" transform="translate(63.623047 0)"/>
       <use xlink:href="#DejaVuSans-30" transform="translate(95.410156 0)"/>
      </g>
     </g>
    </g>
    <g id="ytick_7">
     <g id="line2d_37">
      <path d="M 56.032188 142.035834 
L 1425.542187 142.035834 
" clip-path="url(#p01b1bb0c76)" style="fill: none; stroke: #b0b0b0; stroke-opacity: 0.3; stroke-width: 0.8; stroke-linecap: square"/>
     </g>
     <g id="line2d_38">
      <g>
       <use xlink:href="#mff6ffb2806" x="56.032188" y="142.035834" style="stroke: #000000; stroke-width: 0.8"/>
      </g>
     </g>
     <g id="text_20">
      <!-- 0.5 -->
      <g transform="translate(33.129063 145.835052) scale(0.1 -0.1)">
       <use xlink:href="#DejaVuSans-30"/>
       <use xlink:href="#DejaVuSans-2e" transform="translate(63.623047 0)"/>
       <use xlink:href="#DejaVuSans-35" transform="translate(95.410156 0)"/>
      </g>
     </g>
    </g>
    <g id="ytick_8">
     <g id="line2d_39">
      <path d="M 56.032188 55.796467 
L 1425.542187 55.796467 
" clip-path="url(#p01b1bb0c76)" style="fill: none; stroke: #b0b0b0; stroke-opacity: 0.3; stroke-width: 0.8; stroke-linecap: square"/>
     </g>
     <g id="line2d_40">
      <g>
       <use xlink:href="#mff6ffb2806" x="56.032188" y="55.796467" style="stroke: #000000; stroke-width: 0.8"/>
      </g>
     </g>
     <g id="text_21">
      <!-- 1.0 -->
      <g transform="translate(33.129063 59.595686) scale(0.1 -0.1)">
       <use xlink:href="#DejaVuSans-31"/>
       <use xlink:href="#DejaVuSans-2e" transform="translate(63.623047 0)"/>
       <use xlink:href="#DejaVuSans-30" transform="translate(95.410156 0)"/>
      </g>
     </g>
    </g>
    <g id="text_22">
     <!-- Fehler (kW) [Prognose - Ist] -->
     <g transform="translate(17.837813 442.830781) rotate(-90) scale(0.14 -0.14)">
      <defs>
       <path id="DejaVuSans-68" d="M 3513 2113 
L 3513 0 
L 2938 0 
L 2938 2094 
Q 2938 2591 2744 2837 
Q 2550 3084 2163 3084 
Q 1697 3084 1428 2787 
Q 1159 2491 1159 1978 
L 1159 0 
L 581 0 
L 581 4863 
L 1159 4863 
L 1159 2956 
Q 1366 3272 1645 3428 
Q 1925 3584 2291 3584 
Q 2894 3584 3203 3211 
Q 3513 2838 3513 2113 
z
" transform="scale(0.015625)"/>
       <path id="DejaVuSans-20" transform="scale(0.015625)"/>
       <path id="DejaVuSans-28" d="M 1984 4856 
Q 1566 4138 1362 3434 
Q 1159 2731 1159 2009 
Q 1159 1288 1364 580 
Q 1569 -128 1984 -844 
L 1484 -844 
Q 1016 -109 783 600 
Q 550 1309 550 2009 
Q 550 2706 781 3412 
Q 1013 4119 1484 4856 
L 1984 4856 
z
" transform="scale(0.015625)"/>
       <path id="DejaVuSans-6b" d="M 581 4863 
L 1159 4863 
L 1159 1991 
L 2875 3500 
L 3609 3500 
L 1753 1863 
L 3688 0 
L 2938 0 
L 1159 1709 
L 1159 0 
L 581 0 
L 581 4863 
z
" transform="scale(0.015625)"/>
       <path id="DejaVuSans-57" d="M 213 4666 
L 850 4666 
L 1831 722 
L 2809 4666 
L 3519 4666 
L 4500 722 
L 5478 4666 
L 6119 4666 
L 4947 0 
L 4153 0 
L 3169 4050 
L 2175 0 
L 1381 0 
L 213 4666 
z
" transform="scale(0.015625)"/>
       <path id="DejaVuSans-29" d="M 513 4856 
L 1013 4856 
Q 1481 4119 1714 3412 
Q 1947 2706 1947 2009 
Q 1947 1309 1714 600 
Q 1481 -109 1013 -844 
L 513 -844 
Q 928 -128 1133 580 
Q 1338 1288 1338 2009 
Q 1338 2731 1133 3434 
Q 928 4138 513 4856 
z
" transform="scale(0.015625)"/>
       <path id="DejaVuSans-5b" d="M 550 4863 
L 1875 4863 
L 1875 4416 
L 1125 4416 
L 1125 -397 
L 1875 -397 
L 1875 -844 
L 550 -844 
L 550 4863 
z
" transform="scale(0.015625)"/>
       <path id="DejaVuSans-50" d="M 1259 4147 
L 1259 2394 
L 2053 2394 
Q 2494 2394 2734 2622 
Q 2975 2850 2975 3272 
Q 2975 3691 2734 3919 
Q 2494 4147 2053 4147 
L 1259 4147 
z
M 628 4666 
L 2053 4666 
Q 2838 4666 3239 4311 
Q 3641 3956 3641 3272 
Q 3641 2581 3239 2228 
Q 2838 1875 2053 1875 
L 1259 1875 
L 1259 0 
L 628 0 
L 628 4666 
z
" transform="scale(0.015625)"/>
       <path id="DejaVuSans-73" d="M 2834 3397 
L 2834 2853 
Q 2591 2978 2328 3040 
Q 2066 3103 1784 3103 
Q 1356 3103 1142 2972 
Q 928 2841 928 2578 
Q 928 2378 1081 2264 
Q 1234 2150 1697 2047 
L 1894 2003 
Q 2506 1872 2764 1633 
Q 3022 1394 3022 966 
Q 3022 478 2636 193 
Q 2250 -91 1575 -91 
Q 1294 -91 989 -36 
Q 684 19 347 128 
L 347 722 
Q 666 556 975 473 
Q 1284 391 1588 391 
Q 1994 391 2212 530 
Q 2431 669 2431 922 
Q 2431 1156 2273 1281 
Q 2116 1406 1581 1522 
L 1381 1569 
Q 847 1681 609 1914 
Q 372 2147 372 2553 
Q 372 3047 722 3315 
Q 1072 3584 1716 3584 
Q 2034 3584 2315 3537 
Q 2597 3491 2834 3397 
z
" transform="scale(0.015625)"/>
       <path id="DejaVuSans-2d" d="M 313 2009 
L 1997 2009 
L 1997 1497 
L 313 1497 
L 313 2009 
z
" transform="scale(0.015625)"/>
       <path id="DejaVuSans-49" d="M 628 4666 
L 1259 4666 
L 1259 0 
L 628 0 
L 628 4666 
z
" transform="scale(0.015625)"/>
       <path id="DejaVuSans-5d" d="M 1947 4863 
L 1947 -844 
L 622 -844 
L 622 -397 
L 1369 -397 
L 1369 4416 
L 622 4416 
L 622 4863 
L 1947 4863 
z
" transform="scale(0.015625)"/>
      </defs>
      <use xlink:href="#DejaVuSans-46"/>
      <use xlink:href="#DejaVuSans-65" transform="translate(52.019531 0)"/>
      <use xlink:href="#DejaVuSans-68" transform="translate(113.542969 0)"/>
      <use xlink:href="#DejaVuSans-6c" transform="translate(176.921875 0)"/>
      <use xlink:href="#DejaVuSans-65" transform="translate(204.705078 0)"/>
      <use xlink:href="#DejaVuSans-72" transform="translate(266.228516 0)"/>
      <use xlink:href="#DejaVuSans-20" transform="translate(307.341797 0)"/>
      <use xlink:href="#DejaVuSans-28" transform="translate(339.128906 0)"/>
      <use xlink:href="#DejaVuSans-6b" transform="translate(378.142578 0)"/>
      <use xlink:href="#DejaVuSans-57" transform="translate(436.052734 0)"/>
      <use xlink:href="#DejaVuSans-29" transform="translate(534.929688 0)"/>
      <use xlink:href="#DejaVuSans-20" transform="translate(573.943359 0)"/>
      <use xlink:href="#DejaVuSans-5b" transform="translate(605.730469 0)"/>
      <use xlink:href="#DejaVuSans-50" transform="translate(644.744141 0)"/>
      <use xlink:href="#DejaVuSans-72" transform="translate(703.296875 0)"/>
      <use xlink:href="#DejaVuSans-6f" transform="translate(742.160156 0)"/>
      <use xlink:href="#DejaVuSans-67" transform="translate(803.341797 0)"/>
      <use xlink:href="#DejaVuSans-6e" transform="translate(866.818359 0)"/>
      <use xlink:href="#DejaVuSans-6f" transform="translate(930.197266 0)"/>
      <use xlink:href="#DejaVuSans-73" transform="translate(991.378906 0)"/>
      <use xlink:href="#DejaVuSans-65" transform="translate(1043.478516 0)"/>
      <use xlink:href="#DejaVuSans-20" transform="translate(1105.001953 0)"/>
      <use xlink:href="#DejaVuSans-2d" transform="translate(1136.789062 0)"/>
      <use xlink:href="#DejaVuSans-20" transform="translate(1172.873047 0)"/>
      <use xlink:href="#DejaVuSans-49" transform="translate(1204.660156 0)"/>
      <use xlink:href="#DejaVuSans-73" transform="translate(1234.152344 0)"/>
      <use xlink:href="#DejaVuSans-74" transform="translate(1286.251953 0)"/>
      <use xlink:href="#DejaVuSans-5d" transform="translate(1325.460938 0)"/>
     </g>
    </g>
   </g>
   <g id="line2d_41">
    <path d="M 118.282642 256.810427 
L 118.322032 168.042534 
L 118.361423 317.964368 
L 118.400813 172.343781 
L 118.440203 185.492944 
L 118.518984 166.855816 
L 118.597764 621.960698 
L 118.715935 145.820643 
L 118.755326 308.386126 
L 118.794716 159.152512 
L 118.834106 148.079405 
L 118.873496 292.763802 
L 118.912887 153.332459 
L 118.952277 141.601436 
L 118.991667 300.54203 
L 119.070448 218.215735 
L 144.752921 293.749308 
L 144.792311 177.626976 
L 144.871092 192.585577 
L 144.910482 232.595335 
L 144.949873 230.359491 
L 144.989263 179.234262 
L 145.028653 253.694725 
L 145.068043 181.298003 
L 145.146824 168.649597 
L 145.186214 296.0292 
L 145.304385 139.839075 
L 145.343776 284.36117 
L 145.422556 275.09176 
L 145.501337 276.814422 
L 145.540727 114.531292 
L 145.580117 308.999726 
L 145.658898 296.757336 
L 171.2232 207.179963 
L 171.26259 272.415253 
L 171.341371 304.645243 
L 171.380761 104.429082 
L 171.420152 326.243121 
L 171.498932 204.128178 
L 171.538322 349.110123 
L 171.617103 364.878357 
L 171.656493 78.56366 
L 171.735274 244.833159 
L 171.774664 82.013234 
L 171.814055 390.977376 
L 171.853445 72.354425 
L 171.892835 289.540717 
L 171.971616 151.694643 
L 172.050396 121.338386 
L 172.089787 350.735101 
L 172.129177 305.545673 
L 197.693479 202.637387 
L 197.732869 62.735377 
L 197.77226 333.58076 
L 197.85104 317.832162 
L 197.929821 88.961641 
L 197.969211 173.637155 
L 198.047992 540.387172 
L 198.126772 102.215091 
L 198.166163 340.106969 
L 198.323724 136.32211 
L 198.363114 249.362473 
L 198.402504 197.635526 
L 198.441895 123.236814 
L 198.481285 335.831572 
L 198.560066 183.879645 
L 198.599456 321.05458 
L 224.163758 93.558705 
L 224.203148 301.885245 
L 224.281929 293.019395 
L 224.321319 181.166511 
L 224.4001 200.478434 
L 224.43949 162.779576 
L 224.478881 267.4443 
L 224.557661 208.249856 
L 224.597051 124.748452 
L 224.636442 318.103762 
L 224.675832 123.004033 
L 224.715222 288.764765 
L 224.754613 138.567518 
L 224.833393 227.828271 
L 224.872783 252.877799 
L 224.990954 139.645018 
L 225.030345 283.913084 
L 225.069735 272.690689 
L 250.634037 208.699803 
L 250.673427 166.614993 
L 250.712818 188.001523 
L 250.752208 224.565405 
L 250.791598 185.237962 
L 250.830989 208.692157 
L 250.870379 168.673601 
L 250.909769 211.444354 
L 250.94916 174.184569 
L 251.06733 216.254561 
L 251.106721 187.272911 
L 251.185501 190.022132 
L 251.224892 205.195107 
L 251.264282 180.353188 
L 251.303672 203.805648 
L 251.421843 183.097161 
L 251.540014 263.812262 
L 277.104316 190.443612 
L 277.183097 163.281741 
L 277.222487 257.451431 
L 277.301268 209.464539 
L 277.380048 211.286173 
L 277.419439 115.177388 
L 277.537609 283.728475 
L 277.498219 96.417605 
L 277.577 244.784302 
L 277.61639 256.088881 
L 277.65578 178.785744 
L 277.734561 178.993498 
L 277.773951 252.531662 
L 277.813342 200.846906 
L 277.892122 167.936071 
L 277.970903 238.887616 
L 278.010293 165.923873 
L 303.574595 220.069842 
L 303.653376 222.065966 
L 303.692766 214.476902 
L 303.732156 231.03486 
L 303.810937 217.492641 
L 303.889718 208.267667 
L 303.929108 214.476902 
L 303.968498 221.376051 
L 304.007888 199.988688 
L 304.047279 201.368518 
L 304.086669 227.585285 
L 304.16545 211.027327 
L 304.283621 214.476902 
L 304.401791 207.577752 
L 304.441182 211.717242 
L 304.480572 214.476902 
L 330.044874 127.54762 
L 330.163045 208.842409 
L 330.202435 149.198951 
L 330.241826 212.389119 
L 330.281216 196.51579 
L 330.320606 243.045955 
L 330.359997 198.745154 
L 330.399387 195.671928 
L 330.478167 151.368261 
L 330.517558 271.270967 
L 330.556948 121.483595 
L 330.635729 211.328007 
L 330.675119 201.276076 
L 330.714509 223.282312 
L 330.79329 246.392134 
L 330.83268 140.195302 
L 330.87207 225.995682 
L 330.950851 166.7044 
L 356.515153 202.011378 
L 356.554544 195.128369 
L 356.593934 199.156527 
L 356.633324 201.67794 
L 356.751495 185.727213 
L 356.830276 195.190679 
L 356.869666 188.023403 
L 356.948447 202.345251 
L 357.027227 178.328222 
L 357.066617 184.468877 
L 357.184788 173.456393 
L 357.224179 177.934973 
L 357.263569 261.701239 
L 357.342349 206.264682 
L 357.38174 174.014632 
L 357.42113 184.518625 
L 382.985432 249.429656 
L 383.064213 229.422587 
L 383.103603 237.012563 
L 383.142993 241.84329 
L 383.221774 229.428501 
L 383.379335 247.376282 
L 383.536896 231.518863 
L 383.576287 239.800171 
L 383.655067 234.974781 
L 383.694458 235.666343 
L 383.733848 323.286936 
L 383.773238 262.575563 
L 383.812628 232.22017 
L 383.891409 243.949585 
L 409.455711 224.296216 
L 409.573882 268.980181 
L 409.613272 262.770947 
L 409.652663 251.732308 
L 409.692053 252.422223 
L 409.731443 262.770947 
L 409.770834 247.592818 
L 409.810224 244.833159 
L 409.967785 266.910436 
L 410.046566 248.282733 
L 410.085956 254.491968 
L 410.164737 266.910436 
L 410.204127 300.026353 
L 410.243517 255.871797 
L 410.322298 276.569245 
L 410.361688 266.220521 
L 435.92599 282.77848 
L 436.004771 261.391117 
L 436.083552 295.886864 
L 436.122942 248.282733 
L 436.162332 340.041419 
L 436.201722 237.244094 
L 436.241113 295.886864 
L 436.280503 248.282733 
L 436.319893 344.180909 
L 436.359284 213.786987 
L 436.398674 304.165843 
L 436.477454 339.351504 
L 436.516845 210.337412 
L 436.635016 357.979208 
L 436.674406 313.824652 
L 436.713796 353.149803 
L 436.753187 377.296826 
L 436.792577 231.03486 
L 436.831967 338.661589 
L 462.396269 229.65503 
L 462.553831 191.916939 
L 462.593221 199.958331 
L 462.632611 197.100759 
L 462.711392 189.454709 
L 462.750782 206.00581 
L 462.790172 189.445022 
L 462.829563 199.792576 
L 462.868953 206.001325 
L 462.908343 201.861631 
L 463.026514 190.822846 
L 463.105295 210.830358 
L 463.262856 387.448555 
L 463.302246 641.337244 
L 488.866548 232.41469 
L 489.02411 219.381456 
L 489.0635 227.167149 
L 489.10289 217.010166 
L 489.14228 211.126386 
L 489.181671 214.785964 
L 489.221061 219.047279 
L 489.260451 206.163229 
L 489.299842 216.88198 
L 489.378622 220.035736 
L 489.496793 196.419837 
L 489.575574 241.895804 
L 489.654354 223.951773 
L 489.693745 231.510166 
L 489.733135 218.936892 
L 489.772525 208.600486 
L 515.336827 214.153046 
L 515.376218 211.161201 
L 515.415608 220.936557 
L 515.494389 215.257907 
L 515.533779 215.895659 
L 515.65195 202.941359 
L 515.69134 193.997207 
L 515.73073 206.019877 
L 515.770121 207.165863 
L 515.809511 190.282877 
L 515.848901 206.910836 
L 515.888292 218.231994 
L 515.927682 203.423314 
L 515.967072 196.023255 
L 516.045853 200.552899 
L 516.085243 250.116113 
L 516.124633 214.542128 
L 516.164024 199.873763 
L 516.203414 217.664811 
L 516.242804 221.580217 
L 541.807106 234.716258 
L 541.885887 220.87901 
L 541.925277 241.18255 
L 541.964668 233.691559 
L 542.082838 207.730276 
L 542.122229 208.095348 
L 542.161619 209.766931 
L 542.2404 199.118955 
L 542.27979 220.617497 
L 542.358571 206.212984 
L 542.516132 190.816513 
L 542.555522 260.399146 
L 542.634303 204.999777 
L 542.713083 193.785995 
L 568.277385 218.262597 
L 568.316776 234.992131 
L 568.356166 222.919794 
L 568.395556 215.778565 
L 568.474337 221.385859 
L 568.513727 230.118388 
L 568.553118 230.056974 
L 568.710679 212.260878 
L 568.750069 212.518393 
L 568.86824 224.063501 
L 568.90763 223.463637 
L 568.94702 219.460499 
L 569.025801 307.052099 
L 569.065191 230.483119 
L 569.183362 214.641796 
L 594.747664 216.686991 
L 594.787055 221.274524 
L 594.826445 219.370521 
L 594.984006 211.758559 
L 595.023397 225.26539 
L 595.102177 224.80642 
L 595.141567 224.439437 
L 595.220348 225.691458 
L 595.299129 201.410755 
L 595.4173 219.673847 
L 595.45669 215.107407 
L 595.49608 287.410931 
L 595.574861 244.286432 
L 595.614251 223.634673 
L 595.653641 225.891766 
L 621.217943 233.672381 
L 621.257334 238.729277 
L 621.454285 210.970394 
L 621.533066 206.018019 
L 621.572456 214.166336 
L 621.651237 210.226685 
L 621.808798 189.53572 
L 621.848188 179.141033 
L 621.887579 194.196556 
L 621.926969 190.556221 
L 621.966359 191.686744 
L 622.005749 252.791829 
L 622.04514 192.435067 
L 622.08453 182.417052 
L 622.12392 184.114739 
L 647.688223 237.603117 
L 647.727613 227.05741 
L 647.767003 230.162822 
L 647.806393 242.133123 
L 647.845784 234.797457 
L 647.963955 218.148238 
L 648.003345 234.410204 
L 648.042735 217.207729 
L 648.082125 218.481361 
L 648.160906 236.383273 
L 648.200296 225.008506 
L 648.239687 223.11522 
L 648.279077 223.889456 
L 648.318467 268.870179 
L 648.357858 216.601762 
L 648.397248 206.759935 
L 648.436638 218.100655 
L 648.476028 220.967663 
L 648.515419 215.972479 
L 648.554809 212.769596 
L 648.594199 198.599255 
L 674.158502 219.606005 
L 674.197892 227.457237 
L 674.237282 221.631595 
L 674.276672 214.918033 
L 674.316063 229.105444 
L 674.394843 226.47951 
L 674.434234 225.64424 
L 674.473624 209.39076 
L 674.513014 214.94182 
L 674.552404 233.901251 
L 674.631185 219.959224 
L 674.670575 221.113124 
L 674.709966 233.622317 
L 674.788746 227.872909 
L 674.828137 206.72046 
L 674.906917 267.91315 
L 674.946307 218.105657 
L 674.985698 244.748575 
L 675.025088 230.541959 
L 675.064478 217.427249 
L 700.628781 248.569027 
L 700.746951 214.11011 
L 700.786342 216.117628 
L 700.825732 224.466058 
L 700.865122 210.542945 
L 700.904513 207.977723 
L 701.062074 221.683554 
L 701.101464 213.934961 
L 701.140854 217.286972 
L 701.180245 222.742047 
L 701.259025 199.889895 
L 701.298416 208.825903 
L 701.377196 273.635794 
L 701.416586 340.544398 
L 701.455977 220.489543 
L 701.495367 243.249657 
L 701.534757 208.748737 
L 727.09906 215.880864 
L 727.13845 222.276487 
L 727.17784 215.962927 
L 727.21723 212.946942 
L 727.256621 223.714067 
L 727.296011 215.769432 
L 727.414182 198.923123 
L 727.374792 216.435175 
L 727.453572 209.13167 
L 727.492963 232.624004 
L 727.571743 219.303918 
L 727.611133 224.888975 
L 727.650524 203.736846 
L 727.689914 213.538426 
L 727.808085 250.358532 
L 727.768695 209.814596 
L 727.847475 245.663263 
L 727.926256 227.511831 
L 727.965646 233.307395 
L 728.005036 231.766431 
L 753.569339 226.500792 
L 753.608729 233.904992 
L 753.648119 227.564655 
L 753.76629 215.376613 
L 753.80568 217.383247 
L 753.845071 223.352569 
L 753.884461 214.84008 
L 753.923851 220.507258 
L 753.963242 220.168291 
L 754.120803 182.646826 
L 754.160193 197.99766 
L 754.317754 380.727287 
L 754.357145 354.179639 
L 754.475315 178.136618 
L 780.039618 220.817535 
L 780.118398 204.69756 
L 780.236569 227.473906 
L 780.31535 206.648628 
L 780.35474 210.36003 
L 780.39413 232.683615 
L 780.433521 220.48068 
L 780.472911 213.658351 
L 780.512301 232.857489 
L 780.591082 227.652587 
L 780.709253 214.776945 
L 780.788033 221.601087 
L 780.827424 377.534337 
L 780.866814 266.428235 
L 780.945594 221.867736 
L 806.509897 230.344945 
L 806.667458 213.357131 
L 806.746238 235.435274 
L 806.785629 227.289787 
L 806.825019 216.808436 
L 806.9038 222.328621 
L 807.021971 211.981195 
L 806.98258 222.329487 
L 807.061361 214.741288 
L 807.100751 230.230311 
L 807.179532 224.401395 
L 807.258312 214.555608 
L 807.337093 272.007256 
L 807.376483 227.853133 
L 807.415873 210.733755 
L 832.980176 226.158434 
L 833.137737 214.42988 
L 833.177127 215.119795 
L 833.255908 235.817243 
L 833.295298 217.18954 
L 833.334688 216.499625 
L 833.374079 225.468519 
L 833.413469 215.119795 
L 833.452859 211.67022 
L 833.61042 232.367668 
L 833.689201 216.499625 
L 833.728591 220.639114 
L 833.767982 297.909587 
L 833.807372 221.329029 
L 833.846762 218.569369 
L 833.886152 228.918093 
L 859.450455 250.352478 
L 859.489845 251.848145 
L 859.568626 233.862522 
L 859.608016 238.587477 
L 859.647406 237.301105 
L 859.686796 231.959783 
L 859.844358 253.172596 
L 859.883748 247.763329 
L 859.923138 226.185771 
L 860.001919 239.184392 
L 860.041309 231.565198 
L 860.080699 233.839658 
L 860.12009 242.015954 
L 860.15948 228.997819 
L 860.19887 230.993628 
L 860.277651 203.327411 
L 860.317041 254.647915 
L 860.356432 219.248784 
L 885.920734 220.944132 
L 885.999514 239.607235 
L 886.038905 230.569673 
L 886.078295 229.209815 
L 886.117685 237.555102 
L 886.157075 229.371078 
L 886.196466 225.324207 
L 886.235856 231.643231 
L 886.275246 225.558319 
L 886.314637 227.765541 
L 886.354027 245.16295 
L 886.393417 241.184206 
L 886.472198 218.769671 
L 886.511588 238.968263 
L 886.590369 231.099325 
L 886.70854 240.060615 
L 886.74793 224.437619 
L 886.826711 226.333969 
L 912.391013 224.181885 
L 912.469793 235.00023 
L 912.627355 220.657713 
L 912.706135 235.743365 
L 912.784916 231.853738 
L 912.863696 218.239405 
L 912.942477 232.009455 
L 912.981867 230.108224 
L 913.021257 223.134791 
L 913.100038 225.723801 
L 913.139428 233.178244 
L 913.178819 225.312386 
L 913.218209 224.663251 
L 913.257599 218.653685 
L 913.29699 226.854706 
L 938.861292 233.79452 
L 938.900682 215.817293 
L 938.940072 229.91275 
L 938.979463 245.901509 
L 939.018853 232.439579 
L 939.058243 222.182896 
L 939.137024 229.987724 
L 939.176414 223.223086 
L 939.215804 227.520077 
L 939.255195 230.736748 
L 939.333975 218.655116 
L 939.412756 234.664996 
L 939.452146 224.835602 
L 939.491537 227.18286 
L 939.609707 288.21671 
L 939.649098 279.409725 
L 939.727878 254.228767 
L 939.767269 268.262423 
L 965.331571 220.869082 
L 965.410351 234.901759 
L 965.449742 219.029632 
L 965.489132 220.598173 
L 965.567913 237.101299 
L 965.686083 220.213179 
L 965.725474 221.180674 
L 965.764864 216.400075 
L 965.804254 226.353002 
L 965.843645 214.488827 
L 965.961816 232.153379 
L 965.922425 212.308483 
L 966.040596 229.551784 
L 966.079986 285.396403 
L 966.119377 246.207692 
L 966.198157 232.01877 
L 966.237548 252.193677 
L 991.80185 217.236561 
L 991.88063 237.924874 
L 991.920021 231.485342 
L 992.077582 212.598978 
L 992.156362 223.114176 
L 992.195753 215.091538 
L 992.235143 213.169823 
L 992.313924 235.23979 
L 992.392704 201.062351 
L 992.432095 201.446391 
L 992.550265 259.468672 
L 992.707827 205.358131 
L 1018.272129 234.980527 
L 1018.46908 204.12836 
L 1018.508471 204.12836 
L 1018.587251 217.236743 
L 1018.626642 199.676975 
L 1018.666032 208.957724 
L 1018.705422 225.515723 
L 1018.744812 223.445978 
L 1018.784203 204.12836 
L 1018.862983 213.444089 
L 1018.902374 217.236743 
L 1018.941764 212.982481 
L 1019.059935 264.908336 
L 1019.178106 223.549884 
L 1044.742408 231.03486 
L 1044.821188 240.521635 
L 1044.939359 199.406654 
L 1044.97875 206.872486 
L 1045.05753 192.160093 
L 1045.096921 203.788333 
L 1045.175701 198.09334 
L 1045.215091 202.896903 
L 1045.254482 211.021712 
L 1045.293872 208.11325 
L 1045.372653 195.414975 
L 1045.490823 195.735534 
L 1045.530214 194.247434 
L 1045.648385 207.07982 
L 1071.212687 203.244532 
L 1071.252077 212.461419 
L 1071.291467 200.808502 
L 1071.370248 199.03586 
L 1071.409638 209.698613 
L 1071.488419 196.262872 
L 1071.527809 203.832158 
L 1071.5672 210.797067 
L 1071.60659 209.558551 
L 1071.68537 194.852929 
L 1071.724761 196.549016 
L 1071.764151 202.429506 
L 1071.803541 190.411719 
L 1071.882322 196.142588 
L 1071.921712 198.705263 
L 1072.000493 239.084447 
L 1072.039883 236.190627 
L 1072.118664 218.030944 
L 1097.722356 218.644978 
L 1097.761747 222.524521 
L 1097.801137 217.915161 
L 1097.879917 206.90521 
L 1097.919308 214.663451 
L 1097.958698 214.396253 
L 1098.155649 197.047356 
L 1098.23443 200.406173 
L 1098.313211 180.973952 
L 1098.352601 186.147894 
L 1098.431382 254.924903 
L 1098.470772 218.958219 
L 1098.549552 190.813799 
L 1098.588943 244.725112 
L 1124.153245 165.033704 
L 1124.192635 293.657303 
L 1124.271416 196.340298 
L 1124.389587 298.733981 
L 1124.428977 183.866278 
L 1124.468367 196.556972 
L 1124.507758 305.595456 
L 1124.547148 191.787232 
L 1124.586538 255.480984 
L 1124.665319 175.989321 
L 1124.704709 303.786834 
L 1124.744099 173.331638 
L 1124.78349 182.65193 
L 1124.901661 328.565847 
L 1124.941051 322.064365 
L 1124.980441 238.653946 
L 1125.019831 454.576037 
L 1125.059222 246.580372 
L 1150.623524 229.35743 
L 1150.702305 232.807012 
L 1150.781085 214.869261 
L 1150.820475 223.838184 
L 1150.899256 222.45843 
L 1150.978037 214.179548 
L 1151.056817 232.807361 
L 1151.096208 225.218354 
L 1151.174988 216.249572 
L 1151.214378 223.148773 
L 1151.253769 217.629502 
L 1151.332549 218.319498 
L 1151.45072 230.738045 
L 1151.49011 222.45908 
L 1151.529501 226.598576 
L 1177.093803 256.561712 
L 1177.211974 162.846504 
L 1177.251364 261.097056 
L 1177.330145 218.114296 
L 1177.408925 163.236964 
L 1177.448316 291.209286 
L 1177.487706 139.084194 
L 1177.527096 235.213015 
L 1177.566487 143.733741 
L 1177.645267 151.82643 
L 1177.684657 145.65058 
L 1177.724048 238.837636 
L 1177.763438 112.350735 
L 1177.802828 228.616257 
L 1177.842219 124.857654 
L 1177.920999 131.705916 
L 1177.960389 151.864628 
L 1177.99978 290.657372 
L 1203.564082 229.488565 
L 1203.603472 183.95418 
L 1203.682253 185.334435 
L 1203.721643 212.241536 
L 1203.800424 192.925126 
L 1203.839814 173.608278 
L 1203.918595 163.261354 
L 1203.997375 290.207723 
L 1204.115546 114.972385 
L 1204.154936 247.436987 
L 1204.233717 236.399978 
L 1204.273107 152.920941 
L 1204.351888 187.41771 
L 1204.470059 278.487178 
L 1230.034361 151.004728 
L 1230.113142 146.519271 
L 1230.152532 290.714655 
L 1230.191922 122.519673 
L 1230.270703 160.003048 
L 1230.388874 220.913319 
L 1230.467654 134.856164 
L 1230.546435 106.272967 
L 1230.585825 265.406111 
L 1230.625215 104.5555 
L 1230.703996 127.452516 
L 1230.743386 262.873632 
L 1230.782777 112.051018 
L 1230.822167 166.19337 
L 1230.861557 200.379308 
L 1230.900948 139.400372 
L 1230.940338 596.584372 
L 1256.50464 139.173709 
L 1256.622811 290.781191 
L 1256.662201 155.436702 
L 1256.740982 197.060632 
L 1256.780372 229.737896 
L 1256.819762 224.862273 
L 1256.859153 126.37063 
L 1256.898543 297.741639 
L 1256.937933 138.351098 
L 1256.977324 315.30153 
L 1257.016714 136.050064 
L 1257.056104 254.199545 
L 1257.134885 125.803434 
L 1257.174275 291.529113 
L 1257.253056 287.575785 
L 1257.292446 124.184926 
L 1257.371227 248.703743 
L 1257.410617 217.522956 
L 1282.974919 79.253575 
L 1283.014309 252.329626 
L 1283.09309 175.335861 
L 1283.13248 263.12648 
L 1283.171871 77.145273 
L 1283.211261 292.837023 
L 1283.250651 142.648161 
L 1283.290041 113.621648 
L 1283.329432 322.638001 
L 1283.368822 85.457797 
L 1283.408212 253.7048 
L 1283.486993 112.305697 
L 1283.526383 309.497596 
L 1283.565774 73.882401 
L 1283.605164 209.207122 
L 1283.644554 211.421426 
L 1283.683944 75.861409 
L 1283.723335 240.8926 
L 1283.802115 532.644274 
L 1283.841506 390.742487 
L 1283.880896 167.240975 
L 1309.445198 259.484023 
L 1309.484588 278.625798 
L 1309.523979 275.717418 
L 1309.563369 136.120458 
L 1309.602759 406.259596 
L 1309.64215 116.911431 
L 1309.68154 276.246082 
L 1309.76032 127.443002 
L 1309.799711 394.491703 
L 1309.839101 118.761259 
L 1309.878491 241.56561 
L 1309.917882 253.820919 
L 1309.957272 140.736116 
L 1310.036053 171.723159 
L 1310.075443 278.157666 
L 1310.114833 185.434028 
L 1310.154223 146.129703 
L 1310.193614 295.502666 
L 1310.233004 96.943128 
L 1310.272394 212.469917 
L 1310.311785 203.46098 
L 1310.351175 156.56141 
L 1335.915477 189.919792 
L 1335.954867 216.816775 
L 1335.994258 167.800148 
L 1336.033648 237.823278 
L 1336.073038 180.242816 
L 1336.151819 228.586744 
L 1336.191209 93.22639 
L 1336.26999 156.398385 
L 1336.30938 183.243908 
L 1336.34877 287.629638 
L 1336.388161 136.276815 
L 1336.427551 250.179697 
L 1336.506332 160.318808 
L 1336.545722 319.521694 
L 1336.585112 59.600902 
L 1336.624502 254.673746 
L 1336.663893 53.300881 
L 1336.742673 194.946477 
L 1336.782064 193.509757 
L 1336.821454 246.080141 
L 1362.425146 157.049419 
L 1362.464537 169.26658 
L 1362.503927 108.930904 
L 1362.582708 64.996312 
L 1362.622098 237.266278 
L 1362.661488 94.997049 
L 1362.740269 183.908417 
L 1362.779659 101.809275 
L 1362.819049 290.505293 
L 1362.89783 192.231783 
L 1362.93722 207.08285 
L 1362.976611 115.452291 
L 1363.016001 312.702299 
L 1363.094781 248.989807 
L 1363.173562 127.028247 
L 1363.212952 320.055615 
L 1363.291733 225.944202 
" clip-path="url(#p01b1bb0c76)" style="fill: none; stroke: #00008b; stroke-opacity: 0.7; stroke-width: 0.5; stroke-linecap: square"/>
   </g>
   <g id="line2d_42">
    <path d="M 56.032188 228.2752 
L 1425.542187 228.2752 
" clip-path="url(#p01b1bb0c76)" style="fill: none; stroke: #000000; stroke-linecap: square"/>
   </g>
   <g id="patch_3">
    <path d="M 56.032188 670.739062 
L 56.032188 23.899062 
" style="fill: none; stroke: #000000; stroke-width: 0.8; stroke-linejoin: miter; stroke-linecap: square"/>
   </g>
   <g id="patch_4">
    <path d="M 1425.542187 670.739062 
L 1425.542187 23.899062 
" style="fill: none; stroke: #000000; stroke-width: 0.8; stroke-linejoin: miter; stroke-linecap: square"/>
   </g>
   <g id="patch_5">
    <path d="M 56.032188 670.739062 
L 1425.542187 670.739062 
" style="fill: none; stroke: #000000; stroke-width: 0.8; stroke-linejoin: miter; stroke-linecap: square"/>
   </g>
   <g id="patch_6">
    <path d="M 56.032188 23.899062 
L 1425.542187 23.899062 
" style="fill: none; stroke: #000000; stroke-width: 0.8; stroke-linejoin: miter; stroke-linecap: square"/>
   </g>
   <g id="text_23">
    <!-- Vorhersagefehler 2016 (Stündlich) - RMSE: 0.31 kW | NRMSE: 74.8% | MAPE: 60.7% | Pearson: 0.647 -->
    <g transform="translate(389.366406 17.899062) scale(0.14 -0.14)">
     <defs>
      <path id="DejaVuSans-56" d="M 1831 0 
L 50 4666 
L 709 4666 
L 2188 738 
L 3669 4666 
L 4325 4666 
L 2547 0 
L 1831 0 
z
" transform="scale(0.015625)"/>
      <path id="DejaVuSans-66" d="M 2375 4863 
L 2375 4384 
L 1825 4384 
Q 1516 4384 1395 4259 
Q 1275 4134 1275 3809 
L 1275 3500 
L 2222 3500 
L 2222 3053 
L 1275 3053 
L 1275 0 
L 697 0 
L 697 3053 
L 147 3053 
L 147 3500 
L 697 3500 
L 697 3744 
Q 697 4328 969 4595 
Q 1241 4863 1831 4863 
L 2375 4863 
z
" transform="scale(0.015625)"/>
      <path id="DejaVuSans-36" d="M 2113 2584 
Q 1688 2584 1439 2293 
Q 1191 2003 1191 1497 
Q 1191 994 1439 701 
Q 1688 409 2113 409 
Q 2538 409 2786 701 
Q 3034 994 3034 1497 
Q 3034 2003 2786 2293 
Q 2538 2584 2113 2584 
z
M 3366 4563 
L 3366 3988 
Q 3128 4100 2886 4159 
Q 2644 4219 2406 4219 
Q 1781 4219 1451 3797 
Q 1122 3375 1075 2522 
Q 1259 2794 1537 2939 
Q 1816 3084 2150 3084 
Q 2853 3084 3261 2657 
Q 3669 2231 3669 1497 
Q 3669 778 3244 343 
Q 2819 -91 2113 -91 
Q 1303 -91 875 529 
Q 447 1150 447 2328 
Q 447 3434 972 4092 
Q 1497 4750 2381 4750 
Q 2619 4750 2861 4703 
Q 3103 4656 3366 4563 
z
" transform="scale(0.015625)"/>
      <path id="DejaVuSans-fc" d="M 544 1381 
L 544 3500 
L 1119 3500 
L 1119 1403 
Q 1119 906 1312 657 
Q 1506 409 1894 409 
Q 2359 409 2629 706 
Q 2900 1003 2900 1516 
L 2900 3500 
L 3475 3500 
L 3475 0 
L 2900 0 
L 2900 538 
Q 2691 219 2414 64 
Q 2138 -91 1772 -91 
Q 1169 -91 856 284 
Q 544 659 544 1381 
z
M 1991 3584 
L 1991 3584 
z
M 2278 4850 
L 2912 4850 
L 2912 4219 
L 2278 4219 
L 2278 4850 
z
M 1056 4850 
L 1690 4850 
L 1690 4219 
L 1056 4219 
L 1056 4850 
z
" transform="scale(0.015625)"/>
      <path id="DejaVuSans-64" d="M 2906 2969 
L 2906 4863 
L 3481 4863 
L 3481 0 
L 2906 0 
L 2906 525 
Q 2725 213 2448 61 
Q 2172 -91 1784 -91 
Q 1150 -91 751 415 
Q 353 922 353 1747 
Q 353 2572 751 3078 
Q 1150 3584 1784 3584 
Q 2172 3584 2448 3432 
Q 2725 3281 2906 2969 
z
M 947 1747 
Q 947 1113 1208 752 
Q 1469 391 1925 391 
Q 2381 391 2643 752 
Q 2906 1113 2906 1747 
Q 2906 2381 2643 2742 
Q 2381 3103 1925 3103 
Q 1469 3103 1208 2742 
Q 947 2381 947 1747 
z
" transform="scale(0.015625)"/>
      <path id="DejaVuSans-69" d="M 603 3500 
L 1178 3500 
L 1178 0 
L 603 0 
L 603 3500 
z
M 603 4863 
L 1178 4863 
L 1178 4134 
L 603 4134 
L 603 4863 
z
" transform="scale(0.015625)"/>
      <path id="DejaVuSans-52" d="M 2841 2188 
Q 3044 2119 3236 1894 
Q 3428 1669 3622 1275 
L 4263 0 
L 3584 0 
L 2988 1197 
Q 2756 1666 2539 1819 
Q 2322 1972 1947 1972 
L 1259 1972 
L 1259 0 
L 628 0 
L 628 4666 
L 2053 4666 
Q 2853 4666 3247 4331 
Q 3641 3997 3641 3322 
Q 3641 2881 3436 2590 
Q 3231 2300 2841 2188 
z
M 1259 4147 
L 1259 2491 
L 2053 2491 
Q 2509 2491 2742 2702 
Q 2975 2913 2975 3322 
Q 2975 3731 2742 3939 
Q 2509 4147 2053 4147 
L 1259 4147 
z
" transform="scale(0.015625)"/>
      <path id="DejaVuSans-45" d="M 628 4666 
L 3578 4666 
L 3578 4134 
L 1259 4134 
L 1259 2753 
L 3481 2753 
L 3481 2222 
L 1259 2222 
L 1259 531 
L 3634 531 
L 3634 0 
L 628 0 
L 628 4666 
z
" transform="scale(0.015625)"/>
      <path id="DejaVuSans-3a" d="M 750 794 
L 1409 794 
L 1409 0 
L 750 0 
L 750 794 
z
M 750 3309 
L 1409 3309 
L 1409 2516 
L 750 2516 
L 750 3309 
z
" transform="scale(0.015625)"/>
      <path id="DejaVuSans-33" d="M 2597 2516 
Q 3050 2419 3304 2112 
Q 3559 1806 3559 1356 
Q 3559 666 3084 287 
Q 2609 -91 1734 -91 
Q 1441 -91 1130 -33 
Q 819 25 488 141 
L 488 750 
Q 750 597 1062 519 
Q 1375 441 1716 441 
Q 2309 441 2620 675 
Q 2931 909 2931 1356 
Q 2931 1769 2642 2001 
Q 2353 2234 1838 2234 
L 1294 2234 
L 1294 2753 
L 1863 2753 
Q 2328 2753 2575 2939 
Q 2822 3125 2822 3475 
Q 2822 3834 2567 4026 
Q 2313 4219 1838 4219 
Q 1578 4219 1281 4162 
Q 984 4106 628 3988 
L 628 4550 
Q 988 4650 1302 4700 
Q 1616 4750 1894 4750 
Q 2613 4750 3031 4423 
Q 3450 4097 3450 3541 
Q 3450 3153 3228 2886 
Q 3006 2619 2597 2516 
z
" transform="scale(0.015625)"/>
      <path id="DejaVuSans-7c" d="M 1344 4891 
L 1344 -1509 
L 813 -1509 
L 813 4891 
L 1344 4891 
z
" transform="scale(0.015625)"/>
      <path id="DejaVuSans-37" d="M 525 4666 
L 3525 4666 
L 3525 4397 
L 1831 0 
L 1172 0 
L 2766 4134 
L 525 4134 
L 525 4666 
z
" transform="scale(0.015625)"/>
      <path id="DejaVuSans-34" d="M 2419 4116 
L 825 1625 
L 2419 1625 
L 2419 4116 
z
M 2253 4666 
L 3047 4666 
L 3047 1625 
L 3713 1625 
L 3713 1100 
L 3047 1100 
L 3047 0 
L 2419 0 
L 2419 1100 
L 313 1100 
L 313 1709 
L 2253 4666 
z
" transform="scale(0.015625)"/>
      <path id="DejaVuSans-38" d="M 2034 2216 
Q 1584 2216 1326 1975 
Q 1069 1734 1069 1313 
Q 1069 891 1326 650 
Q 1584 409 2034 409 
Q 2484 409 2743 651 
Q 3003 894 3003 1313 
Q 3003 1734 2745 1975 
Q 2488 2216 2034 2216 
z
M 1403 2484 
Q 997 2584 770 2862 
Q 544 3141 544 3541 
Q 544 4100 942 4425 
Q 1341 4750 2034 4750 
Q 2731 4750 3128 4425 
Q 3525 4100 3525 3541 
Q 3525 3141 3298 2862 
Q 3072 2584 2669 2484 
Q 3125 2378 3379 2068 
Q 3634 1759 3634 1313 
Q 3634 634 3220 271 
Q 2806 -91 2034 -91 
Q 1263 -91 848 271 
Q 434 634 434 1313 
Q 434 1759 690 2068 
Q 947 2378 1403 2484 
z
M 1172 3481 
Q 1172 3119 1398 2916 
Q 1625 2713 2034 2713 
Q 2441 2713 2670 2916 
Q 2900 3119 2900 3481 
Q 2900 3844 2670 4047 
Q 2441 4250 2034 4250 
Q 1625 4250 1398 4047 
Q 1172 3844 1172 3481 
z
" transform="scale(0.015625)"/>
      <path id="DejaVuSans-25" d="M 4653 2053 
Q 4381 2053 4226 1822 
Q 4072 1591 4072 1178 
Q 4072 772 4226 539 
Q 4381 306 4653 306 
Q 4919 306 5073 539 
Q 5228 772 5228 1178 
Q 5228 1588 5073 1820 
Q 4919 2053 4653 2053 
z
M 4653 2450 
Q 5147 2450 5437 2106 
Q 5728 1763 5728 1178 
Q 5728 594 5436 251 
Q 5144 -91 4653 -91 
Q 4153 -91 3862 251 
Q 3572 594 3572 1178 
Q 3572 1766 3864 2108 
Q 4156 2450 4653 2450 
z
M 1428 4353 
Q 1159 4353 1004 4120 
Q 850 3888 850 3481 
Q 850 3069 1003 2837 
Q 1156 2606 1428 2606 
Q 1700 2606 1854 2837 
Q 2009 3069 2009 3481 
Q 2009 3884 1853 4118 
Q 1697 4353 1428 4353 
z
M 4250 4750 
L 4750 4750 
L 1831 -91 
L 1331 -91 
L 4250 4750 
z
M 1428 4750 
Q 1922 4750 2215 4408 
Q 2509 4066 2509 3481 
Q 2509 2891 2217 2550 
Q 1925 2209 1428 2209 
Q 931 2209 642 2551 
Q 353 2894 353 3481 
Q 353 4063 643 4406 
Q 934 4750 1428 4750 
z
" transform="scale(0.015625)"/>
     </defs>
     <use xlink:href="#DejaVuSans-56"/>
     <use xlink:href="#DejaVuSans-6f" transform="translate(60.658203 0)"/>
     <use xlink:href="#DejaVuSans-72" transform="translate(121.839844 0)"/>
     <use xlink:href="#DejaVuSans-68" transform="translate(161.203125 0)"/>
     <use xlink:href="#DejaVuSans-65" transform="translate(224.582031 0)"/>
     <use xlink:href="#DejaVuSans-72" transform="translate(286.105469 0)"/>
     <use xlink:href="#DejaVuSans-73" transform="translate(327.21875 0)"/>
     <use xlink:href="#DejaVuSans-61" transform="translate(379.318359 0)"/>
     <use xlink:href="#DejaVuSans-67" transform="translate(440.597656 0)"/>
     <use xlink:href="#DejaVuSans-65" transform="translate(504.074219 0)"/>
     <use xlink:href="#DejaVuSans-66" transform="translate(565.597656 0)"/>
     <use xlink:href="#DejaVuSans-65" transform="translate(600.802734 0)"/>
     <use xlink:href="#DejaVuSans-68" transform="translate(662.326172 0)"/>
     <use xlink:href="#DejaVuSans-6c" transform="translate(725.705078 0)"/>
     <use xlink:href="#DejaVuSans-65" transform="translate(753.488281 0)"/>
     <use xlink:href="#DejaVuSans-72" transform="translate(815.011719 0)"/>
     <use xlink:href="#DejaVuSans-20" transform="translate(856.125 0)"/>
     <use xlink:href="#DejaVuSans-32" transform="translate(887.912109 0)"/>
     <use xlink:href="#DejaVuSans-30" transform="translate(951.535156 0)"/>
     <use xlink:href="#DejaVuSans-31" transform="translate(1015.158203 0)"/>
     <use xlink:href="#DejaVuSans-36" transform="translate(1078.78125 0)"/>
     <use xlink:href="#DejaVuSans-20" transform="translate(1142.404297 0)"/>
     <use xlink:href="#DejaVuSans-28" transform="translate(1174.191406 0)"/>
     <use xlink:href="#DejaVuSans-53" transform="translate(1213.205078 0)"/>
     <use xlink:href="#DejaVuSans-74" transform="translate(1276.681641 0)"/>
     <use xlink:href="#DejaVuSans-fc" transform="translate(1315.890625 0)"/>
     <use xlink:href="#DejaVuSans-6e" transform="translate(1379.269531 0)"/>
     <use xlink:href="#DejaVuSans-64" transform="translate(1442.648438 0)"/>
     <use xlink:href="#DejaVuSans-6c" transform="translate(1506.125 0)"/>
     <use xlink:href="#DejaVuSans-69" transform="translate(1533.908203 0)"/>
     <use xlink:href="#DejaVuSans-63" transform="translate(1561.691406 0)"/>
     <use xlink:href="#DejaVuSans-68" transform="translate(1616.671875 0)"/>
     <use xlink:href="#DejaVuSans-29" transform="translate(1680.050781 0)"/>
     <use xlink:href="#DejaVuSans-20" transform="translate(1719.064453 0)"/>
     <use xlink:href="#DejaVuSans-2d" transform="translate(1750.851562 0)"/>
     <use xlink:href="#DejaVuSans-20" transform="translate(1786.935547 0)"/>
     <use xlink:href="#DejaVuSans-52" transform="translate(1818.722656 0)"/>
     <use xlink:href="#DejaVuSans-4d" transform="translate(1888.205078 0)"/>
     <use xlink:href="#DejaVuSans-53" transform="translate(1974.484375 0)"/>
     <use xlink:href="#DejaVuSans-45" transform="translate(2037.960938 0)"/>
     <use xlink:href="#DejaVuSans-3a" transform="translate(2101.144531 0)"/>
     <use xlink:href="#DejaVuSans-20" transform="translate(2134.835938 0)"/>
     <use xlink:href="#DejaVuSans-30" transform="translate(2166.623047 0)"/>
     <use xlink:href="#DejaVuSans-2e" transform="translate(2230.246094 0)"/>
     <use xlink:href="#DejaVuSans-33" transform="translate(2262.033203 0)"/>
     <use xlink:href="#DejaVuSans-31" transform="translate(2325.65625 0)"/>
     <use xlink:href="#DejaVuSans-20" transform="translate(2389.279297 0)"/>
     <use xlink:href="#DejaVuSans-6b" transform="translate(2421.066406 0)"/>
     <use xlink:href="#DejaVuSans-57" transform="translate(2478.976562 0)"/>
     <use xlink:href="#DejaVuSans-20" transform="translate(2577.853516 0)"/>
     <use xlink:href="#DejaVuSans-7c" transform="translate(2609.640625 0)"/>
     <use xlink:href="#DejaVuSans-20" transform="translate(2643.332031 0)"/>
     <use xlink:href="#DejaVuSans-4e" transform="translate(2675.119141 0)"/>
     <use xlink:href="#DejaVuSans-52" transform="translate(2749.923828 0)"/>
     <use xlink:href="#DejaVuSans-4d" transform="translate(2819.40625 0)"/>
     <use xlink:href="#DejaVuSans-53" transform="translate(2905.685547 0)"/>
     <use xlink:href="#DejaVuSans-45" transform="translate(2969.162109 0)"/>
     <use xlink:href="#DejaVuSans-3a" transform="translate(3032.345703 0)"/>
     <use xlink:href="#DejaVuSans-20" transform="translate(3066.037109 0)"/>
     <use xlink:href="#DejaVuSans-37" transform="translate(3097.824219 0)"/>
     <use xlink:href="#DejaVuSans-34" transform="translate(3161.447266 0)"/>
     <use xlink:href="#DejaVuSans-2e" transform="translate(3225.070312 0)"/>
     <use xlink:href="#DejaVuSans-38" transform="translate(3256.857422 0)"/>
     <use xlink:href="#DejaVuSans-25" transform="translate(3320.480469 0)"/>
     <use xlink:href="#DejaVuSans-20" transform="translate(3415.5 0)"/>
     <use xlink:href="#DejaVuSans-7c" transform="translate(3447.287109 0)"/>
     <use xlink:href="#DejaVuSans-20" transform="translate(3480.978516 0)"/>
     <use xlink:href="#DejaVuSans-4d" transform="translate(3512.765625 0)"/>
     <use xlink:href="#DejaVuSans-41" transform="translate(3599.044922 0)"/>
     <use xlink:href="#DejaVuSans-50" transform="translate(3667.453125 0)"/>
     <use xlink:href="#DejaVuSans-45" transform="translate(3727.755859 0)"/>
     <use xlink:href="#DejaVuSans-3a" transform="translate(3790.939453 0)"/>
     <use xlink:href="#DejaVuSans-20" transform="translate(3824.630859 0)"/>
     <use xlink:href="#DejaVuSans-36" transform="translate(3856.417969 0)"/>
     <use xlink:href="#DejaVuSans-30" transform="translate(3920.041016 0)"/>
     <use xlink:href="#DejaVuSans-2e" transform="translate(3983.664062 0)"/>
     <use xlink:href="#DejaVuSans-37" transform="translate(4015.451172 0)"/>
     <use xlink:href="#DejaVuSans-25" transform="translate(4079.074219 0)"/>
     <use xlink:href="#DejaVuSans-20" transform="translate(4174.09375 0)"/>
     <use xlink:href="#DejaVuSans-7c" transform="translate(4205.880859 0)"/>
     <use xlink:href="#DejaVuSans-20" transform="translate(4239.572266 0)"/>
     <use xlink:href="#DejaVuSans-50" transform="translate(4271.359375 0)"/>
     <use xlink:href="#DejaVuSans-65" transform="translate(4328.037109 0)"/>
     <use xlink:href="#DejaVuSans-61" transform="translate(4389.560547 0)"/>
     <use xlink:href="#DejaVuSans-72" transform="translate(4450.839844 0)"/>
     <use xlink:href="#DejaVuSans-73" transform="translate(4491.953125 0)"/>
     <use xlink:href="#DejaVuSans-6f" transform="translate(4544.052734 0)"/>
     <use xlink:href="#DejaVuSans-6e" transform="translate(4605.234375 0)"/>
     <use xlink:href="#DejaVuSans-3a" transform="translate(4668.613281 0)"/>
     <use xlink:href="#DejaVuSans-20" transform="translate(4702.304688 0)"/>
     <use xlink:href="#DejaVuSans-30" transform="translate(4734.091797 0)"/>
     <use xlink:href="#DejaVuSans-2e" transform="translate(4797.714844 0)"/>
     <use xlink:href="#DejaVuSans-36" transform="translate(4829.501953 0)"/>
     <use xlink:href="#DejaVuSans-34" transform="translate(4893.125 0)"/>
     <use xlink:href="#DejaVuSans-37" transform="translate(4956.748047 0)"/>
    </g>
   </g>
  </g>
 </g>
 <defs>
  <clipPath id="p01b1bb0c76">
   <rect x="56.032188" y="23.899062" width="1369.51" height="646.84"/>
  </clipPath>
 </defs>
</svg>
