<?xml version="1.0" encoding="utf-8" standalone="no"?>
<!DOCTYPE svg PUBLIC "-//W3C//DTD SVG 1.1//EN"
  "http://www.w3.org/Graphics/SVG/1.1/DTD/svg11.dtd">
<svg xmlns:xlink="http://www.w3.org/1999/xlink" width="1432.832187pt" height="712.166562pt" viewBox="0 0 1432.832187 712.166562" xmlns="http://www.w3.org/2000/svg" version="1.1">
 <metadata>
  <rdf:RDF xmlns:dc="http://purl.org/dc/elements/1.1/" xmlns:cc="http://creativecommons.org/ns#" xmlns:rdf="http://www.w3.org/1999/02/22-rdf-syntax-ns#">
   <cc:Work>
    <dc:type rdf:resource="http://purl.org/dc/dcmitype/StillImage"/>
    <dc:date>2025-12-17T21:38:17.404007</dc:date>
    <dc:format>image/svg+xml</dc:format>
    <dc:creator>
     <cc:Agent>
      <dc:title>Matplotlib v3.10.7, https://matplotlib.org/</dc:title>
     </cc:Agent>
    </dc:creator>
   </cc:Work>
  </rdf:RDF>
 </metadata>
 <defs>
  <style type="text/css">*{stroke-linejoin: round; stroke-linecap: butt}</style>
 </defs>
 <g id="figure_1">
  <g id="patch_1">
   <path d="M 0 712.166562 
L 1432.832187 712.166562 
L 1432.832187 0 
L 0 0 
z
" style="fill: #ffffff"/>
  </g>
  <g id="axes_1">
   <g id="patch_2">
    <path d="M 56.032188 670.739062 
L 1425.632187 670.739062 
L 1425.632187 23.899062 
L 56.032188 23.899062 
z
" style="fill: #ffffff"/>
   </g>
   <g id="matplotlib.axis_1">
    <g id="xtick_1">
     <g id="line2d_1">
      <path d="M 118.286733 670.739062 
L 118.286733 23.899062 
" clip-path="url(#p04291eb2c0)" style="fill: none; stroke: #b0b0b0; stroke-opacity: 0.3; stroke-width: 0.8; stroke-linecap: square"/>
     </g>
     <g id="line2d_2">
      <defs>
       <path id="m2b8623c2cf" d="M 0 0 
L 0 3.5 
" style="stroke: #000000; stroke-width: 0.8"/>
      </defs>
      <g>
       <use xlink:href="#m2b8623c2cf" x="118.286733" y="670.739062" style="stroke: #000000; stroke-width: 0.8"/>
      </g>
     </g>
     <g id="text_1">
      <!-- Feb -->
      <g transform="translate(109.43517 685.3375) scale(0.1 -0.1)">
       <defs>
        <path id="DejaVuSans-46" d="M 628 4666 
L 3309 4666 
L 3309 4134 
L 1259 4134 
L 1259 2759 
L 3109 2759 
L 3109 2228 
L 1259 2228 
L 1259 0 
L 628 0 
L 628 4666 
z
" transform="scale(0.015625)"/>
        <path id="DejaVuSans-65" d="M 3597 1894 
L 3597 1613 
L 953 1613 
Q 991 1019 1311 708 
Q 1631 397 2203 397 
Q 2534 397 2845 478 
Q 3156 559 3463 722 
L 3463 178 
Q 3153 47 2828 -22 
Q 2503 -91 2169 -91 
Q 1331 -91 842 396 
Q 353 884 353 1716 
Q 353 2575 817 3079 
Q 1281 3584 2069 3584 
Q 2775 3584 3186 3129 
Q 3597 2675 3597 1894 
z
M 3022 2063 
Q 3016 2534 2758 2815 
Q 2500 3097 2075 3097 
Q 1594 3097 1305 2825 
Q 1016 2553 972 2059 
L 3022 2063 
z
" transform="scale(0.015625)"/>
        <path id="DejaVuSans-62" d="M 3116 1747 
Q 3116 2381 2855 2742 
Q 2594 3103 2138 3103 
Q 1681 3103 1420 2742 
Q 1159 2381 1159 1747 
Q 1159 1113 1420 752 
Q 1681 391 2138 391 
Q 2594 391 2855 752 
Q 3116 1113 3116 1747 
z
M 1159 2969 
Q 1341 3281 1617 3432 
Q 1894 3584 2278 3584 
Q 2916 3584 3314 3078 
Q 3713 2572 3713 1747 
Q 3713 922 3314 415 
Q 2916 -91 2278 -91 
Q 1894 -91 1617 61 
Q 1341 213 1159 525 
L 1159 0 
L 581 0 
L 581 4863 
L 1159 4863 
L 1159 2969 
z
" transform="scale(0.015625)"/>
       </defs>
       <use xlink:href="#DejaVuSans-46"/>
       <use xlink:href="#DejaVuSans-65" transform="translate(52.019531 0)"/>
       <use xlink:href="#DejaVuSans-62" transform="translate(113.542969 0)"/>
      </g>
     </g>
    </g>
    <g id="xtick_2">
     <g id="line2d_3">
      <path d="M 227.956524 670.739062 
L 227.956524 23.899062 
" clip-path="url(#p04291eb2c0)" style="fill: none; stroke: #b0b0b0; stroke-opacity: 0.3; stroke-width: 0.8; stroke-linecap: square"/>
     </g>
     <g id="line2d_4">
      <g>
       <use xlink:href="#m2b8623c2cf" x="227.956524" y="670.739062" style="stroke: #000000; stroke-width: 0.8"/>
      </g>
     </g>
     <g id="text_2">
      <!-- Mar -->
      <g transform="translate(218.52293 685.3375) scale(0.1 -0.1)">
       <defs>
        <path id="DejaVuSans-4d" d="M 628 4666 
L 1569 4666 
L 2759 1491 
L 3956 4666 
L 4897 4666 
L 4897 0 
L 4281 0 
L 4281 4097 
L 3078 897 
L 2444 897 
L 1241 4097 
L 1241 0 
L 628 0 
L 628 4666 
z
" transform="scale(0.015625)"/>
        <path id="DejaVuSans-61" d="M 2194 1759 
Q 1497 1759 1228 1600 
Q 959 1441 959 1056 
Q 959 750 1161 570 
Q 1363 391 1709 391 
Q 2188 391 2477 730 
Q 2766 1069 2766 1631 
L 2766 1759 
L 2194 1759 
z
M 3341 1997 
L 3341 0 
L 2766 0 
L 2766 531 
Q 2569 213 2275 61 
Q 1981 -91 1556 -91 
Q 1019 -91 701 211 
Q 384 513 384 1019 
Q 384 1609 779 1909 
Q 1175 2209 1959 2209 
L 2766 2209 
L 2766 2266 
Q 2766 2663 2505 2880 
Q 2244 3097 1772 3097 
Q 1472 3097 1187 3025 
Q 903 2953 641 2809 
L 641 3341 
Q 956 3463 1253 3523 
Q 1550 3584 1831 3584 
Q 2591 3584 2966 3190 
Q 3341 2797 3341 1997 
z
" transform="scale(0.015625)"/>
        <path id="DejaVuSans-72" d="M 2631 2963 
Q 2534 3019 2420 3045 
Q 2306 3072 2169 3072 
Q 1681 3072 1420 2755 
Q 1159 2438 1159 1844 
L 1159 0 
L 581 0 
L 581 3500 
L 1159 3500 
L 1159 2956 
Q 1341 3275 1631 3429 
Q 1922 3584 2338 3584 
Q 2397 3584 2469 3576 
Q 2541 3569 2628 3553 
L 2631 2963 
z
" transform="scale(0.015625)"/>
       </defs>
       <use xlink:href="#DejaVuSans-4d"/>
       <use xlink:href="#DejaVuSans-61" transform="translate(86.279297 0)"/>
       <use xlink:href="#DejaVuSans-72" transform="translate(147.558594 0)"/>
      </g>
     </g>
    </g>
    <g id="xtick_3">
     <g id="line2d_5">
      <path d="M 345.189749 670.739062 
L 345.189749 23.899062 
" clip-path="url(#p04291eb2c0)" style="fill: none; stroke: #b0b0b0; stroke-opacity: 0.3; stroke-width: 0.8; stroke-linecap: square"/>
     </g>
     <g id="line2d_6">
      <g>
       <use xlink:href="#m2b8623c2cf" x="345.189749" y="670.739062" style="stroke: #000000; stroke-width: 0.8"/>
      </g>
     </g>
     <g id="text_3">
      <!-- Apr -->
      <g transform="translate(336.539749 685.3375) scale(0.1 -0.1)">
       <defs>
        <path id="DejaVuSans-41" d="M 2188 4044 
L 1331 1722 
L 3047 1722 
L 2188 4044 
z
M 1831 4666 
L 2547 4666 
L 4325 0 
L 3669 0 
L 3244 1197 
L 1141 1197 
L 716 0 
L 50 0 
L 1831 4666 
z
" transform="scale(0.015625)"/>
        <path id="DejaVuSans-70" d="M 1159 525 
L 1159 -1331 
L 581 -1331 
L 581 3500 
L 1159 3500 
L 1159 2969 
Q 1341 3281 1617 3432 
Q 1894 3584 2278 3584 
Q 2916 3584 3314 3078 
Q 3713 2572 3713 1747 
Q 3713 922 3314 415 
Q 2916 -91 2278 -91 
Q 1894 -91 1617 61 
Q 1341 213 1159 525 
z
M 3116 1747 
Q 3116 2381 2855 2742 
Q 2594 3103 2138 3103 
Q 1681 3103 1420 2742 
Q 1159 2381 1159 1747 
Q 1159 1113 1420 752 
Q 1681 391 2138 391 
Q 2594 391 2855 752 
Q 3116 1113 3116 1747 
z
" transform="scale(0.015625)"/>
       </defs>
       <use xlink:href="#DejaVuSans-41"/>
       <use xlink:href="#DejaVuSans-70" transform="translate(68.408203 0)"/>
       <use xlink:href="#DejaVuSans-72" transform="translate(131.884766 0)"/>
      </g>
     </g>
    </g>
    <g id="xtick_4">
     <g id="line2d_7">
      <path d="M 458.641257 670.739062 
L 458.641257 23.899062 
" clip-path="url(#p04291eb2c0)" style="fill: none; stroke: #b0b0b0; stroke-opacity: 0.3; stroke-width: 0.8; stroke-linecap: square"/>
     </g>
     <g id="line2d_8">
      <g>
       <use xlink:href="#m2b8623c2cf" x="458.641257" y="670.739062" style="stroke: #000000; stroke-width: 0.8"/>
      </g>
     </g>
     <g id="text_4">
      <!-- May -->
      <g transform="translate(448.303757 685.3375) scale(0.1 -0.1)">
       <defs>
        <path id="DejaVuSans-79" d="M 2059 -325 
Q 1816 -950 1584 -1140 
Q 1353 -1331 966 -1331 
L 506 -1331 
L 506 -850 
L 844 -850 
Q 1081 -850 1212 -737 
Q 1344 -625 1503 -206 
L 1606 56 
L 191 3500 
L 800 3500 
L 1894 763 
L 2988 3500 
L 3597 3500 
L 2059 -325 
z
" transform="scale(0.015625)"/>
       </defs>
       <use xlink:href="#DejaVuSans-4d"/>
       <use xlink:href="#DejaVuSans-61" transform="translate(86.279297 0)"/>
       <use xlink:href="#DejaVuSans-79" transform="translate(147.558594 0)"/>
      </g>
     </g>
    </g>
    <g id="xtick_5">
     <g id="line2d_9">
      <path d="M 575.874483 670.739062 
L 575.874483 23.899062 
" clip-path="url(#p04291eb2c0)" style="fill: none; stroke: #b0b0b0; stroke-opacity: 0.3; stroke-width: 0.8; stroke-linecap: square"/>
     </g>
     <g id="line2d_10">
      <g>
       <use xlink:href="#m2b8623c2cf" x="575.874483" y="670.739062" style="stroke: #000000; stroke-width: 0.8"/>
      </g>
     </g>
     <g id="text_5">
      <!-- Jun -->
      <g transform="translate(568.061983 685.3375) scale(0.1 -0.1)">
       <defs>
        <path id="DejaVuSans-4a" d="M 628 4666 
L 1259 4666 
L 1259 325 
Q 1259 -519 939 -900 
Q 619 -1281 -91 -1281 
L -331 -1281 
L -331 -750 
L -134 -750 
Q 284 -750 456 -515 
Q 628 -281 628 325 
L 628 4666 
z
" transform="scale(0.015625)"/>
        <path id="DejaVuSans-75" d="M 544 1381 
L 544 3500 
L 1119 3500 
L 1119 1403 
Q 1119 906 1312 657 
Q 1506 409 1894 409 
Q 2359 409 2629 706 
Q 2900 1003 2900 1516 
L 2900 3500 
L 3475 3500 
L 3475 0 
L 2900 0 
L 2900 538 
Q 2691 219 2414 64 
Q 2138 -91 1772 -91 
Q 1169 -91 856 284 
Q 544 659 544 1381 
z
M 1991 3584 
L 1991 3584 
z
" transform="scale(0.015625)"/>
        <path id="DejaVuSans-6e" d="M 3513 2113 
L 3513 0 
L 2938 0 
L 2938 2094 
Q 2938 2591 2744 2837 
Q 2550 3084 2163 3084 
Q 1697 3084 1428 2787 
Q 1159 2491 1159 1978 
L 1159 0 
L 581 0 
L 581 3500 
L 1159 3500 
L 1159 2956 
Q 1366 3272 1645 3428 
Q 1925 3584 2291 3584 
Q 2894 3584 3203 3211 
Q 3513 2838 3513 2113 
z
" transform="scale(0.015625)"/>
       </defs>
       <use xlink:href="#DejaVuSans-4a"/>
       <use xlink:href="#DejaVuSans-75" transform="translate(29.492188 0)"/>
       <use xlink:href="#DejaVuSans-6e" transform="translate(92.871094 0)"/>
      </g>
     </g>
    </g>
    <g id="xtick_6">
     <g id="line2d_11">
      <path d="M 689.325991 670.739062 
L 689.325991 23.899062 
" clip-path="url(#p04291eb2c0)" style="fill: none; stroke: #b0b0b0; stroke-opacity: 0.3; stroke-width: 0.8; stroke-linecap: square"/>
     </g>
     <g id="line2d_12">
      <g>
       <use xlink:href="#m2b8623c2cf" x="689.325991" y="670.739062" style="stroke: #000000; stroke-width: 0.8"/>
      </g>
     </g>
     <g id="text_6">
      <!-- Jul -->
      <g transform="translate(683.293178 685.3375) scale(0.1 -0.1)">
       <defs>
        <path id="DejaVuSans-6c" d="M 603 4863 
L 1178 4863 
L 1178 0 
L 603 0 
L 603 4863 
z
" transform="scale(0.015625)"/>
       </defs>
       <use xlink:href="#DejaVuSans-4a"/>
       <use xlink:href="#DejaVuSans-75" transform="translate(29.492188 0)"/>
       <use xlink:href="#DejaVuSans-6c" transform="translate(92.871094 0)"/>
      </g>
     </g>
    </g>
    <g id="xtick_7">
     <g id="line2d_13">
      <path d="M 806.559216 670.739062 
L 806.559216 23.899062 
" clip-path="url(#p04291eb2c0)" style="fill: none; stroke: #b0b0b0; stroke-opacity: 0.3; stroke-width: 0.8; stroke-linecap: square"/>
     </g>
     <g id="line2d_14">
      <g>
       <use xlink:href="#m2b8623c2cf" x="806.559216" y="670.739062" style="stroke: #000000; stroke-width: 0.8"/>
      </g>
     </g>
     <g id="text_7">
      <!-- Aug -->
      <g transform="translate(796.795934 685.3375) scale(0.1 -0.1)">
       <defs>
        <path id="DejaVuSans-67" d="M 2906 1791 
Q 2906 2416 2648 2759 
Q 2391 3103 1925 3103 
Q 1463 3103 1205 2759 
Q 947 2416 947 1791 
Q 947 1169 1205 825 
Q 1463 481 1925 481 
Q 2391 481 2648 825 
Q 2906 1169 2906 1791 
z
M 3481 434 
Q 3481 -459 3084 -895 
Q 2688 -1331 1869 -1331 
Q 1566 -1331 1297 -1286 
Q 1028 -1241 775 -1147 
L 775 -588 
Q 1028 -725 1275 -790 
Q 1522 -856 1778 -856 
Q 2344 -856 2625 -561 
Q 2906 -266 2906 331 
L 2906 616 
Q 2728 306 2450 153 
Q 2172 0 1784 0 
Q 1141 0 747 490 
Q 353 981 353 1791 
Q 353 2603 747 3093 
Q 1141 3584 1784 3584 
Q 2172 3584 2450 3431 
Q 2728 3278 2906 2969 
L 2906 3500 
L 3481 3500 
L 3481 434 
z
" transform="scale(0.015625)"/>
       </defs>
       <use xlink:href="#DejaVuSans-41"/>
       <use xlink:href="#DejaVuSans-75" transform="translate(68.408203 0)"/>
       <use xlink:href="#DejaVuSans-67" transform="translate(131.787109 0)"/>
      </g>
     </g>
    </g>
    <g id="xtick_8">
     <g id="line2d_15">
      <path d="M 923.792441 670.739062 
L 923.792441 23.899062 
" clip-path="url(#p04291eb2c0)" style="fill: none; stroke: #b0b0b0; stroke-opacity: 0.3; stroke-width: 0.8; stroke-linecap: square"/>
     </g>
     <g id="line2d_16">
      <g>
       <use xlink:href="#m2b8623c2cf" x="923.792441" y="670.739062" style="stroke: #000000; stroke-width: 0.8"/>
      </g>
     </g>
     <g id="text_8">
      <!-- Sep -->
      <g transform="translate(914.367441 685.3375) scale(0.1 -0.1)">
       <defs>
        <path id="DejaVuSans-53" d="M 3425 4513 
L 3425 3897 
Q 3066 4069 2747 4153 
Q 2428 4238 2131 4238 
Q 1616 4238 1336 4038 
Q 1056 3838 1056 3469 
Q 1056 3159 1242 3001 
Q 1428 2844 1947 2747 
L 2328 2669 
Q 3034 2534 3370 2195 
Q 3706 1856 3706 1288 
Q 3706 609 3251 259 
Q 2797 -91 1919 -91 
Q 1588 -91 1214 -16 
Q 841 59 441 206 
L 441 856 
Q 825 641 1194 531 
Q 1563 422 1919 422 
Q 2459 422 2753 634 
Q 3047 847 3047 1241 
Q 3047 1584 2836 1778 
Q 2625 1972 2144 2069 
L 1759 2144 
Q 1053 2284 737 2584 
Q 422 2884 422 3419 
Q 422 4038 858 4394 
Q 1294 4750 2059 4750 
Q 2388 4750 2728 4690 
Q 3069 4631 3425 4513 
z
" transform="scale(0.015625)"/>
       </defs>
       <use xlink:href="#DejaVuSans-53"/>
       <use xlink:href="#DejaVuSans-65" transform="translate(63.476562 0)"/>
       <use xlink:href="#DejaVuSans-70" transform="translate(125 0)"/>
      </g>
     </g>
    </g>
    <g id="xtick_9">
     <g id="line2d_17">
      <path d="M 1037.243949 670.739062 
L 1037.243949 23.899062 
" clip-path="url(#p04291eb2c0)" style="fill: none; stroke: #b0b0b0; stroke-opacity: 0.3; stroke-width: 0.8; stroke-linecap: square"/>
     </g>
     <g id="line2d_18">
      <g>
       <use xlink:href="#m2b8623c2cf" x="1037.243949" y="670.739062" style="stroke: #000000; stroke-width: 0.8"/>
      </g>
     </g>
     <g id="text_9">
      <!-- Oct -->
      <g transform="translate(1028.598636 685.3375) scale(0.1 -0.1)">
       <defs>
        <path id="DejaVuSans-4f" d="M 2522 4238 
Q 1834 4238 1429 3725 
Q 1025 3213 1025 2328 
Q 1025 1447 1429 934 
Q 1834 422 2522 422 
Q 3209 422 3611 934 
Q 4013 1447 4013 2328 
Q 4013 3213 3611 3725 
Q 3209 4238 2522 4238 
z
M 2522 4750 
Q 3503 4750 4090 4092 
Q 4678 3434 4678 2328 
Q 4678 1225 4090 567 
Q 3503 -91 2522 -91 
Q 1538 -91 948 565 
Q 359 1222 359 2328 
Q 359 3434 948 4092 
Q 1538 4750 2522 4750 
z
" transform="scale(0.015625)"/>
        <path id="DejaVuSans-63" d="M 3122 3366 
L 3122 2828 
Q 2878 2963 2633 3030 
Q 2388 3097 2138 3097 
Q 1578 3097 1268 2742 
Q 959 2388 959 1747 
Q 959 1106 1268 751 
Q 1578 397 2138 397 
Q 2388 397 2633 464 
Q 2878 531 3122 666 
L 3122 134 
Q 2881 22 2623 -34 
Q 2366 -91 2075 -91 
Q 1284 -91 818 406 
Q 353 903 353 1747 
Q 353 2603 823 3093 
Q 1294 3584 2113 3584 
Q 2378 3584 2631 3529 
Q 2884 3475 3122 3366 
z
" transform="scale(0.015625)"/>
        <path id="DejaVuSans-74" d="M 1172 4494 
L 1172 3500 
L 2356 3500 
L 2356 3053 
L 1172 3053 
L 1172 1153 
Q 1172 725 1289 603 
Q 1406 481 1766 481 
L 2356 481 
L 2356 0 
L 1766 0 
Q 1100 0 847 248 
Q 594 497 594 1153 
L 594 3053 
L 172 3053 
L 172 3500 
L 594 3500 
L 594 4494 
L 1172 4494 
z
" transform="scale(0.015625)"/>
       </defs>
       <use xlink:href="#DejaVuSans-4f"/>
       <use xlink:href="#DejaVuSans-63" transform="translate(78.710938 0)"/>
       <use xlink:href="#DejaVuSans-74" transform="translate(133.691406 0)"/>
      </g>
     </g>
    </g>
    <g id="xtick_10">
     <g id="line2d_19">
      <path d="M 1154.477174 670.739062 
L 1154.477174 23.899062 
" clip-path="url(#p04291eb2c0)" style="fill: none; stroke: #b0b0b0; stroke-opacity: 0.3; stroke-width: 0.8; stroke-linecap: square"/>
     </g>
     <g id="line2d_20">
      <g>
       <use xlink:href="#m2b8623c2cf" x="1154.477174" y="670.739062" style="stroke: #000000; stroke-width: 0.8"/>
      </g>
     </g>
     <g id="text_10">
      <!-- Nov -->
      <g transform="translate(1144.717799 685.3375) scale(0.1 -0.1)">
       <defs>
        <path id="DejaVuSans-4e" d="M 628 4666 
L 1478 4666 
L 3547 763 
L 3547 4666 
L 4159 4666 
L 4159 0 
L 3309 0 
L 1241 3903 
L 1241 0 
L 628 0 
L 628 4666 
z
" transform="scale(0.015625)"/>
        <path id="DejaVuSans-6f" d="M 1959 3097 
Q 1497 3097 1228 2736 
Q 959 2375 959 1747 
Q 959 1119 1226 758 
Q 1494 397 1959 397 
Q 2419 397 2687 759 
Q 2956 1122 2956 1747 
Q 2956 2369 2687 2733 
Q 2419 3097 1959 3097 
z
M 1959 3584 
Q 2709 3584 3137 3096 
Q 3566 2609 3566 1747 
Q 3566 888 3137 398 
Q 2709 -91 1959 -91 
Q 1206 -91 779 398 
Q 353 888 353 1747 
Q 353 2609 779 3096 
Q 1206 3584 1959 3584 
z
" transform="scale(0.015625)"/>
        <path id="DejaVuSans-76" d="M 191 3500 
L 800 3500 
L 1894 563 
L 2988 3500 
L 3597 3500 
L 2284 0 
L 1503 0 
L 191 3500 
z
" transform="scale(0.015625)"/>
       </defs>
       <use xlink:href="#DejaVuSans-4e"/>
       <use xlink:href="#DejaVuSans-6f" transform="translate(74.804688 0)"/>
       <use xlink:href="#DejaVuSans-76" transform="translate(135.986328 0)"/>
      </g>
     </g>
    </g>
    <g id="xtick_11">
     <g id="line2d_21">
      <path d="M 1267.928682 670.739062 
L 1267.928682 23.899062 
" clip-path="url(#p04291eb2c0)" style="fill: none; stroke: #b0b0b0; stroke-opacity: 0.3; stroke-width: 0.8; stroke-linecap: square"/>
     </g>
     <g id="line2d_22">
      <g>
       <use xlink:href="#m2b8623c2cf" x="1267.928682" y="670.739062" style="stroke: #000000; stroke-width: 0.8"/>
      </g>
     </g>
     <g id="text_11">
      <!-- Dec -->
      <g transform="translate(1258.252901 685.3375) scale(0.1 -0.1)">
       <defs>
        <path id="DejaVuSans-44" d="M 1259 4147 
L 1259 519 
L 2022 519 
Q 2988 519 3436 956 
Q 3884 1394 3884 2338 
Q 3884 3275 3436 3711 
Q 2988 4147 2022 4147 
L 1259 4147 
z
M 628 4666 
L 1925 4666 
Q 3281 4666 3915 4102 
Q 4550 3538 4550 2338 
Q 4550 1131 3912 565 
Q 3275 0 1925 0 
L 628 0 
L 628 4666 
z
" transform="scale(0.015625)"/>
       </defs>
       <use xlink:href="#DejaVuSans-44"/>
       <use xlink:href="#DejaVuSans-65" transform="translate(77.001953 0)"/>
       <use xlink:href="#DejaVuSans-63" transform="translate(138.525391 0)"/>
      </g>
     </g>
    </g>
    <g id="xtick_12">
     <g id="line2d_23">
      <path d="M 1385.161907 670.739062 
L 1385.161907 23.899062 
" clip-path="url(#p04291eb2c0)" style="fill: none; stroke: #b0b0b0; stroke-opacity: 0.3; stroke-width: 0.8; stroke-linecap: square"/>
     </g>
     <g id="line2d_24">
      <g>
       <use xlink:href="#m2b8623c2cf" x="1385.161907" y="670.739062" style="stroke: #000000; stroke-width: 0.8"/>
      </g>
     </g>
     <g id="text_12">
      <!-- Jan -->
      <g transform="translate(1377.454095 685.3375) scale(0.1 -0.1)">
       <use xlink:href="#DejaVuSans-4a"/>
       <use xlink:href="#DejaVuSans-61" transform="translate(29.492188 0)"/>
       <use xlink:href="#DejaVuSans-6e" transform="translate(90.771484 0)"/>
      </g>
     </g>
    </g>
    <g id="text_13">
     <!-- Datum -->
     <g transform="translate(717.153594 702.055) scale(0.14 -0.14)">
      <defs>
       <path id="DejaVuSans-6d" d="M 3328 2828 
Q 3544 3216 3844 3400 
Q 4144 3584 4550 3584 
Q 5097 3584 5394 3201 
Q 5691 2819 5691 2113 
L 5691 0 
L 5113 0 
L 5113 2094 
Q 5113 2597 4934 2840 
Q 4756 3084 4391 3084 
Q 3944 3084 3684 2787 
Q 3425 2491 3425 1978 
L 3425 0 
L 2847 0 
L 2847 2094 
Q 2847 2600 2669 2842 
Q 2491 3084 2119 3084 
Q 1678 3084 1418 2786 
Q 1159 2488 1159 1978 
L 1159 0 
L 581 0 
L 581 3500 
L 1159 3500 
L 1159 2956 
Q 1356 3278 1631 3431 
Q 1906 3584 2284 3584 
Q 2666 3584 2933 3390 
Q 3200 3197 3328 2828 
z
" transform="scale(0.015625)"/>
      </defs>
      <use xlink:href="#DejaVuSans-44"/>
      <use xlink:href="#DejaVuSans-61" transform="translate(77.001953 0)"/>
      <use xlink:href="#DejaVuSans-74" transform="translate(138.28125 0)"/>
      <use xlink:href="#DejaVuSans-75" transform="translate(177.490234 0)"/>
      <use xlink:href="#DejaVuSans-6d" transform="translate(240.869141 0)"/>
     </g>
    </g>
   </g>
   <g id="matplotlib.axis_2">
    <g id="ytick_1">
     <g id="line2d_25">
      <path d="M 56.032188 565.120312 
L 1425.632187 565.120312 
" clip-path="url(#p04291eb2c0)" style="fill: none; stroke: #b0b0b0; stroke-opacity: 0.3; stroke-width: 0.8; stroke-linecap: square"/>
     </g>
     <g id="line2d_26">
      <defs>
       <path id="ma584c6fbfa" d="M 0 0 
L -3.5 0 
" style="stroke: #000000; stroke-width: 0.8"/>
      </defs>
      <g>
       <use xlink:href="#ma584c6fbfa" x="56.032188" y="565.120312" style="stroke: #000000; stroke-width: 0.8"/>
      </g>
     </g>
     <g id="text_14">
      <!-- −0.5 -->
      <g transform="translate(24.749375 568.919531) scale(0.1 -0.1)">
       <defs>
        <path id="DejaVuSans-2212" d="M 678 2272 
L 4684 2272 
L 4684 1741 
L 678 1741 
L 678 2272 
z
" transform="scale(0.015625)"/>
        <path id="DejaVuSans-30" d="M 2034 4250 
Q 1547 4250 1301 3770 
Q 1056 3291 1056 2328 
Q 1056 1369 1301 889 
Q 1547 409 2034 409 
Q 2525 409 2770 889 
Q 3016 1369 3016 2328 
Q 3016 3291 2770 3770 
Q 2525 4250 2034 4250 
z
M 2034 4750 
Q 2819 4750 3233 4129 
Q 3647 3509 3647 2328 
Q 3647 1150 3233 529 
Q 2819 -91 2034 -91 
Q 1250 -91 836 529 
Q 422 1150 422 2328 
Q 422 3509 836 4129 
Q 1250 4750 2034 4750 
z
" transform="scale(0.015625)"/>
        <path id="DejaVuSans-2e" d="M 684 794 
L 1344 794 
L 1344 0 
L 684 0 
L 684 794 
z
" transform="scale(0.015625)"/>
        <path id="DejaVuSans-35" d="M 691 4666 
L 3169 4666 
L 3169 4134 
L 1269 4134 
L 1269 2991 
Q 1406 3038 1543 3061 
Q 1681 3084 1819 3084 
Q 2600 3084 3056 2656 
Q 3513 2228 3513 1497 
Q 3513 744 3044 326 
Q 2575 -91 1722 -91 
Q 1428 -91 1123 -41 
Q 819 9 494 109 
L 494 744 
Q 775 591 1075 516 
Q 1375 441 1709 441 
Q 2250 441 2565 725 
Q 2881 1009 2881 1497 
Q 2881 1984 2565 2268 
Q 2250 2553 1709 2553 
Q 1456 2553 1204 2497 
Q 953 2441 691 2322 
L 691 4666 
z
" transform="scale(0.015625)"/>
       </defs>
       <use xlink:href="#DejaVuSans-2212"/>
       <use xlink:href="#DejaVuSans-30" transform="translate(83.789062 0)"/>
       <use xlink:href="#DejaVuSans-2e" transform="translate(147.412109 0)"/>
       <use xlink:href="#DejaVuSans-35" transform="translate(179.199219 0)"/>
      </g>
     </g>
    </g>
    <g id="ytick_2">
     <g id="line2d_27">
      <path d="M 56.032188 443.555701 
L 1425.632187 443.555701 
" clip-path="url(#p04291eb2c0)" style="fill: none; stroke: #b0b0b0; stroke-opacity: 0.3; stroke-width: 0.8; stroke-linecap: square"/>
     </g>
     <g id="line2d_28">
      <g>
       <use xlink:href="#ma584c6fbfa" x="56.032188" y="443.555701" style="stroke: #000000; stroke-width: 0.8"/>
      </g>
     </g>
     <g id="text_15">
      <!-- 0.0 -->
      <g transform="translate(33.129063 447.354919) scale(0.1 -0.1)">
       <use xlink:href="#DejaVuSans-30"/>
       <use xlink:href="#DejaVuSans-2e" transform="translate(63.623047 0)"/>
       <use xlink:href="#DejaVuSans-30" transform="translate(95.410156 0)"/>
      </g>
     </g>
    </g>
    <g id="ytick_3">
     <g id="line2d_29">
      <path d="M 56.032188 321.991089 
L 1425.632187 321.991089 
" clip-path="url(#p04291eb2c0)" style="fill: none; stroke: #b0b0b0; stroke-opacity: 0.3; stroke-width: 0.8; stroke-linecap: square"/>
     </g>
     <g id="line2d_30">
      <g>
       <use xlink:href="#ma584c6fbfa" x="56.032188" y="321.991089" style="stroke: #000000; stroke-width: 0.8"/>
      </g>
     </g>
     <g id="text_16">
      <!-- 0.5 -->
      <g transform="translate(33.129063 325.790308) scale(0.1 -0.1)">
       <use xlink:href="#DejaVuSans-30"/>
       <use xlink:href="#DejaVuSans-2e" transform="translate(63.623047 0)"/>
       <use xlink:href="#DejaVuSans-35" transform="translate(95.410156 0)"/>
      </g>
     </g>
    </g>
    <g id="ytick_4">
     <g id="line2d_31">
      <path d="M 56.032188 200.426478 
L 1425.632187 200.426478 
" clip-path="url(#p04291eb2c0)" style="fill: none; stroke: #b0b0b0; stroke-opacity: 0.3; stroke-width: 0.8; stroke-linecap: square"/>
     </g>
     <g id="line2d_32">
      <g>
       <use xlink:href="#ma584c6fbfa" x="56.032188" y="200.426478" style="stroke: #000000; stroke-width: 0.8"/>
      </g>
     </g>
     <g id="text_17">
      <!-- 1.0 -->
      <g transform="translate(33.129063 204.225697) scale(0.1 -0.1)">
       <defs>
        <path id="DejaVuSans-31" d="M 794 531 
L 1825 531 
L 1825 4091 
L 703 3866 
L 703 4441 
L 1819 4666 
L 2450 4666 
L 2450 531 
L 3481 531 
L 3481 0 
L 794 0 
L 794 531 
z
" transform="scale(0.015625)"/>
       </defs>
       <use xlink:href="#DejaVuSans-31"/>
       <use xlink:href="#DejaVuSans-2e" transform="translate(63.623047 0)"/>
       <use xlink:href="#DejaVuSans-30" transform="translate(95.410156 0)"/>
      </g>
     </g>
    </g>
    <g id="ytick_5">
     <g id="line2d_33">
      <path d="M 56.032188 78.861866 
L 1425.632187 78.861866 
" clip-path="url(#p04291eb2c0)" style="fill: none; stroke: #b0b0b0; stroke-opacity: 0.3; stroke-width: 0.8; stroke-linecap: square"/>
     </g>
     <g id="line2d_34">
      <g>
       <use xlink:href="#ma584c6fbfa" x="56.032188" y="78.861866" style="stroke: #000000; stroke-width: 0.8"/>
      </g>
     </g>
     <g id="text_18">
      <!-- 1.5 -->
      <g transform="translate(33.129063 82.661085) scale(0.1 -0.1)">
       <use xlink:href="#DejaVuSans-31"/>
       <use xlink:href="#DejaVuSans-2e" transform="translate(63.623047 0)"/>
       <use xlink:href="#DejaVuSans-35" transform="translate(95.410156 0)"/>
      </g>
     </g>
    </g>
    <g id="text_19">
     <!-- Fehler (kW) [Prognose - Ist] -->
     <g transform="translate(17.837812 442.830781) rotate(-90) scale(0.14 -0.14)">
      <defs>
       <path id="DejaVuSans-68" d="M 3513 2113 
L 3513 0 
L 2938 0 
L 2938 2094 
Q 2938 2591 2744 2837 
Q 2550 3084 2163 3084 
Q 1697 3084 1428 2787 
Q 1159 2491 1159 1978 
L 1159 0 
L 581 0 
L 581 4863 
L 1159 4863 
L 1159 2956 
Q 1366 3272 1645 3428 
Q 1925 3584 2291 3584 
Q 2894 3584 3203 3211 
Q 3513 2838 3513 2113 
z
" transform="scale(0.015625)"/>
       <path id="DejaVuSans-20" transform="scale(0.015625)"/>
       <path id="DejaVuSans-28" d="M 1984 4856 
Q 1566 4138 1362 3434 
Q 1159 2731 1159 2009 
Q 1159 1288 1364 580 
Q 1569 -128 1984 -844 
L 1484 -844 
Q 1016 -109 783 600 
Q 550 1309 550 2009 
Q 550 2706 781 3412 
Q 1013 4119 1484 4856 
L 1984 4856 
z
" transform="scale(0.015625)"/>
       <path id="DejaVuSans-6b" d="M 581 4863 
L 1159 4863 
L 1159 1991 
L 2875 3500 
L 3609 3500 
L 1753 1863 
L 3688 0 
L 2938 0 
L 1159 1709 
L 1159 0 
L 581 0 
L 581 4863 
z
" transform="scale(0.015625)"/>
       <path id="DejaVuSans-57" d="M 213 4666 
L 850 4666 
L 1831 722 
L 2809 4666 
L 3519 4666 
L 4500 722 
L 5478 4666 
L 6119 4666 
L 4947 0 
L 4153 0 
L 3169 4050 
L 2175 0 
L 1381 0 
L 213 4666 
z
" transform="scale(0.015625)"/>
       <path id="DejaVuSans-29" d="M 513 4856 
L 1013 4856 
Q 1481 4119 1714 3412 
Q 1947 2706 1947 2009 
Q 1947 1309 1714 600 
Q 1481 -109 1013 -844 
L 513 -844 
Q 928 -128 1133 580 
Q 1338 1288 1338 2009 
Q 1338 2731 1133 3434 
Q 928 4138 513 4856 
z
" transform="scale(0.015625)"/>
       <path id="DejaVuSans-5b" d="M 550 4863 
L 1875 4863 
L 1875 4416 
L 1125 4416 
L 1125 -397 
L 1875 -397 
L 1875 -844 
L 550 -844 
L 550 4863 
z
" transform="scale(0.015625)"/>
       <path id="DejaVuSans-50" d="M 1259 4147 
L 1259 2394 
L 2053 2394 
Q 2494 2394 2734 2622 
Q 2975 2850 2975 3272 
Q 2975 3691 2734 3919 
Q 2494 4147 2053 4147 
L 1259 4147 
z
M 628 4666 
L 2053 4666 
Q 2838 4666 3239 4311 
Q 3641 3956 3641 3272 
Q 3641 2581 3239 2228 
Q 2838 1875 2053 1875 
L 1259 1875 
L 1259 0 
L 628 0 
L 628 4666 
z
" transform="scale(0.015625)"/>
       <path id="DejaVuSans-73" d="M 2834 3397 
L 2834 2853 
Q 2591 2978 2328 3040 
Q 2066 3103 1784 3103 
Q 1356 3103 1142 2972 
Q 928 2841 928 2578 
Q 928 2378 1081 2264 
Q 1234 2150 1697 2047 
L 1894 2003 
Q 2506 1872 2764 1633 
Q 3022 1394 3022 966 
Q 3022 478 2636 193 
Q 2250 -91 1575 -91 
Q 1294 -91 989 -36 
Q 684 19 347 128 
L 347 722 
Q 666 556 975 473 
Q 1284 391 1588 391 
Q 1994 391 2212 530 
Q 2431 669 2431 922 
Q 2431 1156 2273 1281 
Q 2116 1406 1581 1522 
L 1381 1569 
Q 847 1681 609 1914 
Q 372 2147 372 2553 
Q 372 3047 722 3315 
Q 1072 3584 1716 3584 
Q 2034 3584 2315 3537 
Q 2597 3491 2834 3397 
z
" transform="scale(0.015625)"/>
       <path id="DejaVuSans-2d" d="M 313 2009 
L 1997 2009 
L 1997 1497 
L 313 1497 
L 313 2009 
z
" transform="scale(0.015625)"/>
       <path id="DejaVuSans-49" d="M 628 4666 
L 1259 4666 
L 1259 0 
L 628 0 
L 628 4666 
z
" transform="scale(0.015625)"/>
       <path id="DejaVuSans-5d" d="M 1947 4863 
L 1947 -844 
L 622 -844 
L 622 -397 
L 1369 -397 
L 1369 4416 
L 622 4416 
L 622 4863 
L 1947 4863 
z
" transform="scale(0.015625)"/>
      </defs>
      <use xlink:href="#DejaVuSans-46"/>
      <use xlink:href="#DejaVuSans-65" transform="translate(52.019531 0)"/>
      <use xlink:href="#DejaVuSans-68" transform="translate(113.542969 0)"/>
      <use xlink:href="#DejaVuSans-6c" transform="translate(176.921875 0)"/>
      <use xlink:href="#DejaVuSans-65" transform="translate(204.705078 0)"/>
      <use xlink:href="#DejaVuSans-72" transform="translate(266.228516 0)"/>
      <use xlink:href="#DejaVuSans-20" transform="translate(307.341797 0)"/>
      <use xlink:href="#DejaVuSans-28" transform="translate(339.128906 0)"/>
      <use xlink:href="#DejaVuSans-6b" transform="translate(378.142578 0)"/>
      <use xlink:href="#DejaVuSans-57" transform="translate(436.052734 0)"/>
      <use xlink:href="#DejaVuSans-29" transform="translate(534.929688 0)"/>
      <use xlink:href="#DejaVuSans-20" transform="translate(573.943359 0)"/>
      <use xlink:href="#DejaVuSans-5b" transform="translate(605.730469 0)"/>
      <use xlink:href="#DejaVuSans-50" transform="translate(644.744141 0)"/>
      <use xlink:href="#DejaVuSans-72" transform="translate(703.296875 0)"/>
      <use xlink:href="#DejaVuSans-6f" transform="translate(742.160156 0)"/>
      <use xlink:href="#DejaVuSans-67" transform="translate(803.341797 0)"/>
      <use xlink:href="#DejaVuSans-6e" transform="translate(866.818359 0)"/>
      <use xlink:href="#DejaVuSans-6f" transform="translate(930.197266 0)"/>
      <use xlink:href="#DejaVuSans-73" transform="translate(991.378906 0)"/>
      <use xlink:href="#DejaVuSans-65" transform="translate(1043.478516 0)"/>
      <use xlink:href="#DejaVuSans-20" transform="translate(1105.001953 0)"/>
      <use xlink:href="#DejaVuSans-2d" transform="translate(1136.789062 0)"/>
      <use xlink:href="#DejaVuSans-20" transform="translate(1172.873047 0)"/>
      <use xlink:href="#DejaVuSans-49" transform="translate(1204.660156 0)"/>
      <use xlink:href="#DejaVuSans-73" transform="translate(1234.152344 0)"/>
      <use xlink:href="#DejaVuSans-74" transform="translate(1286.251953 0)"/>
      <use xlink:href="#DejaVuSans-5d" transform="translate(1325.460938 0)"/>
     </g>
    </g>
   </g>
   <g id="line2d_35">
    <path d="M 118.286733 236.876274 
L 118.326126 231.427094 
L 118.365519 205.255399 
L 118.444304 223.040476 
L 118.483697 221.686632 
L 118.52309 210.9243 
L 118.562483 222.575087 
L 118.601876 214.827203 
L 118.641269 214.165516 
L 118.720055 222.894411 
L 118.79884 208.844994 
L 118.877626 241.77373 
L 118.917019 225.449799 
L 118.995805 205.264718 
L 119.035198 239.640808 
L 119.074591 221.550779 
L 144.758752 433.755824 
L 144.837537 440.7188 
L 144.916323 415.897985 
L 144.955716 417.80019 
L 144.995109 435.368832 
L 145.034502 429.422931 
L 145.113287 414.207435 
L 145.15268 434.912533 
L 145.192073 431.370666 
L 145.270859 414.115672 
L 145.310252 432.229627 
L 145.389038 427.113207 
L 145.467823 428.919823 
L 145.507216 414.084819 
L 145.625395 436.100277 
L 145.664788 580.336763 
L 171.23077 416.257069 
L 171.270163 431.764657 
L 171.309556 406.760291 
L 171.348949 415.776809 
L 171.388342 399.929007 
L 171.427735 412.936117 
L 171.467127 410.584163 
L 171.50652 418.480113 
L 171.545913 401.969077 
L 171.585306 402.872154 
L 171.624699 425.781154 
L 171.703485 412.241533 
L 171.742878 407.773333 
L 171.861056 426.246685 
L 171.900449 421.066511 
L 171.939842 428.754724 
L 171.979235 446.672463 
L 172.018628 431.682866 
L 172.058021 415.873224 
L 172.097414 421.327009 
L 172.136806 438.031962 
L 197.702789 428.643775 
L 197.742182 445.954633 
L 197.820967 444.414834 
L 197.86036 429.194906 
L 197.939146 436.650695 
L 197.978539 434.592066 
L 198.057325 447.801721 
L 198.13611 428.642644 
L 198.214896 447.476432 
L 198.254289 436.794595 
L 198.293682 443.131772 
L 198.333075 428.640847 
L 198.372468 440.456473 
L 198.411861 455.919004 
L 198.451253 451.979792 
L 198.490646 430.875625 
L 198.569432 445.770145 
L 198.608825 439.950606 
L 224.174807 360.915017 
L 224.2142 379.809564 
L 224.253593 360.221328 
L 224.292986 355.854647 
L 224.332379 362.738869 
L 224.371772 378.680494 
L 224.411165 368.434153 
L 224.450557 358.567784 
L 224.48995 359.111802 
L 224.568736 383.017443 
L 224.608129 363.246744 
L 224.647522 361.879547 
L 224.765701 391.682631 
L 224.805093 372.513215 
L 224.883879 376.644744 
L 224.923272 392.132874 
L 224.962665 386.845914 
L 225.002058 378.160347 
L 225.041451 393.682496 
L 225.080844 379.078132 
L 250.646826 470.445793 
L 250.765004 376.546673 
L 250.84379 426.937434 
L 250.883183 401.264336 
L 250.922576 398.652537 
L 251.001362 430.253273 
L 251.040755 359.141406 
L 251.080148 397.219051 
L 251.11954 419.711542 
L 251.198326 409.287601 
L 251.237719 414.533025 
L 251.277112 410.486838 
L 251.316505 353.006294 
L 251.355898 412.336871 
L 251.395291 415.380371 
L 251.434683 613.532463 
L 251.474076 401.105898 
L 251.513469 416.31473 
L 251.552862 409.584587 
L 277.118844 431.994234 
L 277.158237 457.832387 
L 277.19763 437.130744 
L 277.276416 431.700858 
L 277.355202 448.394111 
L 277.433987 430.644057 
L 277.47338 439.626496 
L 277.512773 444.439209 
L 277.552166 441.274882 
L 277.591559 429.384154 
L 277.630952 429.579686 
L 277.670345 443.529476 
L 277.749131 435.034595 
L 277.788523 434.77077 
L 277.827916 453.549856 
L 277.906702 451.438089 
L 277.946095 442.337525 
L 278.024881 444.627229 
L 303.590863 340.333822 
L 303.630256 82.590442 
L 303.709042 227.376113 
L 303.748434 248.013688 
L 303.787827 174.852026 
L 303.82722 182.851101 
L 303.866613 238.973538 
L 303.945399 216.46672 
L 304.063578 234.138947 
L 304.142363 218.379966 
L 304.181756 232.933461 
L 304.221149 220.298079 
L 304.299935 210.632024 
L 304.339328 241.639929 
L 304.418114 220.583888 
L 304.457506 219.640165 
L 304.496899 227.430573 
L 330.062882 443.555701 
L 330.102274 434.658879 
L 330.141667 453.075469 
L 330.18106 432.437662 
L 330.259846 425.133533 
L 330.338632 450.127297 
L 330.378025 426.190163 
L 330.417417 437.167342 
L 330.496203 460.378308 
L 330.574989 427.950277 
L 330.614382 428.136969 
L 330.653775 458.482319 
L 330.732561 440.192448 
L 330.771953 439.578927 
L 330.850739 462.997594 
L 330.890132 429.857888 
L 330.968918 437.774798 
L 356.5349 431.026441 
L 356.653079 447.146974 
L 356.692472 430.645951 
L 356.731864 433.627684 
L 356.771257 450.872998 
L 356.81065 445.280374 
L 356.889436 430.64269 
L 356.968222 451.647751 
L 357.007615 450.236949 
L 357.047008 441.824026 
L 357.0864 452.63452 
L 357.125793 452.228652 
L 357.204579 433.619858 
L 357.243972 441.140003 
L 357.283365 461.383911 
L 357.322758 456.423422 
L 357.401544 435.626465 
L 357.440936 443.292488 
L 383.006919 427.306237 
L 383.085704 444.103242 
L 383.125097 443.584041 
L 383.203883 428.939773 
L 383.243276 447.583888 
L 383.322062 439.74141 
L 383.361455 429.201902 
L 383.400847 437.979686 
L 383.44024 444.713205 
L 383.479633 442.160659 
L 383.519026 428.829071 
L 383.558419 432.607151 
L 383.597812 448.355149 
L 383.676598 437.26644 
L 383.715991 433.205149 
L 383.755383 467.801112 
L 383.794776 431.157797 
L 383.834169 429.95724 
L 383.912955 453.979515 
L 409.478937 422.79686 
L 409.51833 453.459224 
L 409.557723 431.21672 
L 409.597116 422.735382 
L 409.636509 432.645879 
L 409.675902 454.928595 
L 409.715295 449.056998 
L 409.79408 430.551859 
L 409.833473 445.946117 
L 409.872866 448.746331 
L 409.951652 428.876238 
L 410.06983 456.614355 
L 410.109223 431.688776 
L 410.188009 435.215244 
L 410.227402 445.455656 
L 410.266795 432.191462 
L 410.306188 430.72935 
L 410.345581 447.550605 
L 410.384974 441.906766 
L 435.950956 449.731183 
L 436.029742 460.252543 
L 436.108527 443.539678 
L 436.187313 465.939798 
L 436.266099 443.555701 
L 436.305492 452.178684 
L 436.344885 470.883425 
L 436.384278 446.376 
L 436.42367 443.555701 
L 436.502456 469.555467 
L 436.541849 441.398618 
L 436.620635 444.414757 
L 436.660028 479.747982 
L 436.699421 441.165066 
L 436.778206 443.263764 
L 436.817599 469.355741 
L 436.856992 641.337244 
L 462.422974 429.146242 
L 462.462367 451.664007 
L 462.50176 428.549702 
L 462.580546 419.796231 
L 462.659332 441.832554 
L 462.738117 417.924948 
L 462.77751 426.051071 
L 462.816903 444.066944 
L 462.856296 422.744127 
L 462.935082 417.245294 
L 463.013868 445.111939 
L 463.053261 424.892972 
L 463.092653 423.514944 
L 463.171439 436.445329 
L 463.210832 431.02558 
L 463.250225 417.957086 
L 463.289618 420.206966 
L 463.329011 430.286491 
L 488.894993 426.75608 
L 488.934386 454.757933 
L 488.973779 438.354098 
L 489.013172 428.960071 
L 489.052564 432.909059 
L 489.091957 452.332384 
L 489.13135 441.18708 
L 489.170743 430.355088 
L 489.210136 439.858162 
L 489.249529 459.424289 
L 489.288922 432.133554 
L 489.328315 429.633513 
L 489.4071 448.428562 
L 489.446493 438.310668 
L 489.485886 431.278707 
L 489.564672 450.307224 
L 489.643458 425.659976 
L 489.682851 459.876258 
L 489.722244 428.50445 
L 489.801029 422.626305 
L 515.367011 428.093458 
L 515.445797 444.288163 
L 515.48519 439.320936 
L 515.524583 430.34784 
L 515.563976 431.902176 
L 515.603369 454.41962 
L 515.642762 447.987944 
L 515.682155 432.503262 
L 515.76094 442.150014 
L 515.800333 463.293704 
L 515.839726 444.057125 
L 515.918512 440.503947 
L 515.957905 460.022734 
L 515.997298 457.443522 
L 516.076083 437.434833 
L 516.115476 438.888695 
L 516.154869 477.099406 
L 516.194262 438.899723 
L 516.233655 439.198225 
L 516.273048 488.87774 
L 541.83903 424.355122 
L 541.917816 407.677479 
L 541.957209 423.874164 
L 542.035994 421.156803 
L 542.075387 407.68578 
L 542.11478 418.416081 
L 542.154173 432.062246 
L 542.193566 412.229739 
L 542.232959 407.988083 
L 542.311745 427.327802 
L 542.351138 408.005065 
L 542.39053 408.076626 
L 542.469316 431.764984 
L 542.548102 408.275555 
L 542.587495 420.948504 
L 542.626888 433.941622 
L 542.666281 412.706313 
L 542.705674 410.510471 
L 542.745066 415.394666 
L 568.311049 259.296167 
L 568.389834 278.892382 
L 568.429227 273.413871 
L 568.508013 259.296167 
L 568.586799 275.715494 
L 568.626192 270.642197 
L 568.704977 259.296167 
L 568.783763 336.967849 
L 568.862549 259.296167 
L 568.901942 275.699285 
L 568.941335 275.310278 
L 569.020121 259.296167 
L 569.059513 264.53155 
L 569.098906 280.691539 
L 569.138299 272.489979 
L 569.177692 259.571713 
L 569.217085 266.735921 
L 594.783067 434.765794 
L 594.82246 428.915559 
L 594.861853 456.863183 
L 594.901246 442.509067 
L 594.940639 430.46478 
L 594.980032 441.484122 
L 595.019425 452.610159 
L 595.058817 444.273219 
L 595.09821 434.997959 
L 595.137603 446.235848 
L 595.216389 449.511764 
L 595.255782 434.688426 
L 595.334568 440.772093 
L 595.37396 456.970136 
L 595.413353 434.443544 
L 595.452746 438.048236 
L 595.531532 501.524111 
L 595.610318 434.148089 
L 595.649711 449.985307 
L 595.689104 439.07607 
L 621.255086 292.523827 
L 621.333872 379.804995 
L 621.373264 360.419492 
L 621.412657 353.821505 
L 621.45205 372.62674 
L 621.530836 362.032789 
L 621.570229 354.120824 
L 621.609622 362.756774 
L 621.649015 361.215874 
L 621.688407 378.212228 
L 621.7278 351.963997 
L 621.767193 350.374472 
L 621.845979 362.077092 
L 621.885372 356.871966 
L 621.924765 349.31659 
L 622.042943 365.714305 
L 622.082336 352.625308 
L 622.121729 361.082963 
L 622.161122 424.910327 
L 647.727104 443.555701 
L 647.766497 447.837188 
L 647.80589 442.863989 
L 647.884676 422.773152 
L 647.924069 435.776519 
L 647.963462 444.863216 
L 648.042247 421.539933 
L 648.08164 426.761755 
L 648.121033 444.564609 
L 648.160426 432.211253 
L 648.239212 421.197607 
L 648.317998 444.109847 
L 648.396783 421.168179 
L 648.436176 433.130264 
L 648.475569 436.227612 
L 648.514962 434.171582 
L 648.593748 505.382738 
L 648.633141 439.417563 
L 674.199123 426.986863 
L 674.277909 456.326692 
L 674.317302 434.01721 
L 674.396087 422.476118 
L 674.43548 441.506429 
L 674.474873 431.841902 
L 674.514266 418.608127 
L 674.553659 419.541799 
L 674.593052 442.584022 
L 674.632445 436.941468 
L 674.671838 419.080972 
L 674.71123 437.932988 
L 674.750623 421.460844 
L 674.790016 438.261632 
L 674.829409 419.485628 
L 674.868802 436.822419 
L 675.065766 425.449281 
L 675.105159 434.649346 
L 700.671141 430.799521 
L 700.749927 443.111551 
L 700.78932 441.964 
L 700.828713 427.395758 
L 700.868106 427.415306 
L 700.907499 447.403902 
L 700.946892 446.953461 
L 700.986285 427.47413 
L 701.06507 434.402105 
L 701.104463 456.935543 
L 701.143856 430.697261 
L 701.183249 427.572462 
L 701.222642 427.592128 
L 701.262035 454.76121 
L 701.301428 442.348838 
L 701.380213 427.670614 
L 701.419606 438.87411 
L 701.458999 455.864043 
L 701.498392 427.729149 
L 701.537785 427.748571 
L 701.577178 443.587546 
L 727.14316 426.767438 
L 727.182553 424.996404 
L 727.221946 447.858717 
L 727.300732 430.876471 
L 727.340124 424.153764 
L 727.379517 448.735638 
L 727.458303 437.872782 
L 727.576482 426.019134 
L 727.615875 442.715301 
L 727.655268 425.234626 
L 727.69466 442.405166 
L 727.773446 449.140103 
L 727.812839 429.3505 
L 727.852232 447.484094 
L 727.931018 440.534449 
L 728.009804 442.592399 
L 728.049196 424.285028 
L 753.615179 413.226357 
L 753.654571 415.96077 
L 753.693964 434.09143 
L 753.733357 426.733473 
L 753.812143 413.022629 
L 753.851536 432.416083 
L 753.930322 425.683447 
L 753.969715 412.953467 
L 754.009107 419.99978 
L 754.0485 429.642129 
L 754.087893 429.173992 
L 754.166679 412.826741 
L 754.245465 431.790486 
L 754.284858 420.784603 
L 754.363643 412.723551 
L 754.403036 437.2718 
L 754.442429 427.579763 
L 754.481822 413.584537 
L 754.521215 414.67379 
L 780.087197 441.808998 
L 780.165983 450.112178 
L 780.244769 428.993711 
L 780.284162 450.664633 
L 780.323554 444.586406 
L 780.40234 429.058561 
L 780.481126 453.517368 
L 780.520519 428.993738 
L 780.559912 430.258014 
L 780.599305 459.757696 
L 780.67809 438.070577 
L 780.717483 456.272856 
L 780.756876 436.757687 
L 780.796269 449.011404 
L 780.875055 452.609724 
L 780.914448 430.857767 
L 780.953841 445.510358 
L 780.993234 429.901466 
L 806.559216 445.823286 
L 806.677394 397.136631 
L 806.716787 400.114551 
L 806.75618 411.609245 
L 806.834966 409.885892 
L 806.874359 400.480703 
L 806.953145 401.352575 
L 806.992537 422.904491 
L 807.071323 409.453961 
L 807.150109 404.096057 
L 807.189502 425.897883 
L 807.307681 396.688264 
L 807.347073 415.642358 
L 807.386466 396.718613 
L 807.465252 400.851645 
L 833.031234 454.302012 
L 833.070627 456.376715 
L 833.149413 427.898179 
L 833.188806 447.932027 
L 833.346377 432.258296 
L 833.38577 430.605017 
L 833.464556 444.982059 
L 833.543342 426.836134 
L 833.622128 444.59578 
L 833.66152 443.250084 
L 833.700913 430.848689 
L 833.779699 439.217333 
L 833.819092 443.119751 
L 833.858485 426.941567 
L 833.897878 428.224571 
L 833.937271 541.478386 
L 859.503253 434.507325 
L 859.582039 455.301323 
L 859.621432 444.116551 
L 859.700217 434.503188 
L 859.779003 456.464206 
L 859.857789 434.499877 
L 859.897182 448.714005 
L 859.936575 453.235381 
L 860.01536 434.496567 
L 860.054753 443.280809 
L 860.133539 450.81616 
L 860.172932 449.761772 
L 860.251718 438.041289 
L 860.291111 456.032024 
L 860.330503 452.222172 
L 860.369896 438.038806 
L 860.409289 482.36854 
L 885.975271 431.764514 
L 886.014664 430.143653 
L 886.09345 454.061021 
L 886.172236 431.19287 
L 886.211629 441.339463 
L 886.251022 459.301096 
L 886.290415 431.322539 
L 886.329807 430.771446 
L 886.3692 433.218947 
L 886.408593 460.611506 
L 886.447986 437.076597 
L 886.526772 430.771446 
L 886.566165 450.659417 
L 886.605558 450.335244 
L 886.64495 433.543119 
L 886.723736 440.78837 
L 886.763129 464.77712 
L 886.802522 431.523098 
L 886.881308 430.354172 
L 912.44729 423.132846 
L 912.565469 447.601211 
L 912.604862 430.151176 
L 912.683647 431.009349 
L 912.72304 448.136705 
L 912.762433 439.53261 
L 912.841219 428.679901 
L 912.920005 448.847428 
L 912.959398 429.023666 
L 913.038183 437.187808 
L 913.077576 450.156683 
L 913.116969 430.164811 
L 913.156362 429.134449 
L 913.235148 445.736183 
L 913.274541 438.621477 
L 913.313933 433.704896 
L 913.353326 449.402394 
L 938.919309 417.241825 
L 938.958701 417.369721 
L 938.998094 439.275121 
L 939.07688 423.404603 
L 939.116273 418.497822 
L 939.234452 433.207601 
L 939.273845 419.407213 
L 939.313237 422.219962 
L 939.35263 440.591628 
L 939.392023 436.009943 
L 939.431416 420.047322 
L 939.510202 432.91341 
L 939.549595 439.957007 
L 939.588988 435.764081 
L 939.628381 430.221701 
L 939.667773 433.995023 
L 939.707166 441.36237 
L 939.746559 438.20608 
L 939.825345 420.275931 
L 965.391327 441.655467 
L 965.43072 425.414168 
L 965.470113 440.193199 
L 965.548899 442.024113 
L 965.588292 428.766742 
L 965.627684 439.755523 
L 965.667077 455.984159 
L 965.70647 430.520883 
L 965.745863 421.455731 
L 965.785256 429.364358 
L 965.824649 456.890772 
L 965.864042 424.601206 
L 965.903435 423.954406 
L 965.942828 455.339364 
L 965.98222 440.107326 
L 966.021613 425.042545 
L 966.061006 439.471354 
L 966.100399 461.454416 
L 966.139792 450.049511 
L 966.218578 424.141518 
L 966.257971 433.128471 
L 966.297364 452.157829 
L 991.863346 430.203807 
L 991.942131 442.098679 
L 992.020917 422.667095 
L 992.139096 440.490564 
L 992.178489 426.352474 
L 992.257275 436.892925 
L 992.296667 449.45921 
L 992.33606 428.979447 
L 992.375453 429.294926 
L 992.414846 454.276368 
L 992.493632 452.195777 
L 992.611811 435.242739 
L 992.651203 449.189472 
L 992.690596 433.843899 
L 992.729989 430.571628 
L 992.769382 443.653243 
L 1018.335364 53.300881 
L 1018.41415 337.915612 
L 1018.453543 326.904269 
L 1018.729293 407.331664 
L 1018.768686 373.885243 
L 1018.847472 374.778421 
L 1018.886865 411.580528 
L 1018.926258 378.143843 
L 1018.96565 375.382231 
L 1019.044436 403.077095 
L 1019.162615 400.349812 
L 1019.202008 380.559947 
L 1019.241401 395.722486 
L 1044.807383 435.337933 
L 1044.886169 461.993 
L 1045.004347 433.368586 
L 1045.04374 458.346062 
L 1045.083133 447.883401 
L 1045.161919 432.744555 
L 1045.240705 451.28721 
L 1045.280097 440.962322 
L 1045.31949 432.574364 
L 1045.358883 437.461262 
L 1045.437669 455.566284 
L 1045.516455 432.161044 
L 1045.555848 448.904544 
L 1045.595241 441.351329 
L 1045.634633 448.969378 
L 1045.674026 455.323155 
L 1045.713419 439.292835 
L 1071.279401 460.834084 
L 1071.358187 425.29133 
L 1071.436973 437.366748 
L 1071.476366 441.240607 
L 1071.555152 431.450604 
L 1071.594545 438.096136 
L 1071.633937 444.725459 
L 1071.67333 425.664128 
L 1071.712723 429.910785 
L 1071.752116 457.23851 
L 1071.830902 436.167311 
L 1071.870295 428.063003 
L 1071.909688 472.620485 
L 1071.94908 433.979148 
L 1072.027866 425.226496 
L 1072.067259 460.447816 
L 1072.106652 428.759974 
L 1072.146045 426.831148 
L 1072.185438 427.203947 
L 1097.75142 417.701502 
L 1097.790813 416.893041 
L 1097.869599 445.184204 
L 1097.908992 419.238112 
L 1097.987777 420.139185 
L 1098.02717 445.448323 
L 1098.066563 436.485283 
L 1098.145349 420.572882 
L 1098.184742 425.710078 
L 1098.224135 455.974658 
L 1098.263528 419.769213 
L 1098.30292 419.235483 
L 1098.342313 419.43924 
L 1098.381706 452.188752 
L 1098.421099 425.417857 
L 1098.460492 419.866983 
L 1098.499885 429.886316 
L 1098.578671 503.453926 
L 1098.618063 615.370688 
L 1098.657456 427.940518 
L 1124.223439 453.082963 
L 1124.302224 427.114281 
L 1124.341617 453.05687 
L 1124.38101 437.719992 
L 1124.459796 425.348504 
L 1124.499189 444.72441 
L 1124.538582 444.131912 
L 1124.617367 424.396083 
L 1124.65676 440.040227 
L 1124.696153 448.285966 
L 1124.774939 424.212618 
L 1124.814332 432.661443 
L 1124.853725 453.803046 
L 1124.893118 444.662464 
L 1124.971903 435.138198 
L 1125.011296 458.229801 
L 1125.050689 451.513245 
L 1125.129475 423.635852 
L 1150.695457 445.187361 
L 1150.73485 434.602553 
L 1150.774243 435.531396 
L 1150.813636 459.060232 
L 1150.853029 449.625563 
L 1150.892422 435.689336 
L 1150.931814 435.95658 
L 1150.971207 456.045064 
L 1151.0106 453.733274 
L 1151.089386 436.565823 
L 1151.128779 463.820089 
L 1151.207565 448.210669 
L 1151.246958 448.364145 
L 1151.325743 468.184427 
L 1151.365136 440.375641 
L 1151.404529 442.324504 
L 1151.483315 465.894237 
L 1151.522708 455.583555 
L 1151.562101 453.455697 
L 1151.601493 461.131232 
L 1177.167476 429.818104 
L 1177.206869 443.327649 
L 1177.285654 440.069719 
L 1177.325047 430.231224 
L 1177.36444 444.432228 
L 1177.403833 435.649398 
L 1177.443226 449.621372 
L 1177.482619 431.713314 
L 1177.522012 438.923386 
L 1177.561405 440.4196 
L 1177.600797 452.238136 
L 1177.64019 436.496264 
L 1177.679583 432.317172 
L 1177.718976 448.223436 
L 1177.797762 447.145748 
L 1177.837155 432.162182 
L 1177.876548 444.797682 
L 1177.915941 445.12758 
L 1177.955333 460.02046 
L 1177.994726 447.426215 
L 1178.034119 443.614535 
L 1178.073512 454.439542 
L 1203.639494 436.764291 
L 1203.757673 456.15325 
L 1203.797066 431.89937 
L 1203.875852 451.034819 
L 1203.915244 455.843902 
L 1203.99403 432.307928 
L 1204.033423 451.806494 
L 1204.112209 448.849742 
L 1204.151602 435.523666 
L 1204.190995 449.864217 
L 1204.230388 453.832932 
L 1204.26978 453.288669 
L 1204.309173 442.581799 
L 1204.348566 456.568131 
L 1204.387959 488.863665 
L 1204.427352 461.950305 
L 1204.466745 461.916605 
L 1204.506138 456.121552 
L 1204.545531 481.535877 
L 1230.111513 443.555701 
L 1230.150906 447.490336 
L 1230.190299 463.034397 
L 1230.229692 446.258481 
L 1230.308477 438.786309 
L 1230.34787 459.873717 
L 1230.387263 457.588303 
L 1230.466049 438.786309 
L 1230.505442 452.46638 
L 1230.544835 456.194362 
L 1230.62362 438.802518 
L 1230.663013 442.238744 
L 1230.702406 460.100638 
L 1230.741799 453.568566 
L 1230.820585 438.786309 
L 1230.938763 502.194411 
L 1230.978156 438.786309 
L 1231.017549 450.82931 
L 1256.583531 434.757634 
L 1256.70171 443.829888 
L 1256.741103 439.085423 
L 1256.780496 435.557427 
L 1256.819889 437.605508 
L 1256.859282 448.394502 
L 1256.898674 442.967294 
L 1256.938067 428.2248 
L 1256.97746 445.604439 
L 1257.016853 433.659444 
L 1257.056246 443.673963 
L 1257.095639 429.550783 
L 1257.135032 440.742472 
L 1257.213818 445.615965 
L 1257.25321 430.233259 
L 1257.292603 432.754351 
L 1257.331996 451.886678 
L 1257.410782 445.193285 
L 1257.450175 453.738073 
L 1257.489568 451.550436 
L 1283.05555 428.011639 
L 1283.094943 426.450023 
L 1283.173729 453.437144 
L 1283.213122 429.840219 
L 1283.252514 420.915052 
L 1283.291907 431.996289 
L 1283.3313 447.309444 
L 1283.370693 437.374563 
L 1283.410086 423.405904 
L 1283.449479 619.397085 
L 1283.488872 461.771123 
L 1283.567657 427.781982 
L 1283.646443 437.601417 
L 1283.685836 463.295238 
L 1283.725229 450.308748 
L 1283.804015 423.151708 
L 1283.843408 434.719203 
L 1283.882801 459.530606 
L 1283.922193 427.017125 
L 1283.961586 423.405771 
L 1309.527569 427.057762 
L 1309.566961 432.017915 
L 1309.606354 427.511686 
L 1309.645747 423.978677 
L 1309.763926 435.773298 
L 1309.803319 420.34193 
L 1309.842712 437.821496 
L 1309.882105 420.580028 
L 1309.921497 442.314352 
L 1310.000283 435.014386 
L 1310.118462 420.812917 
L 1310.197248 458.854904 
L 1310.23664 431.80736 
L 1310.276033 431.754346 
L 1310.315426 438.327091 
L 1310.354819 465.12364 
L 1310.394212 431.642259 
L 1310.433605 431.211134 
L 1335.999587 437.453945 
L 1336.03898 426.212906 
L 1336.078373 437.11321 
L 1336.157159 442.493318 
L 1336.235944 426.171884 
L 1336.275337 443.783504 
L 1336.354123 431.85716 
L 1336.393516 426.161199 
L 1336.432909 428.828567 
L 1336.472302 451.757191 
L 1336.511695 439.091227 
L 1336.551088 426.39483 
L 1336.59048 443.527336 
L 1336.629873 459.103815 
L 1336.669266 450.432206 
L 1336.748052 435.001604 
L 1336.826838 453.317339 
L 1336.866231 437.351853 
L 1336.905623 453.365965 
L 1362.471606 430.606829 
L 1362.510999 458.172241 
L 1362.550391 438.698992 
L 1362.589784 429.548864 
L 1362.629177 437.001985 
L 1362.66857 461.522669 
L 1362.707963 439.057126 
L 1362.747356 431.36442 
L 1362.786749 448.243794 
L 1362.865535 442.10946 
L 1362.904927 435.96625 
L 1362.94432 452.214195 
L 1362.983713 432.448086 
L 1363.023106 448.276807 
L 1363.062499 429.000793 
L 1363.101892 449.495608 
L 1363.141285 431.222198 
L 1363.259463 456.554046 
L 1363.298856 451.104905 
L 1363.338249 443.373385 
L 1363.377642 444.013411 
" clip-path="url(#p04291eb2c0)" style="fill: none; stroke: #00008b; stroke-opacity: 0.7; stroke-width: 0.5; stroke-linecap: square"/>
   </g>
   <g id="line2d_36">
    <path d="M 56.032188 443.555701 
L 1425.632187 443.555701 
" clip-path="url(#p04291eb2c0)" style="fill: none; stroke: #000000; stroke-linecap: square"/>
   </g>
   <g id="patch_3">
    <path d="M 56.032188 670.739062 
L 56.032188 23.899062 
" style="fill: none; stroke: #000000; stroke-width: 0.8; stroke-linejoin: miter; stroke-linecap: square"/>
   </g>
   <g id="patch_4">
    <path d="M 1425.632187 670.739062 
L 1425.632187 23.899062 
" style="fill: none; stroke: #000000; stroke-width: 0.8; stroke-linejoin: miter; stroke-linecap: square"/>
   </g>
   <g id="patch_5">
    <path d="M 56.032188 670.739062 
L 1425.632187 670.739062 
" style="fill: none; stroke: #000000; stroke-width: 0.8; stroke-linejoin: miter; stroke-linecap: square"/>
   </g>
   <g id="patch_6">
    <path d="M 56.032188 23.899062 
L 1425.632187 23.899062 
" style="fill: none; stroke: #000000; stroke-width: 0.8; stroke-linejoin: miter; stroke-linecap: square"/>
   </g>
   <g id="text_20">
    <!-- Vorhersagefehler 2016 (Stündlich) - RMSE: 0.24 kW | NRMSE: 223.2% | MAPE: 138.5% | Pearson: 0.159 -->
    <g transform="translate(380.503906 17.899062) scale(0.14 -0.14)">
     <defs>
      <path id="DejaVuSans-56" d="M 1831 0 
L 50 4666 
L 709 4666 
L 2188 738 
L 3669 4666 
L 4325 4666 
L 2547 0 
L 1831 0 
z
" transform="scale(0.015625)"/>
      <path id="DejaVuSans-66" d="M 2375 4863 
L 2375 4384 
L 1825 4384 
Q 1516 4384 1395 4259 
Q 1275 4134 1275 3809 
L 1275 3500 
L 2222 3500 
L 2222 3053 
L 1275 3053 
L 1275 0 
L 697 0 
L 697 3053 
L 147 3053 
L 147 3500 
L 697 3500 
L 697 3744 
Q 697 4328 969 4595 
Q 1241 4863 1831 4863 
L 2375 4863 
z
" transform="scale(0.015625)"/>
      <path id="DejaVuSans-32" d="M 1228 531 
L 3431 531 
L 3431 0 
L 469 0 
L 469 531 
Q 828 903 1448 1529 
Q 2069 2156 2228 2338 
Q 2531 2678 2651 2914 
Q 2772 3150 2772 3378 
Q 2772 3750 2511 3984 
Q 2250 4219 1831 4219 
Q 1534 4219 1204 4116 
Q 875 4013 500 3803 
L 500 4441 
Q 881 4594 1212 4672 
Q 1544 4750 1819 4750 
Q 2544 4750 2975 4387 
Q 3406 4025 3406 3419 
Q 3406 3131 3298 2873 
Q 3191 2616 2906 2266 
Q 2828 2175 2409 1742 
Q 1991 1309 1228 531 
z
" transform="scale(0.015625)"/>
      <path id="DejaVuSans-36" d="M 2113 2584 
Q 1688 2584 1439 2293 
Q 1191 2003 1191 1497 
Q 1191 994 1439 701 
Q 1688 409 2113 409 
Q 2538 409 2786 701 
Q 3034 994 3034 1497 
Q 3034 2003 2786 2293 
Q 2538 2584 2113 2584 
z
M 3366 4563 
L 3366 3988 
Q 3128 4100 2886 4159 
Q 2644 4219 2406 4219 
Q 1781 4219 1451 3797 
Q 1122 3375 1075 2522 
Q 1259 2794 1537 2939 
Q 1816 3084 2150 3084 
Q 2853 3084 3261 2657 
Q 3669 2231 3669 1497 
Q 3669 778 3244 343 
Q 2819 -91 2113 -91 
Q 1303 -91 875 529 
Q 447 1150 447 2328 
Q 447 3434 972 4092 
Q 1497 4750 2381 4750 
Q 2619 4750 2861 4703 
Q 3103 4656 3366 4563 
z
" transform="scale(0.015625)"/>
      <path id="DejaVuSans-fc" d="M 544 1381 
L 544 3500 
L 1119 3500 
L 1119 1403 
Q 1119 906 1312 657 
Q 1506 409 1894 409 
Q 2359 409 2629 706 
Q 2900 1003 2900 1516 
L 2900 3500 
L 3475 3500 
L 3475 0 
L 2900 0 
L 2900 538 
Q 2691 219 2414 64 
Q 2138 -91 1772 -91 
Q 1169 -91 856 284 
Q 544 659 544 1381 
z
M 1991 3584 
L 1991 3584 
z
M 2278 4850 
L 2912 4850 
L 2912 4219 
L 2278 4219 
L 2278 4850 
z
M 1056 4850 
L 1690 4850 
L 1690 4219 
L 1056 4219 
L 1056 4850 
z
" transform="scale(0.015625)"/>
      <path id="DejaVuSans-64" d="M 2906 2969 
L 2906 4863 
L 3481 4863 
L 3481 0 
L 2906 0 
L 2906 525 
Q 2725 213 2448 61 
Q 2172 -91 1784 -91 
Q 1150 -91 751 415 
Q 353 922 353 1747 
Q 353 2572 751 3078 
Q 1150 3584 1784 3584 
Q 2172 3584 2448 3432 
Q 2725 3281 2906 2969 
z
M 947 1747 
Q 947 1113 1208 752 
Q 1469 391 1925 391 
Q 2381 391 2643 752 
Q 2906 1113 2906 1747 
Q 2906 2381 2643 2742 
Q 2381 3103 1925 3103 
Q 1469 3103 1208 2742 
Q 947 2381 947 1747 
z
" transform="scale(0.015625)"/>
      <path id="DejaVuSans-69" d="M 603 3500 
L 1178 3500 
L 1178 0 
L 603 0 
L 603 3500 
z
M 603 4863 
L 1178 4863 
L 1178 4134 
L 603 4134 
L 603 4863 
z
" transform="scale(0.015625)"/>
      <path id="DejaVuSans-52" d="M 2841 2188 
Q 3044 2119 3236 1894 
Q 3428 1669 3622 1275 
L 4263 0 
L 3584 0 
L 2988 1197 
Q 2756 1666 2539 1819 
Q 2322 1972 1947 1972 
L 1259 1972 
L 1259 0 
L 628 0 
L 628 4666 
L 2053 4666 
Q 2853 4666 3247 4331 
Q 3641 3997 3641 3322 
Q 3641 2881 3436 2590 
Q 3231 2300 2841 2188 
z
M 1259 4147 
L 1259 2491 
L 2053 2491 
Q 2509 2491 2742 2702 
Q 2975 2913 2975 3322 
Q 2975 3731 2742 3939 
Q 2509 4147 2053 4147 
L 1259 4147 
z
" transform="scale(0.015625)"/>
      <path id="DejaVuSans-45" d="M 628 4666 
L 3578 4666 
L 3578 4134 
L 1259 4134 
L 1259 2753 
L 3481 2753 
L 3481 2222 
L 1259 2222 
L 1259 531 
L 3634 531 
L 3634 0 
L 628 0 
L 628 4666 
z
" transform="scale(0.015625)"/>
      <path id="DejaVuSans-3a" d="M 750 794 
L 1409 794 
L 1409 0 
L 750 0 
L 750 794 
z
M 750 3309 
L 1409 3309 
L 1409 2516 
L 750 2516 
L 750 3309 
z
" transform="scale(0.015625)"/>
      <path id="DejaVuSans-34" d="M 2419 4116 
L 825 1625 
L 2419 1625 
L 2419 4116 
z
M 2253 4666 
L 3047 4666 
L 3047 1625 
L 3713 1625 
L 3713 1100 
L 3047 1100 
L 3047 0 
L 2419 0 
L 2419 1100 
L 313 1100 
L 313 1709 
L 2253 4666 
z
" transform="scale(0.015625)"/>
      <path id="DejaVuSans-7c" d="M 1344 4891 
L 1344 -1509 
L 813 -1509 
L 813 4891 
L 1344 4891 
z
" transform="scale(0.015625)"/>
      <path id="DejaVuSans-33" d="M 2597 2516 
Q 3050 2419 3304 2112 
Q 3559 1806 3559 1356 
Q 3559 666 3084 287 
Q 2609 -91 1734 -91 
Q 1441 -91 1130 -33 
Q 819 25 488 141 
L 488 750 
Q 750 597 1062 519 
Q 1375 441 1716 441 
Q 2309 441 2620 675 
Q 2931 909 2931 1356 
Q 2931 1769 2642 2001 
Q 2353 2234 1838 2234 
L 1294 2234 
L 1294 2753 
L 1863 2753 
Q 2328 2753 2575 2939 
Q 2822 3125 2822 3475 
Q 2822 3834 2567 4026 
Q 2313 4219 1838 4219 
Q 1578 4219 1281 4162 
Q 984 4106 628 3988 
L 628 4550 
Q 988 4650 1302 4700 
Q 1616 4750 1894 4750 
Q 2613 4750 3031 4423 
Q 3450 4097 3450 3541 
Q 3450 3153 3228 2886 
Q 3006 2619 2597 2516 
z
" transform="scale(0.015625)"/>
      <path id="DejaVuSans-25" d="M 4653 2053 
Q 4381 2053 4226 1822 
Q 4072 1591 4072 1178 
Q 4072 772 4226 539 
Q 4381 306 4653 306 
Q 4919 306 5073 539 
Q 5228 772 5228 1178 
Q 5228 1588 5073 1820 
Q 4919 2053 4653 2053 
z
M 4653 2450 
Q 5147 2450 5437 2106 
Q 5728 1763 5728 1178 
Q 5728 594 5436 251 
Q 5144 -91 4653 -91 
Q 4153 -91 3862 251 
Q 3572 594 3572 1178 
Q 3572 1766 3864 2108 
Q 4156 2450 4653 2450 
z
M 1428 4353 
Q 1159 4353 1004 4120 
Q 850 3888 850 3481 
Q 850 3069 1003 2837 
Q 1156 2606 1428 2606 
Q 1700 2606 1854 2837 
Q 2009 3069 2009 3481 
Q 2009 3884 1853 4118 
Q 1697 4353 1428 4353 
z
M 4250 4750 
L 4750 4750 
L 1831 -91 
L 1331 -91 
L 4250 4750 
z
M 1428 4750 
Q 1922 4750 2215 4408 
Q 2509 4066 2509 3481 
Q 2509 2891 2217 2550 
Q 1925 2209 1428 2209 
Q 931 2209 642 2551 
Q 353 2894 353 3481 
Q 353 4063 643 4406 
Q 934 4750 1428 4750 
z
" transform="scale(0.015625)"/>
      <path id="DejaVuSans-38" d="M 2034 2216 
Q 1584 2216 1326 1975 
Q 1069 1734 1069 1313 
Q 1069 891 1326 650 
Q 1584 409 2034 409 
Q 2484 409 2743 651 
Q 3003 894 3003 1313 
Q 3003 1734 2745 1975 
Q 2488 2216 2034 2216 
z
M 1403 2484 
Q 997 2584 770 2862 
Q 544 3141 544 3541 
Q 544 4100 942 4425 
Q 1341 4750 2034 4750 
Q 2731 4750 3128 4425 
Q 3525 4100 3525 3541 
Q 3525 3141 3298 2862 
Q 3072 2584 2669 2484 
Q 3125 2378 3379 2068 
Q 3634 1759 3634 1313 
Q 3634 634 3220 271 
Q 2806 -91 2034 -91 
Q 1263 -91 848 271 
Q 434 634 434 1313 
Q 434 1759 690 2068 
Q 947 2378 1403 2484 
z
M 1172 3481 
Q 1172 3119 1398 2916 
Q 1625 2713 2034 2713 
Q 2441 2713 2670 2916 
Q 2900 3119 2900 3481 
Q 2900 3844 2670 4047 
Q 2441 4250 2034 4250 
Q 1625 4250 1398 4047 
Q 1172 3844 1172 3481 
z
" transform="scale(0.015625)"/>
      <path id="DejaVuSans-39" d="M 703 97 
L 703 672 
Q 941 559 1184 500 
Q 1428 441 1663 441 
Q 2288 441 2617 861 
Q 2947 1281 2994 2138 
Q 2813 1869 2534 1725 
Q 2256 1581 1919 1581 
Q 1219 1581 811 2004 
Q 403 2428 403 3163 
Q 403 3881 828 4315 
Q 1253 4750 1959 4750 
Q 2769 4750 3195 4129 
Q 3622 3509 3622 2328 
Q 3622 1225 3098 567 
Q 2575 -91 1691 -91 
Q 1453 -91 1209 -44 
Q 966 3 703 97 
z
M 1959 2075 
Q 2384 2075 2632 2365 
Q 2881 2656 2881 3163 
Q 2881 3666 2632 3958 
Q 2384 4250 1959 4250 
Q 1534 4250 1286 3958 
Q 1038 3666 1038 3163 
Q 1038 2656 1286 2365 
Q 1534 2075 1959 2075 
z
" transform="scale(0.015625)"/>
     </defs>
     <use xlink:href="#DejaVuSans-56"/>
     <use xlink:href="#DejaVuSans-6f" transform="translate(60.658203 0)"/>
     <use xlink:href="#DejaVuSans-72" transform="translate(121.839844 0)"/>
     <use xlink:href="#DejaVuSans-68" transform="translate(161.203125 0)"/>
     <use xlink:href="#DejaVuSans-65" transform="translate(224.582031 0)"/>
     <use xlink:href="#DejaVuSans-72" transform="translate(286.105469 0)"/>
     <use xlink:href="#DejaVuSans-73" transform="translate(327.21875 0)"/>
     <use xlink:href="#DejaVuSans-61" transform="translate(379.318359 0)"/>
     <use xlink:href="#DejaVuSans-67" transform="translate(440.597656 0)"/>
     <use xlink:href="#DejaVuSans-65" transform="translate(504.074219 0)"/>
     <use xlink:href="#DejaVuSans-66" transform="translate(565.597656 0)"/>
     <use xlink:href="#DejaVuSans-65" transform="translate(600.802734 0)"/>
     <use xlink:href="#DejaVuSans-68" transform="translate(662.326172 0)"/>
     <use xlink:href="#DejaVuSans-6c" transform="translate(725.705078 0)"/>
     <use xlink:href="#DejaVuSans-65" transform="translate(753.488281 0)"/>
     <use xlink:href="#DejaVuSans-72" transform="translate(815.011719 0)"/>
     <use xlink:href="#DejaVuSans-20" transform="translate(856.125 0)"/>
     <use xlink:href="#DejaVuSans-32" transform="translate(887.912109 0)"/>
     <use xlink:href="#DejaVuSans-30" transform="translate(951.535156 0)"/>
     <use xlink:href="#DejaVuSans-31" transform="translate(1015.158203 0)"/>
     <use xlink:href="#DejaVuSans-36" transform="translate(1078.78125 0)"/>
     <use xlink:href="#DejaVuSans-20" transform="translate(1142.404297 0)"/>
     <use xlink:href="#DejaVuSans-28" transform="translate(1174.191406 0)"/>
     <use xlink:href="#DejaVuSans-53" transform="translate(1213.205078 0)"/>
     <use xlink:href="#DejaVuSans-74" transform="translate(1276.681641 0)"/>
     <use xlink:href="#DejaVuSans-fc" transform="translate(1315.890625 0)"/>
     <use xlink:href="#DejaVuSans-6e" transform="translate(1379.269531 0)"/>
     <use xlink:href="#DejaVuSans-64" transform="translate(1442.648438 0)"/>
     <use xlink:href="#DejaVuSans-6c" transform="translate(1506.125 0)"/>
     <use xlink:href="#DejaVuSans-69" transform="translate(1533.908203 0)"/>
     <use xlink:href="#DejaVuSans-63" transform="translate(1561.691406 0)"/>
     <use xlink:href="#DejaVuSans-68" transform="translate(1616.671875 0)"/>
     <use xlink:href="#DejaVuSans-29" transform="translate(1680.050781 0)"/>
     <use xlink:href="#DejaVuSans-20" transform="translate(1719.064453 0)"/>
     <use xlink:href="#DejaVuSans-2d" transform="translate(1750.851562 0)"/>
     <use xlink:href="#DejaVuSans-20" transform="translate(1786.935547 0)"/>
     <use xlink:href="#DejaVuSans-52" transform="translate(1818.722656 0)"/>
     <use xlink:href="#DejaVuSans-4d" transform="translate(1888.205078 0)"/>
     <use xlink:href="#DejaVuSans-53" transform="translate(1974.484375 0)"/>
     <use xlink:href="#DejaVuSans-45" transform="translate(2037.960938 0)"/>
     <use xlink:href="#DejaVuSans-3a" transform="translate(2101.144531 0)"/>
     <use xlink:href="#DejaVuSans-20" transform="translate(2134.835938 0)"/>
     <use xlink:href="#DejaVuSans-30" transform="translate(2166.623047 0)"/>
     <use xlink:href="#DejaVuSans-2e" transform="translate(2230.246094 0)"/>
     <use xlink:href="#DejaVuSans-32" transform="translate(2262.033203 0)"/>
     <use xlink:href="#DejaVuSans-34" transform="translate(2325.65625 0)"/>
     <use xlink:href="#DejaVuSans-20" transform="translate(2389.279297 0)"/>
     <use xlink:href="#DejaVuSans-6b" transform="translate(2421.066406 0)"/>
     <use xlink:href="#DejaVuSans-57" transform="translate(2478.976562 0)"/>
     <use xlink:href="#DejaVuSans-20" transform="translate(2577.853516 0)"/>
     <use xlink:href="#DejaVuSans-7c" transform="translate(2609.640625 0)"/>
     <use xlink:href="#DejaVuSans-20" transform="translate(2643.332031 0)"/>
     <use xlink:href="#DejaVuSans-4e" transform="translate(2675.119141 0)"/>
     <use xlink:href="#DejaVuSans-52" transform="translate(2749.923828 0)"/>
     <use xlink:href="#DejaVuSans-4d" transform="translate(2819.40625 0)"/>
     <use xlink:href="#DejaVuSans-53" transform="translate(2905.685547 0)"/>
     <use xlink:href="#DejaVuSans-45" transform="translate(2969.162109 0)"/>
     <use xlink:href="#DejaVuSans-3a" transform="translate(3032.345703 0)"/>
     <use xlink:href="#DejaVuSans-20" transform="translate(3066.037109 0)"/>
     <use xlink:href="#DejaVuSans-32" transform="translate(3097.824219 0)"/>
     <use xlink:href="#DejaVuSans-32" transform="translate(3161.447266 0)"/>
     <use xlink:href="#DejaVuSans-33" transform="translate(3225.070312 0)"/>
     <use xlink:href="#DejaVuSans-2e" transform="translate(3288.693359 0)"/>
     <use xlink:href="#DejaVuSans-32" transform="translate(3320.480469 0)"/>
     <use xlink:href="#DejaVuSans-25" transform="translate(3384.103516 0)"/>
     <use xlink:href="#DejaVuSans-20" transform="translate(3479.123047 0)"/>
     <use xlink:href="#DejaVuSans-7c" transform="translate(3510.910156 0)"/>
     <use xlink:href="#DejaVuSans-20" transform="translate(3544.601562 0)"/>
     <use xlink:href="#DejaVuSans-4d" transform="translate(3576.388672 0)"/>
     <use xlink:href="#DejaVuSans-41" transform="translate(3662.667969 0)"/>
     <use xlink:href="#DejaVuSans-50" transform="translate(3731.076172 0)"/>
     <use xlink:href="#DejaVuSans-45" transform="translate(3791.378906 0)"/>
     <use xlink:href="#DejaVuSans-3a" transform="translate(3854.5625 0)"/>
     <use xlink:href="#DejaVuSans-20" transform="translate(3888.253906 0)"/>
     <use xlink:href="#DejaVuSans-31" transform="translate(3920.041016 0)"/>
     <use xlink:href="#DejaVuSans-33" transform="translate(3983.664062 0)"/>
     <use xlink:href="#DejaVuSans-38" transform="translate(4047.287109 0)"/>
     <use xlink:href="#DejaVuSans-2e" transform="translate(4110.910156 0)"/>
     <use xlink:href="#DejaVuSans-35" transform="translate(4142.697266 0)"/>
     <use xlink:href="#DejaVuSans-25" transform="translate(4206.320312 0)"/>
     <use xlink:href="#DejaVuSans-20" transform="translate(4301.339844 0)"/>
     <use xlink:href="#DejaVuSans-7c" transform="translate(4333.126953 0)"/>
     <use xlink:href="#DejaVuSans-20" transform="translate(4366.818359 0)"/>
     <use xlink:href="#DejaVuSans-50" transform="translate(4398.605469 0)"/>
     <use xlink:href="#DejaVuSans-65" transform="translate(4455.283203 0)"/>
     <use xlink:href="#DejaVuSans-61" transform="translate(4516.806641 0)"/>
     <use xlink:href="#DejaVuSans-72" transform="translate(4578.085938 0)"/>
     <use xlink:href="#DejaVuSans-73" transform="translate(4619.199219 0)"/>
     <use xlink:href="#DejaVuSans-6f" transform="translate(4671.298828 0)"/>
     <use xlink:href="#DejaVuSans-6e" transform="translate(4732.480469 0)"/>
     <use xlink:href="#DejaVuSans-3a" transform="translate(4795.859375 0)"/>
     <use xlink:href="#DejaVuSans-20" transform="translate(4829.550781 0)"/>
     <use xlink:href="#DejaVuSans-30" transform="translate(4861.337891 0)"/>
     <use xlink:href="#DejaVuSans-2e" transform="translate(4924.960938 0)"/>
     <use xlink:href="#DejaVuSans-31" transform="translate(4956.748047 0)"/>
     <use xlink:href="#DejaVuSans-35" transform="translate(5020.371094 0)"/>
     <use xlink:href="#DejaVuSans-39" transform="translate(5083.994141 0)"/>
    </g>
   </g>
  </g>
 </g>
 <defs>
  <clipPath id="p04291eb2c0">
   <rect x="56.032188" y="23.899062" width="1369.6" height="646.84"/>
  </clipPath>
 </defs>
</svg>
